<svg version="1.1" viewBox="0.0 0.0 480.0 540.0" fill="none" stroke="none" stroke-linecap="square" stroke-miterlimit="10" xmlns:xlink="http://www.w3.org/1999/xlink" xmlns="http://www.w3.org/2000/svg"><clipPath id="p.0"><path d="m0 0l480.0 0l0 540.0l-480.0 0l0 -540.0z" clip-rule="nonzero"/></clipPath><g clip-path="url(#p.0)"><path fill="#ffffff" d="m0 0l480.0 0l0 540.0l-480.0 0z" fill-rule="evenodd"/><path fill="#c9daf8" d="m92.18898 91.81921l0 0c0 -8.514923 6.9027023 -15.417633 15.417625 -15.417633l231.9679 0c4.08902 0 8.010559 1.6243515 10.9019165 4.515724c2.8913574 2.891365 4.5157166 6.8128967 4.5157166 10.901909l0 61.66868c0 8.514923 -6.90271 15.417633 -15.417633 15.417633l-231.9679 0c-8.514923 0 -15.417625 -6.90271 -15.417625 -15.417633z" fill-rule="evenodd"/><path stroke="#5f6165" stroke-width="1.0" stroke-linejoin="round" stroke-linecap="butt" d="m92.18898 91.81921l0 0c0 -8.514923 6.9027023 -15.417633 15.417625 -15.417633l231.9679 0c4.08902 0 8.010559 1.6243515 10.9019165 4.515724c2.8913574 2.891365 4.5157166 6.8128967 4.5157166 10.901909l0 61.66868c0 8.514923 -6.90271 15.417633 -15.417633 15.417633l-231.9679 0c-8.514923 0 -15.417625 -6.90271 -15.417625 -15.417633z" fill-rule="evenodd"/><path fill="#000000" d="m114.37346 127.73354l-1.65625 0l-1.9375 -2.734375l-1.921875 2.734375l-1.609375 0l2.78125 -3.609375l-2.65625 -3.578125l1.59375 0l1.890625 2.765625l1.859375 -2.765625l1.53125 0l-2.6875 3.609375l2.8125 3.578125zm1.214325 -3.4375q0 -0.921875 0.25 -1.625q0.25 -0.71875 0.703125 -1.203125q0.46875 -0.5 1.109375 -0.75q0.65625 -0.25 1.453125 -0.25q0.34375 0 0.671875 0.046875q0.328125 0.03125 0.65625 0.125l0 -3.015625l1.25 0l0 10.109375l-1.109375 0l-0.046875 -1.359375q-0.515625 0.765625 -1.125 1.125q-0.609375 0.359375 -1.328125 0.359375q-0.609375 0 -1.078125 -0.25q-0.46875 -0.265625 -0.78125 -0.734375q-0.3125 -0.46875 -0.46875 -1.125q-0.15625 -0.65625 -0.15625 -1.453125zm1.265625 -0.078125q0 1.296875 0.375 1.9375q0.390625 0.640625 1.09375 0.640625q0.484375 0 1.0 -0.421875q0.53125 -0.421875 1.109375 -1.25l0 -3.34375q-0.3125 -0.140625 -0.6875 -0.203125q-0.359375 -0.078125 -0.734375 -0.078125q-1.015625 0 -1.59375 0.65625q-0.5625 0.65625 -0.5625 2.0625zm12.839325 1.5625q0 0.375 -0.125 0.671875q-0.125 0.296875 -0.34375 0.53125q-0.21875 0.234375 -0.515625 0.40625q-0.296875 0.15625 -0.640625 0.265625q-0.328125 0.109375 -0.6875 0.15625q-0.34375 0.046875 -0.671875 0.046875q-0.734375 0 -1.34375 -0.0625q-0.609375 -0.0625 -1.203125 -0.203125l0 -1.140625q0.640625 0.171875 1.25 0.265625q0.625 0.09375 1.25 0.09375q0.890625 0 1.3125 -0.234375q0.4375 -0.25 0.4375 -0.703125q0 -0.1875 -0.078125 -0.34375q-0.0625 -0.15625 -0.25 -0.296875q-0.171875 -0.140625 -0.546875 -0.28125q-0.375 -0.15625 -1.015625 -0.359375q-0.5 -0.140625 -0.90625 -0.3125q-0.40625 -0.1875 -0.71875 -0.4375q-0.296875 -0.25 -0.46875 -0.578125q-0.171875 -0.34375 -0.171875 -0.8125q0 -0.296875 0.140625 -0.65625q0.140625 -0.359375 0.46875 -0.65625q0.34375 -0.3125 0.921875 -0.515625q0.578125 -0.203125 1.421875 -0.203125q0.421875 0 0.9375 0.046875q0.515625 0.046875 1.078125 0.15625l0 1.109375q-0.578125 -0.140625 -1.109375 -0.203125q-0.53125 -0.078125 -0.90625 -0.078125q-0.46875 0 -0.796875 0.078125q-0.3125 0.0625 -0.515625 0.203125q-0.1875 0.125 -0.28125 0.296875q-0.078125 0.15625 -0.078125 0.34375q0 0.203125 0.0625 0.359375q0.078125 0.15625 0.28125 0.3125q0.21875 0.140625 0.578125 0.28125q0.359375 0.140625 0.953125 0.3125q0.640625 0.1875 1.0625 0.390625q0.4375 0.203125 0.703125 0.46875q0.28125 0.25 0.390625 0.5625q0.125 0.3125 0.125 0.71875zm9.29245 4.8906326l-8.0625 0l0 -1.03125l8.0625 0l0 1.03125zm6.72995 -3.2031326q-0.5 0.1875 -1.015625 0.265625q-0.5 0.09375 -1.046875 0.09375q-1.703125 0 -2.625 -0.921875q-0.921875 -0.921875 -0.921875 -2.6875q0 -0.859375 0.265625 -1.546875q0.265625 -0.703125 0.75 -1.1875q0.484375 -0.5 1.140625 -0.765625q0.671875 -0.265625 1.46875 -0.265625q0.5625 0 1.046875 0.078125q0.484375 0.078125 0.9375 0.25l0 1.1875q-0.46875 -0.234375 -0.953125 -0.34375q-0.484375 -0.109375 -1.0 -0.109375q-0.484375 0 -0.90625 0.1875q-0.421875 0.171875 -0.75 0.515625q-0.3125 0.34375 -0.5 0.84375q-0.1875 0.484375 -0.1875 1.109375q0 1.296875 0.625 1.953125q0.640625 0.640625 1.765625 0.640625q0.5 0 0.96875 -0.109375q0.484375 -0.109375 0.9375 -0.34375l0 1.15625zm4.91745 -8.828125l-2.125 0l0 -1.015625l3.390625 0l0 9.078125l2.125 0l0 1.03125l-5.75 0l0 -1.03125l2.359375 0l0 -8.0625zm11.3862 9.09375l-1.125 0l-0.03125 -1.15625q-0.328125 0.375 -0.625 0.625q-0.28125 0.234375 -0.578125 0.390625q-0.28125 0.140625 -0.578125 0.203125q-0.28125 0.0625 -0.59375 0.0625q-1.109375 0 -1.6875 -0.640625q-0.5625 -0.65625 -0.5625 -1.96875l0 -4.703125l1.25 0l0 4.59375q0 1.65625 1.25 1.65625q0.21875 0 0.4375 -0.0625q0.21875 -0.078125 0.453125 -0.234375q0.25 -0.171875 0.515625 -0.453125q0.28125 -0.296875 0.625 -0.734375l0 -4.765625l1.25 0l0 7.1875zm7.964325 -1.953125q0 0.375 -0.125 0.671875q-0.125 0.296875 -0.34375 0.53125q-0.21875 0.234375 -0.515625 0.40625q-0.296875 0.15625 -0.640625 0.265625q-0.328125 0.109375 -0.6875 0.15625q-0.34375 0.046875 -0.671875 0.046875q-0.734375 0 -1.34375 -0.0625q-0.609375 -0.0625 -1.203125 -0.203125l0 -1.140625q0.640625 0.171875 1.25 0.265625q0.625 0.09375 1.25 0.09375q0.890625 0 1.3125 -0.234375q0.4375 -0.25 0.4375 -0.703125q0 -0.1875 -0.078125 -0.34375q-0.0625 -0.15625 -0.25 -0.296875q-0.171875 -0.140625 -0.546875 -0.28125q-0.375 -0.15625 -1.015625 -0.359375q-0.5 -0.140625 -0.90625 -0.3125q-0.40625 -0.1875 -0.71875 -0.4375q-0.296875 -0.25 -0.46875 -0.578125q-0.171875 -0.34375 -0.171875 -0.8125q0 -0.296875 0.140625 -0.65625q0.140625 -0.359375 0.46875 -0.65625q0.34375 -0.3125 0.921875 -0.515625q0.578125 -0.203125 1.421875 -0.203125q0.421875 0 0.9375 0.046875q0.515625 0.046875 1.078125 0.15625l0 1.109375q-0.578125 -0.140625 -1.109375 -0.203125q-0.53125 -0.078125 -0.90625 -0.078125q-0.46875 0 -0.796875 0.078125q-0.3125 0.0625 -0.515625 0.203125q-0.1875 0.125 -0.28125 0.296875q-0.078125 0.15625 -0.078125 0.34375q0 0.203125 0.0625 0.359375q0.078125 0.15625 0.28125 0.3125q0.21875 0.140625 0.578125 0.28125q0.359375 0.140625 0.953125 0.3125q0.640625 0.1875 1.0625 0.390625q0.4375 0.203125 0.703125 0.46875q0.28125 0.25 0.390625 0.5625q0.125 0.3125 0.125 0.71875zm8.16745 1.859375q-0.421875 0.09375 -0.875 0.140625q-0.453125 0.046875 -0.921875 0.046875q-1.34375 0 -2.015625 -0.609375q-0.65625 -0.609375 -0.65625 -1.875l0 -3.75l-2.015625 0l0 -1.046875l2.015625 0l0 -1.96875l1.234375 -0.328125l0 2.296875l3.234375 0l0 1.046875l-3.234375 0l0 3.65625q0 0.765625 0.40625 1.15625q0.421875 0.375 1.21875 0.375q0.34375 0 0.75 -0.046875q0.40625 -0.0625 0.859375 -0.171875l0 1.078125zm8.339325 -3.875q0 0.265625 -0.015625 0.453125q0 0.171875 -0.015625 0.328125l-5.046875 0q0 1.09375 0.609375 1.6875q0.625 0.59375 1.78125 0.59375q0.3125 0 0.625 -0.015625q0.3125 -0.03125 0.609375 -0.078125q0.296875 -0.046875 0.5625 -0.09375q0.265625 -0.0625 0.5 -0.125l0 1.03125q-0.515625 0.140625 -1.15625 0.21875q-0.640625 0.09375 -1.328125 0.09375q-0.921875 0 -1.59375 -0.25q-0.65625 -0.25 -1.078125 -0.71875q-0.421875 -0.484375 -0.625 -1.171875q-0.203125 -0.6875 -0.203125 -1.5625q0 -0.765625 0.21875 -1.4375q0.21875 -0.671875 0.625 -1.1875q0.421875 -0.515625 1.03125 -0.8125q0.609375 -0.296875 1.375 -0.296875q0.765625 0 1.34375 0.234375q0.578125 0.234375 0.96875 0.671875q0.40625 0.4375 0.609375 1.0625q0.203125 0.609375 0.203125 1.375zm-1.296875 -0.1875q0.015625 -0.46875 -0.109375 -0.859375q-0.109375 -0.40625 -0.34375 -0.6875q-0.234375 -0.296875 -0.59375 -0.453125q-0.359375 -0.15625 -0.828125 -0.15625q-0.40625 0 -0.75 0.15625q-0.328125 0.15625 -0.578125 0.4375q-0.25 0.28125 -0.40625 0.6875q-0.140625 0.40625 -0.171875 0.875l3.78125 0zm3.5737 -3.03125l1.140625 0l0.03125 1.328125q0.640625 -0.765625 1.25 -1.109375q0.625 -0.34375 1.25 -0.34375q1.125 0 1.703125 0.71875q0.578125 0.71875 0.53125 2.15625l-1.265625 0q0.03125 -0.953125 -0.265625 -1.375q-0.296875 -0.421875 -0.875 -0.421875q-0.25 0 -0.515625 0.09375q-0.25 0.078125 -0.515625 0.28125q-0.265625 0.1875 -0.5625 0.5q-0.296875 0.3125 -0.640625 0.75l0 4.609375l-1.265625 0l0 -7.1875zm14.683075 10.125008l-8.0625 0l0 -1.03125l8.0625 0l0 1.03125zm3.589325 -9.093758l-2.125 0l0 -1.03125l3.390625 0l0 6.15625l2.125 0l0 1.03125l-5.75 0l0 -1.03125l2.359375 0l0 -5.125zm0.4375 -4.046875q0.203125 0 0.375 0.078125q0.1875 0.078125 0.3125 0.21875q0.140625 0.125 0.21875 0.3125q0.078125 0.171875 0.078125 0.375q0 0.203125 -0.078125 0.390625q-0.078125 0.171875 -0.21875 0.3125q-0.125 0.125 -0.3125 0.203125q-0.171875 0.078125 -0.375 0.078125q-0.203125 0 -0.390625 -0.078125q-0.171875 -0.078125 -0.3125 -0.203125q-0.125 -0.140625 -0.203125 -0.3125q-0.078125 -0.1875 -0.078125 -0.390625q0 -0.203125 0.078125 -0.375q0.078125 -0.1875 0.203125 -0.3125q0.140625 -0.140625 0.3125 -0.21875q0.1875 -0.078125 0.390625 -0.078125zm10.29245 10.203125l0 -5.15625q0 -0.34375 -0.03125 -0.546875q-0.015625 -0.21875 -0.078125 -0.34375q-0.046875 -0.125 -0.125 -0.171875q-0.078125 -0.0625 -0.203125 -0.0625q-0.140625 0 -0.265625 0.09375q-0.125 0.078125 -0.265625 0.28125q-0.140625 0.1875 -0.3125 0.515625q-0.15625 0.3125 -0.390625 0.78125l0 4.609375l-1.140625 0l0 -5.03125q0 -0.390625 -0.03125 -0.625q-0.015625 -0.25 -0.078125 -0.375q-0.046875 -0.140625 -0.140625 -0.1875q-0.078125 -0.0625 -0.203125 -0.0625q-0.125 0 -0.25 0.078125q-0.109375 0.0625 -0.25 0.25q-0.125 0.1875 -0.296875 0.515625q-0.171875 0.328125 -0.40625 0.828125l0 4.609375l-1.15625 0l0 -7.1875l0.953125 0l0.0625 1.375q0.1875 -0.40625 0.359375 -0.6875q0.171875 -0.296875 0.359375 -0.46875q0.1875 -0.1875 0.390625 -0.265625q0.21875 -0.078125 0.46875 -0.078125q0.59375 0 0.890625 0.375q0.296875 0.375 0.296875 1.171875q0.171875 -0.375 0.328125 -0.65625q0.171875 -0.296875 0.359375 -0.484375q0.1875 -0.203125 0.421875 -0.296875q0.234375 -0.109375 0.53125 -0.109375q1.34375 0 1.34375 2.078125l0 5.234375l-1.140625 0zm9.073715 -3.71875q0 0.953125 -0.265625 1.671875q-0.265625 0.71875 -0.75 1.1875q-0.46875 0.46875 -1.109375 0.703125q-0.64064026 0.234375 -1.3906403 0.234375q-0.34375 0 -0.6875 -0.03125q-0.34375 -0.03125 -0.6875 -0.125l0 3.0156326l-1.25 0l0 -10.125008l1.109375 0l0.078125 1.203125q0.546875 -0.734375 1.15625 -1.03125q0.609375 -0.296875 1.3125 -0.296875q0.60939026 0 1.0781403 0.265625q0.46875 0.25 0.78125 0.71875q0.3125 0.46875 0.46875 1.140625q0.15625 0.65625 0.15625 1.46875zm-1.265625 0.046875q0 -0.5625 -0.09375 -1.03125q-0.078125 -0.46875 -0.265625 -0.796875q-0.171875 -0.34375 -0.453125 -0.53125q-0.26564026 -0.1875 -0.65626526 -0.1875q-0.234375 0 -0.484375 0.078125q-0.234375 0.0625 -0.5 0.25q-0.265625 0.171875 -0.5625 0.46875q-0.28125 0.28125 -0.609375 0.703125l0 3.484375q0.34375 0.140625 0.71875 0.234375q0.390625 0.078125 0.75 0.078125q1.0 0 1.5781403 -0.6875q0.578125 -0.6875 0.578125 -2.0625zm5.6362 -5.421875l-2.125 0l0 -1.015625l3.390625 0l0 9.078125l2.125 0l0 1.03125l-5.75 0l0 -1.03125l2.359375 0l0 -8.0625zm12.526825 12.031258l-8.0625 0l0 -1.03125l8.0625 0l0 1.03125zm7.214325 -6.9062576q0 0.265625 -0.015625 0.453125q0 0.171875 -0.015625 0.328125l-5.046875 0q0 1.09375 0.609375 1.6875q0.625 0.59375 1.78125 0.59375q0.3125 0 0.625 -0.015625q0.3125 -0.03125 0.609375 -0.078125q0.296875 -0.046875 0.5625 -0.09375q0.265625 -0.0625 0.5 -0.125l0 1.03125q-0.515625 0.140625 -1.15625 0.21875q-0.640625 0.09375 -1.328125 0.09375q-0.921875 0 -1.59375 -0.25q-0.65625 -0.25 -1.078125 -0.71875q-0.421875 -0.484375 -0.625 -1.171875q-0.203125 -0.6875 -0.203125 -1.5625q0 -0.765625 0.21875 -1.4375q0.21875 -0.671875 0.625 -1.1875q0.421875 -0.515625 1.03125 -0.8125q0.609375 -0.296875 1.375 -0.296875q0.765625 0 1.34375 0.234375q0.578125 0.234375 0.96875 0.671875q0.40625 0.4375 0.609375 1.0625q0.203125 0.609375 0.203125 1.375zm-1.296875 -0.1875q0.015625 -0.46875 -0.109375 -0.859375q-0.109375 -0.40625 -0.34375 -0.6875q-0.234375 -0.296875 -0.59375 -0.453125q-0.359375 -0.15625 -0.828125 -0.15625q-0.40625 0 -0.75 0.15625q-0.328125 0.15625 -0.578125 0.4375q-0.25 0.28125 -0.40625 0.6875q-0.140625 0.40625 -0.171875 0.875l3.78125 0zm9.7612 4.15625l-1.65625 0l-1.9375 -2.734375l-1.921875 2.734375l-1.609375 0l2.78125 -3.609375l-2.65625 -3.578125l1.59375 0l1.890625 2.765625l1.859375 -2.765625l1.53125 0l-2.6875 3.609375l2.8125 3.578125zm7.714325 -3.71875q0 0.953125 -0.265625 1.671875q-0.265625 0.71875 -0.75 1.1875q-0.46875 0.46875 -1.109375 0.703125q-0.640625 0.234375 -1.390625 0.234375q-0.34375 0 -0.6875 -0.03125q-0.34375 -0.03125 -0.6875 -0.125l0 3.0156326l-1.25 0l0 -10.125008l1.109375 0l0.078125 1.203125q0.546875 -0.734375 1.15625 -1.03125q0.609375 -0.296875 1.3125 -0.296875q0.609375 0 1.078125 0.265625q0.46875 0.25 0.78125 0.71875q0.3125 0.46875 0.46875 1.140625q0.15625 0.65625 0.15625 1.46875zm-1.265625 0.046875q0 -0.5625 -0.09375 -1.03125q-0.078125 -0.46875 -0.265625 -0.796875q-0.171875 -0.34375 -0.453125 -0.53125q-0.265625 -0.1875 -0.65625 -0.1875q-0.234375 0 -0.484375 0.078125q-0.234375 0.0625 -0.5 0.25q-0.265625 0.171875 -0.5625 0.46875q-0.28125 0.28125 -0.609375 0.703125l0 3.484375q0.34375 0.140625 0.71875 0.234375q0.390625 0.078125 0.75 0.078125q1.0 0 1.578125 -0.6875q0.578125 -0.6875 0.578125 -2.0625zm9.2612 -0.296875q0 0.265625 -0.015625 0.453125q0 0.171875 -0.015625 0.328125l-5.046875 0q0 1.09375 0.609375 1.6875q0.625 0.59375 1.78125 0.59375q0.3125 0 0.625 -0.015625q0.3125 -0.03125 0.609375 -0.078125q0.296875 -0.046875 0.5625 -0.09375q0.265625 -0.0625 0.5 -0.125l0 1.03125q-0.515625 0.140625 -1.15625 0.21875q-0.640625 0.09375 -1.328125 0.09375q-0.921875 0 -1.59375 -0.25q-0.65625 -0.25 -1.078125 -0.71875q-0.421875 -0.484375 -0.625 -1.171875q-0.203125 -0.6875 -0.203125 -1.5625q0 -0.765625 0.21875 -1.4375q0.21875 -0.671875 0.625 -1.1875q0.421875 -0.515625 1.03125 -0.8125q0.609375 -0.296875 1.375 -0.296875q0.765625 0 1.34375 0.234375q0.578125 0.234375 0.96875 0.671875q0.40625 0.4375 0.609375 1.0625q0.203125 0.609375 0.203125 1.375zm-1.296875 -0.1875q0.015625 -0.46875 -0.109375 -0.859375q-0.109375 -0.40625 -0.34375 -0.6875q-0.234375 -0.296875 -0.59375 -0.453125q-0.359375 -0.15625 -0.828125 -0.15625q-0.40625 0 -0.75 0.15625q-0.328125 0.15625 -0.578125 0.4375q-0.25 0.28125 -0.40625 0.6875q-0.140625 0.40625 -0.171875 0.875l3.78125 0zm3.5737 -3.03125l1.140625 0l0.03125 1.328125q0.640625 -0.765625 1.25 -1.109375q0.625 -0.34375 1.25 -0.34375q1.125 0 1.703125 0.71875q0.578125 0.71875 0.53125 2.15625l-1.265625 0q0.03125 -0.953125 -0.265625 -1.375q-0.296875 -0.421875 -0.875 -0.421875q-0.25 0 -0.515625 0.09375q-0.25 0.078125 -0.515625 0.28125q-0.265625 0.1875 -0.5625 0.5q-0.296875 0.3125 -0.640625 0.75l0 4.609375l-1.265625 0l0 -7.1875zm10.214325 1.03125l-2.125 0l0 -1.03125l3.390625 0l0 6.15625l2.125 0l0 1.03125l-5.75 0l0 -1.03125l2.359375 0l0 -5.125zm0.4375 -4.046875q0.203125 0 0.375 0.078125q0.1875 0.078125 0.3125 0.21875q0.140625 0.125 0.21875 0.3125q0.078125 0.171875 0.078125 0.375q0 0.203125 -0.078125 0.390625q-0.078125 0.171875 -0.21875 0.3125q-0.125 0.125 -0.3125 0.203125q-0.171875 0.078125 -0.375 0.078125q-0.203125 0 -0.390625 -0.078125q-0.171875 -0.078125 -0.3125 -0.203125q-0.125 -0.140625 -0.203125 -0.3125q-0.078125 -0.1875 -0.078125 -0.390625q0 -0.203125 0.078125 -0.375q0.078125 -0.1875 0.203125 -0.3125q0.140625 -0.140625 0.3125 -0.21875q0.1875 -0.078125 0.390625 -0.078125zm10.29245 10.203125l0 -5.15625q0 -0.34375 -0.03125 -0.546875q-0.015625 -0.21875 -0.078125 -0.34375q-0.046875 -0.125 -0.125 -0.171875q-0.078125 -0.0625 -0.203125 -0.0625q-0.140625 0 -0.265625 0.09375q-0.125 0.078125 -0.265625 0.28125q-0.140625 0.1875 -0.3125 0.515625q-0.15625 0.3125 -0.390625 0.78125l0 4.609375l-1.140625 0l0 -5.03125q0 -0.390625 -0.03125 -0.625q-0.015625 -0.25 -0.078125 -0.375q-0.046875 -0.140625 -0.140625 -0.1875q-0.078125 -0.0625 -0.203125 -0.0625q-0.125 0 -0.25 0.078125q-0.109375 0.0625 -0.25 0.25q-0.125 0.1875 -0.296875 0.515625q-0.171875 0.328125 -0.40625 0.828125l0 4.609375l-1.15625 0l0 -7.1875l0.953125 0l0.0625 1.375q0.1875 -0.40625 0.359375 -0.6875q0.171875 -0.296875 0.359375 -0.46875q0.1875 -0.1875 0.390625 -0.265625q0.21875 -0.078125 0.46875 -0.078125q0.59375 0 0.890625 0.375q0.296875 0.375 0.296875 1.171875q0.171875 -0.375 0.328125 -0.65625q0.171875 -0.296875 0.359375 -0.484375q0.1875 -0.203125 0.421875 -0.296875q0.234375 -0.109375 0.53125 -0.109375q1.34375 0 1.34375 2.078125l0 5.234375l-1.140625 0zm9.0112 -3.96875q0 0.265625 -0.015625 0.453125q0 0.171875 -0.015625 0.328125l-5.046875 0q0 1.09375 0.609375 1.6875q0.625 0.59375 1.78125 0.59375q0.3125 0 0.625 -0.015625q0.3125 -0.03125 0.609375 -0.078125q0.296875 -0.046875 0.5625 -0.09375q0.265625 -0.0625 0.5 -0.125l0 1.03125q-0.515625 0.140625 -1.15625 0.21875q-0.640625 0.09375 -1.328125 0.09375q-0.921875 0 -1.59375 -0.25q-0.65625 -0.25 -1.078125 -0.71875q-0.421875 -0.484375 -0.625 -1.171875q-0.203125 -0.6875 -0.203125 -1.5625q0 -0.765625 0.21875 -1.4375q0.21875 -0.671875 0.625 -1.1875q0.421875 -0.515625 1.03125 -0.8125q0.609375 -0.296875 1.375 -0.296875q0.765625 0 1.34375 0.234375q0.578125 0.234375 0.96875 0.671875q0.40625 0.4375 0.609375 1.0625q0.203125 0.609375 0.203125 1.375zm-1.296875 -0.1875q0.015625 -0.46875 -0.109375 -0.859375q-0.109375 -0.40625 -0.34375 -0.6875q-0.234375 -0.296875 -0.59375 -0.453125q-0.359375 -0.15625 -0.828125 -0.15625q-0.40625 0 -0.75 0.15625q-0.328125 0.15625 -0.578125 0.4375q-0.25 0.28125 -0.40625 0.6875q-0.140625 0.40625 -0.171875 0.875l3.78125 0zm3.276825 -3.03125l1.109375 0l0.046875 1.15625q0.328125 -0.359375 0.609375 -0.609375q0.296875 -0.25 0.578125 -0.390625q0.28125 -0.15625 0.578125 -0.21875q0.296875 -0.0625 0.609375 -0.0625q1.109375 0 1.671875 0.65625q0.578125 0.65625 0.578125 1.96875l0 4.6875l-1.25 0l0 -4.59375q0 -0.84375 -0.3125 -1.234375q-0.3125 -0.40625 -0.9375 -0.40625q-0.234375 0 -0.453125 0.0625q-0.21875 0.0625 -0.453125 0.234375q-0.234375 0.171875 -0.515625 0.453125q-0.265625 0.28125 -0.609375 0.71875l0 4.765625l-1.25 0l0 -7.1875zm13.85495 7.09375q-0.421875 0.09375 -0.875 0.140625q-0.453125 0.046875 -0.921875 0.046875q-1.34375 0 -2.015625 -0.609375q-0.65625 -0.609375 -0.65625 -1.875l0 -3.75l-2.015625 0l0 -1.046875l2.015625 0l0 -1.96875l1.234375 -0.328125l0 2.296875l3.234375 0l0 1.046875l-3.234375 0l0 3.65625q0 0.765625 0.40625 1.15625q0.421875 0.375 1.21875 0.375q0.34375 0 0.75 -0.046875q0.40625 -0.0625 0.859375 -0.171875l0 1.078125zm6.8862 0.09375l-0.03125 -0.96875q-0.59375 0.578125 -1.203125 0.84375q-0.59375 0.25 -1.265625 0.25q-0.609375 0 -1.046875 -0.15625q-0.4375 -0.15625 -0.71875 -0.421875q-0.28125 -0.28125 -0.421875 -0.65625q-0.125 -0.375 -0.125 -0.8125q0 -1.078125 0.796875 -1.6875q0.8125 -0.609375 2.390625 -0.609375l1.484375 0l0 -0.640625q0 -0.625 -0.40625 -1.0q-0.40625 -0.390625 -1.25 -0.390625q-0.609375 0 -1.203125 0.140625q-0.578125 0.125 -1.21875 0.375l0 -1.125q0.25 -0.078125 0.53125 -0.15625q0.296875 -0.09375 0.609375 -0.15625q0.328125 -0.0625 0.671875 -0.09375q0.359375 -0.046875 0.71875 -0.046875q0.640625 0 1.15625 0.140625q0.53125 0.140625 0.890625 0.4375q0.359375 0.296875 0.546875 0.75q0.203125 0.4375 0.203125 1.03125l0 4.953125l-1.109375 0zm-0.140625 -3.265625l-1.578125 0q-0.46875 0 -0.8125 0.09375q-0.328125 0.09375 -0.546875 0.265625q-0.21875 0.171875 -0.328125 0.40625q-0.09375 0.234375 -0.09375 0.546875q0 0.203125 0.0625 0.390625q0.0625 0.1875 0.203125 0.34375q0.15625 0.140625 0.375 0.234375q0.234375 0.078125 0.5625 0.078125q0.4375 0 0.984375 -0.265625q0.5625 -0.265625 1.171875 -0.828125l0 -1.265625zm6.026825 -5.828125l-2.125 0l0 -1.015625l3.390625 0l0 9.078125l2.125 0l0 1.03125l-5.75 0l0 -1.03125l2.359375 0l0 -8.0625z" fill-rule="nonzero"/><path fill="#ea9999" d="m92.178474 243.79295l0 0c0 -8.514923 6.90271 -15.417618 15.417633 -15.417618l231.9679 0c4.08902 0 8.010559 1.6243439 10.9019165 4.5157166c2.8913574 2.8913574 4.5157166 6.8128967 4.5157166 10.901901l0 61.668686c0 8.514923 -6.90271 15.417633 -15.417633 15.417633l-231.9679 0c-8.514923 0 -15.417633 -6.90271 -15.417633 -15.417633z" fill-rule="evenodd"/><path stroke="#5f6165" stroke-width="1.0" stroke-linejoin="round" stroke-linecap="butt" stroke-dasharray="8.0,3.0" d="m92.178474 243.79295l0 0c0 -8.514923 6.90271 -15.417618 15.417633 -15.417618l231.9679 0c4.08902 0 8.010559 1.6243439 10.9019165 4.5157166c2.8913574 2.8913574 4.5157166 6.8128967 4.5157166 10.901901l0 61.668686c0 8.514923 -6.90271 15.417633 -15.417633 15.417633l-231.9679 0c-8.514923 0 -15.417633 -6.90271 -15.417633 -15.417633z" fill-rule="evenodd"/><path fill="#000000" d="m113.77227 276.50293q0 0.90625 -0.265625 1.671875q-0.25 0.765625 -0.734375 1.3125q-0.484375 0.53125 -1.1875 0.84375q-0.6875 0.296875 -1.5625 0.296875q-0.84375 0 -1.515625 -0.265625q-0.671875 -0.265625 -1.140625 -0.765625q-0.453125 -0.515625 -0.703125 -1.265625q-0.25 -0.75 -0.25 -1.71875q0 -0.921875 0.25 -1.671875q0.265625 -0.75 0.75 -1.296875q0.484375 -0.546875 1.171875 -0.84375q0.703125 -0.296875 1.59375 -0.296875q0.84375 0 1.5 0.265625q0.671875 0.25 1.140625 0.765625q0.46875 0.5 0.703125 1.25q0.25 0.75 0.25 1.71875zm-1.390625 0.0625q0 -0.734375 -0.15625 -1.265625q-0.15625 -0.546875 -0.453125 -0.90625q-0.296875 -0.375 -0.734375 -0.546875q-0.421875 -0.1875 -0.9375 -0.1875q-0.609375 0 -1.046875 0.234375q-0.4375 0.234375 -0.71875 0.640625q-0.265625 0.390625 -0.40625 0.921875q-0.125 0.53125 -0.125 1.109375q0 0.71875 0.15625 1.265625q0.171875 0.546875 0.46875 0.921875q0.296875 0.359375 0.71875 0.546875q0.421875 0.171875 0.953125 0.171875q0.609375 0 1.03125 -0.234375q0.4375 -0.234375 0.71875 -0.625q0.28125 -0.40625 0.40625 -0.9375q0.125 -0.53125 0.125 -1.109375zm2.625 -3.921875l1.546875 0l1.921875 5.1875l0.421875 1.265625l0.421875 -1.296875l1.90625 -5.15625l1.5 0l-3.078125 7.84375l-1.5625 0l-3.078125 -7.84375zm16.156258 3.5q0 0.296875 -0.015625 0.5q0 0.1875 -0.015625 0.359375l-5.5000076 0q0 1.203125 0.671875 1.84375q0.671875 0.640625 1.9375076 0.640625q0.34375 0 0.6875 -0.015625q0.34375 -0.03125 0.65625 -0.078125q0.328125 -0.046875 0.609375 -0.109375q0.296875 -0.0625 0.546875 -0.125l0 1.109375q-0.546875 0.15625 -1.25 0.25q-0.703125 0.109375 -1.453125 0.109375q-1.0000076 0 -1.7343826 -0.265625q-0.71875 -0.28125 -1.1875 -0.796875q-0.46875 -0.53125 -0.6875 -1.28125q-0.21875 -0.75 -0.21875 -1.703125q0 -0.828125 0.234375 -1.5625q0.234375 -0.75 0.6875 -1.296875q0.46875 -0.5625 1.125 -0.890625q0.671875 -0.328125 1.515625 -0.328125q0.8125076 0 1.4375076 0.265625q0.640625 0.25 1.078125 0.71875q0.4375 0.46875 0.65625 1.15625q0.21875 0.671875 0.21875 1.5zm-1.40625 -0.1875q0.015625 -0.53125 -0.109375 -0.953125q-0.125 -0.4375 -0.390625 -0.75q-0.25 -0.3125 -0.640625 -0.484375q-0.390625 -0.1875 -0.9062576 -0.1875q-0.453125 0 -0.828125 0.171875q-0.359375 0.171875 -0.625 0.484375q-0.265625 0.3125 -0.4375 0.75q-0.15625 0.4375 -0.1875 0.96875l4.1250076 0zm3.90625 -3.3125l1.234375 0l0.046875 1.4375q0.6875 -0.828125 1.359375 -1.203125q0.6875 -0.375 1.375 -0.375q1.21875 0 1.84375 0.796875q0.625 0.78125 0.578125 2.328125l-1.375 0q0.03125 -1.03125 -0.296875 -1.484375q-0.328125 -0.46875 -0.953125 -0.46875q-0.265625 0 -0.546875 0.09375q-0.28125 0.09375 -0.578125 0.3125q-0.28125 0.21875 -0.609375 0.5625q-0.328125 0.328125 -0.703125 0.796875l0 5.046875l-1.375 0l0 -7.84375zm8.796875 0l1.234375 0l0.046875 1.4375q0.6875 -0.828125 1.359375 -1.203125q0.6875 -0.375 1.375 -0.375q1.21875 0 1.84375 0.796875q0.625 0.78125 0.578125 2.328125l-1.375 0q0.03125 -1.03125 -0.296875 -1.484375q-0.328125 -0.46875 -0.953125 -0.46875q-0.265625 0 -0.546875 0.09375q-0.28125 0.09375 -0.578125 0.3125q-0.28125 0.21875 -0.609375 0.5625q-0.328125 0.328125 -0.703125 0.796875l0 5.046875l-1.375 0l0 -7.84375zm11.140625 1.125l-2.3125 0l0 -1.125l3.6875 0l0 6.703125l2.34375 0l0 1.140625l-6.296875 0l0 -1.140625l2.578125 0l0 -5.578125zm0.484375 -4.421875q0.21875 0 0.40625 0.09375q0.203125 0.078125 0.34375 0.234375q0.15625 0.140625 0.234375 0.328125q0.078125 0.1875 0.078125 0.421875q0 0.21875 -0.078125 0.421875q-0.078125 0.1875 -0.234375 0.34375q-0.140625 0.140625 -0.34375 0.21875q-0.1875 0.078125 -0.40625 0.078125q-0.234375 0 -0.4375 -0.078125q-0.1875 -0.078125 -0.328125 -0.21875q-0.140625 -0.15625 -0.234375 -0.34375q-0.078125 -0.203125 -0.078125 -0.421875q0 -0.234375 0.078125 -0.421875q0.09375 -0.1875 0.234375 -0.328125q0.140625 -0.15625 0.328125 -0.234375q0.203125 -0.09375 0.4375 -0.09375zm5.25 7.375q0 -1.0 0.265625 -1.765625q0.28125 -0.78125 0.78125 -1.3125q0.5 -0.546875 1.203125 -0.8125q0.71875 -0.28125 1.578125 -0.28125q0.375 0 0.734375 0.046875q0.375 0.046875 0.71875 0.140625l0 -3.296875l1.375 0l0 11.046875l-1.21875 0l-0.046875 -1.484375q-0.578125 0.828125 -1.25 1.234375q-0.65625 0.390625 -1.421875 0.390625q-0.671875 0 -1.1875 -0.28125q-0.515625 -0.28125 -0.859375 -0.796875q-0.328125 -0.515625 -0.5 -1.234375q-0.171875 -0.71875 -0.171875 -1.59375zm1.390625 -0.078125q0 1.421875 0.40625 2.125q0.421875 0.6875 1.1875 0.6875q0.515625 0 1.09375 -0.453125q0.578125 -0.46875 1.203125 -1.375l0 -3.640625q-0.328125 -0.15625 -0.734375 -0.234375q-0.40625 -0.078125 -0.8125 -0.078125q-1.109375 0 -1.734375 0.71875q-0.609375 0.71875 -0.609375 2.25zm14.421875 -0.5q0 0.296875 -0.015625 0.5q0 0.1875 -0.015625 0.359375l-5.5 0q0 1.203125 0.671875 1.84375q0.671875 0.640625 1.9375 0.640625q0.34375 0 0.6875 -0.015625q0.34375 -0.03125 0.65625 -0.078125q0.328125 -0.046875 0.609375 -0.109375q0.296875 -0.0625 0.546875 -0.125l0 1.109375q-0.546875 0.15625 -1.25 0.25q-0.703125 0.109375 -1.453125 0.109375q-1.0 0 -1.734375 -0.265625q-0.71875 -0.28125 -1.1875 -0.796875q-0.46875 -0.53125 -0.6875 -1.28125q-0.21875 -0.75 -0.21875 -1.703125q0 -0.828125 0.234375 -1.5625q0.234375 -0.75 0.6875 -1.296875q0.46875 -0.5625 1.125 -0.890625q0.671875 -0.328125 1.515625 -0.328125q0.8125 0 1.4375 0.265625q0.640625 0.25 1.078125 0.71875q0.4375 0.46875 0.65625 1.15625q0.21875 0.671875 0.21875 1.5zm-1.40625 -0.1875q0.015625 -0.53125 -0.109375 -0.953125q-0.125 -0.4375 -0.390625 -0.75q-0.25 -0.3125 -0.640625 -0.484375q-0.390625 -0.1875 -0.90625 -0.1875q-0.453125 0 -0.828125 0.171875q-0.359375 0.171875 -0.625 0.484375q-0.265625 0.3125 -0.4375 0.75q-0.15625 0.4375 -0.1875 0.96875l4.125 0zm11.125 7.734375l-8.796875 0l0 -1.125l8.796875 0l0 1.125zm7.5625 -3.203125l-1.359375 0l0 -5.015625q0 -0.90625 -0.34375 -1.34375q-0.34375 -0.453125 -0.96875 -0.453125q-0.28125 0 -0.515625 0.078125q-0.234375 0.0625 -0.5 0.25q-0.25 0.1875 -0.5625 0.5q-0.296875 0.3125 -0.703125 0.78125l0 5.203125l-1.359375 0l0 -11.046875l1.359375 0l0 3.203125l-0.046875 1.234375q0.328125 -0.390625 0.625 -0.640625q0.3125 -0.265625 0.625 -0.421875q0.3125 -0.171875 0.625 -0.234375q0.328125 -0.078125 0.671875 -0.078125q1.171875 0 1.8125 0.71875q0.640625 0.703125 0.640625 2.140625l0 5.125zm9.3125 -3.984375q0 0.90625 -0.265625 1.671875q-0.25 0.765625 -0.734375 1.3125q-0.484375 0.53125 -1.1875 0.84375q-0.6875 0.296875 -1.5625 0.296875q-0.84375 0 -1.515625 -0.265625q-0.671875 -0.265625 -1.140625 -0.765625q-0.453125 -0.515625 -0.703125 -1.265625q-0.25 -0.75 -0.25 -1.71875q0 -0.921875 0.25 -1.671875q0.265625 -0.75 0.75 -1.296875q0.484375 -0.546875 1.171875 -0.84375q0.703125 -0.296875 1.59375 -0.296875q0.84375 0 1.5 0.265625q0.671875 0.25 1.140625 0.765625q0.46875 0.5 0.703125 1.25q0.25 0.75 0.25 1.71875zm-1.390625 0.0625q0 -0.734375 -0.15625 -1.265625q-0.15625 -0.546875 -0.453125 -0.90625q-0.296875 -0.375 -0.734375 -0.546875q-0.421875 -0.1875 -0.9375 -0.1875q-0.609375 0 -1.046875 0.234375q-0.4375 0.234375 -0.71875 0.640625q-0.265625 0.390625 -0.40625 0.921875q-0.125 0.53125 -0.125 1.109375q0 0.71875 0.15625 1.265625q0.171875 0.546875 0.46875 0.921875q0.296875 0.359375 0.71875 0.546875q0.421875 0.171875 0.953125 0.171875q0.609375 0 1.03125 -0.234375q0.4375 -0.234375 0.71875 -0.625q0.28125 -0.40625 0.40625 -0.9375q0.125 -0.53125 0.125 -1.109375zm9.578125 1.78125q0 0.40625 -0.140625 0.734375q-0.140625 0.328125 -0.390625 0.59375q-0.234375 0.25 -0.5625 0.4375q-0.3125 0.171875 -0.6875 0.296875q-0.359375 0.109375 -0.75 0.15625q-0.375 0.0625 -0.734375 0.0625q-0.796875 0 -1.46875 -0.078125q-0.671875 -0.0625 -1.3125 -0.21875l0 -1.25q0.6875 0.1875 1.359375 0.296875q0.6875 0.09375 1.359375 0.09375q0.984375 0 1.453125 -0.265625q0.46875 -0.265625 0.46875 -0.75q0 -0.21875 -0.078125 -0.375q-0.078125 -0.171875 -0.28125 -0.328125q-0.1875 -0.15625 -0.59375 -0.3125q-0.40625 -0.171875 -1.125 -0.375q-0.53125 -0.15625 -0.984375 -0.359375q-0.4375 -0.203125 -0.765625 -0.46875q-0.328125 -0.28125 -0.515625 -0.640625q-0.1875 -0.375 -0.1875 -0.875q0 -0.328125 0.140625 -0.71875q0.15625 -0.390625 0.515625 -0.71875q0.375 -0.34375 1.0 -0.5625q0.625 -0.21875 1.5625 -0.21875q0.46875 0 1.03125 0.046875q0.5625 0.046875 1.171875 0.171875l0 1.21875q-0.640625 -0.15625 -1.21875 -0.234375q-0.578125 -0.078125 -1.0 -0.078125q-0.5 0 -0.859375 0.078125q-0.34375 0.078125 -0.5625 0.21875q-0.203125 0.140625 -0.296875 0.328125q-0.09375 0.171875 -0.09375 0.390625q0 0.203125 0.078125 0.375q0.078125 0.171875 0.296875 0.34375q0.234375 0.15625 0.625 0.3125q0.40625 0.15625 1.046875 0.34375q0.6875 0.203125 1.15625 0.4375q0.484375 0.21875 0.78125 0.5q0.296875 0.265625 0.421875 0.609375q0.140625 0.34375 0.140625 0.78125zm8.90625 2.03125q-0.46875 0.125 -0.96875 0.171875q-0.484375 0.046875 -0.984375 0.046875q-1.484375 0 -2.21875 -0.671875q-0.71875 -0.671875 -0.71875 -2.046875l0 -4.09375l-2.1875 0l0 -1.140625l2.1875 0l0 -2.15625l1.359375 -0.359375l0 2.515625l3.53125 0l0 1.140625l-3.53125 0l0 3.984375q0 0.84375 0.453125 1.265625q0.453125 0.40625 1.328125 0.40625q0.375 0 0.8125 -0.046875q0.453125 -0.0625 0.9375 -0.1875l0 1.171875zm10.015625 3.3125l-8.796875 0l0 -1.125l8.796875 0l0 1.125zm7.875 -7.546875q0 0.296875 -0.015625 0.5q0 0.1875 -0.015625 0.359375l-5.5 0q0 1.203125 0.671875 1.84375q0.671875 0.640625 1.9375 0.640625q0.34375 0 0.6875 -0.015625q0.34375 -0.03125 0.65625 -0.078125q0.328125 -0.046875 0.609375 -0.109375q0.296875 -0.0625 0.546875 -0.125l0 1.109375q-0.546875 0.15625 -1.25 0.25q-0.703125 0.109375 -1.453125 0.109375q-1.0 0 -1.734375 -0.265625q-0.71875 -0.28125 -1.1875 -0.796875q-0.46875 -0.53125 -0.6875 -1.28125q-0.21875 -0.75 -0.21875 -1.703125q0 -0.828125 0.234375 -1.5625q0.234375 -0.75 0.6875 -1.296875q0.46875 -0.5625 1.125 -0.890625q0.671875 -0.328125 1.515625 -0.328125q0.8125 0 1.4375 0.265625q0.640625 0.25 1.078125 0.71875q0.4375 0.46875 0.65625 1.15625q0.21875 0.671875 0.21875 1.5zm-1.40625 -0.1875q0.015625 -0.53125 -0.109375 -0.953125q-0.125 -0.4375 -0.390625 -0.75q-0.25 -0.3125 -0.640625 -0.484375q-0.390625 -0.1875 -0.90625 -0.1875q-0.453125 0 -0.828125 0.171875q-0.359375 0.171875 -0.625 0.484375q-0.265625 0.3125 -0.4375 0.75q-0.15625 0.4375 -0.1875 0.96875l4.125 0zm10.65625 4.53125l-1.8125 0l-2.109375 -3.0l-2.09375 3.0l-1.765625 0l3.046875 -3.9375l-2.90625 -3.90625l1.75 0l2.0625 3.015625l2.015625 -3.015625l1.6875 0l-2.953125 3.9375l3.078125 3.90625zm8.421875 -4.0625q0 1.046875 -0.296875 1.828125q-0.28125 0.78125 -0.796875 1.296875q-0.515625 0.515625 -1.21875 0.78125q-0.703125 0.25 -1.53125 0.25q-0.375 0 -0.75 -0.046875q-0.359375 -0.03125 -0.75 -0.125l0 3.28125l-1.359375 0l0 -11.046875l1.21875 0l0.078125 1.3125q0.59375 -0.8125 1.25 -1.125q0.671875 -0.328125 1.4375 -0.328125q0.671875 0 1.171875 0.28125q0.515625 0.28125 0.859375 0.796875q0.34375 0.5 0.515625 1.234375q0.171875 0.71875 0.171875 1.609375zm-1.390625 0.0625q0 -0.625 -0.09375 -1.140625q-0.078125 -0.515625 -0.28125 -0.875q-0.1875 -0.375 -0.5 -0.578125q-0.296875 -0.203125 -0.71875 -0.203125q-0.265625 0 -0.53125 0.078125q-0.265625 0.078125 -0.546875 0.28125q-0.28125 0.1875 -0.609375 0.5q-0.3125 0.3125 -0.671875 0.78125l0 3.8125q0.375 0.15625 0.78125 0.25q0.421875 0.078125 0.828125 0.078125q1.09375 0 1.71875 -0.734375q0.625 -0.75 0.625 -2.25zm10.109375 -0.34375q0 0.296875 -0.015625 0.5q0 0.1875 -0.015625 0.359375l-5.5 0q0 1.203125 0.671875 1.84375q0.671875 0.640625 1.9375 0.640625q0.34375 0 0.6875 -0.015625q0.34375 -0.03125 0.65625 -0.078125q0.328125 -0.046875 0.609375 -0.109375q0.296875 -0.0625 0.546875 -0.125l0 1.109375q-0.546875 0.15625 -1.25 0.25q-0.703125 0.109375 -1.453125 0.109375q-1.0 0 -1.734375 -0.265625q-0.71875 -0.28125 -1.1875 -0.796875q-0.46875 -0.53125 -0.6875 -1.28125q-0.21875 -0.75 -0.21875 -1.703125q0 -0.828125 0.234375 -1.5625q0.234375 -0.75 0.6875 -1.296875q0.46875 -0.5625 1.125 -0.890625q0.671875 -0.328125 1.515625 -0.328125q0.8125 0 1.4375 0.265625q0.640625 0.25 1.078125 0.71875q0.4375 0.46875 0.65625 1.15625q0.21875 0.671875 0.21875 1.5zm-1.40625 -0.1875q0.015625 -0.53125 -0.109375 -0.953125q-0.125 -0.4375 -0.390625 -0.75q-0.25 -0.3125 -0.640625 -0.484375q-0.390625 -0.1875 -0.90625 -0.1875q-0.453125 0 -0.828125 0.171875q-0.359375 0.171875 -0.625 0.484375q-0.265625 0.3125 -0.4375 0.75q-0.15625 0.4375 -0.1875 0.96875l4.125 0zm3.90625 -3.3125l1.234375 0l0.046875 1.4375q0.6875 -0.828125 1.359375 -1.203125q0.6875 -0.375 1.375 -0.375q1.21875 0 1.84375 0.796875q0.625 0.78125 0.578125 2.328125l-1.375 0q0.03125 -1.03125 -0.296875 -1.484375q-0.328125 -0.46875 -0.953125 -0.46875q-0.265625 0 -0.546875 0.09375q-0.28125 0.09375 -0.578125 0.3125q-0.28125 0.21875 -0.609375 0.5625q-0.328125 0.328125 -0.703125 0.796875l0 5.046875l-1.375 0l0 -7.84375zm11.140625 1.125l-2.3125 0l0 -1.125l3.6875 0l0 6.703125l2.34375 0l0 1.140625l-6.296875 0l0 -1.140625l2.578125 0l0 -5.578125zm0.484375 -4.421875q0.21875 0 0.40625 0.09375q0.203125 0.078125 0.34375 0.234375q0.15625 0.140625 0.234375 0.328125q0.078125 0.1875 0.078125 0.421875q0 0.21875 -0.078125 0.421875q-0.078125 0.1875 -0.234375 0.34375q-0.140625 0.140625 -0.34375 0.21875q-0.1875 0.078125 -0.40625 0.078125q-0.234375 0 -0.4375 -0.078125q-0.1875 -0.078125 -0.328125 -0.21875q-0.140625 -0.15625 -0.234375 -0.34375q-0.078125 -0.203125 -0.078125 -0.421875q0 -0.234375 0.078125 -0.421875q0.09375 -0.1875 0.234375 -0.328125q0.140625 -0.15625 0.328125 -0.234375q0.203125 -0.09375 0.4375 -0.09375zm11.234375 11.140625l0 -5.640625q0 -0.359375 -0.03125 -0.59375q-0.015625 -0.234375 -0.078125 -0.375q-0.0625 -0.140625 -0.15625 -0.1875q-0.078125 -0.0625 -0.21875 -0.0625q-0.15625 0 -0.296875 0.09375q-0.125 0.09375 -0.28125 0.3125q-0.140625 0.203125 -0.328125 0.5625q-0.1875 0.34375 -0.4375 0.84375l0 5.046875l-1.234375 0l0 -5.484375q0 -0.4375 -0.03125 -0.703125q-0.03125 -0.265625 -0.09375 -0.40625q-0.046875 -0.15625 -0.140625 -0.203125q-0.09375 -0.0625 -0.234375 -0.0625q-0.140625 0 -0.265625 0.078125q-0.125 0.078125 -0.28125 0.28125q-0.140625 0.203125 -0.328125 0.5625q-0.1875 0.34375 -0.453125 0.890625l0 5.046875l-1.25 0l0 -7.84375l1.046875 0l0.0625 1.484375q0.203125 -0.4375 0.390625 -0.75q0.1875 -0.3125 0.390625 -0.5q0.203125 -0.203125 0.4375 -0.28125q0.234375 -0.09375 0.515625 -0.09375q0.625 0 0.953125 0.421875q0.328125 0.40625 0.328125 1.265625q0.1875 -0.40625 0.359375 -0.71875q0.1875 -0.3125 0.390625 -0.53125q0.21875 -0.21875 0.46875 -0.328125q0.25 -0.109375 0.578125 -0.109375q1.46875 0 1.46875 2.265625l0 5.71875l-1.25 0zm9.828125 -4.34375q0 0.296875 -0.015625 0.5q0 0.1875 -0.015625 0.359375l-5.5 0q0 1.203125 0.671875 1.84375q0.671875 0.640625 1.9375 0.640625q0.34375 0 0.6875 -0.015625q0.34375 -0.03125 0.65625 -0.078125q0.328125 -0.046875 0.609375 -0.109375q0.296875 -0.0625 0.546875 -0.125l0 1.109375q-0.546875 0.15625 -1.25 0.25q-0.703125 0.109375 -1.453125 0.109375q-1.0 0 -1.734375 -0.265625q-0.71875 -0.28125 -1.1875 -0.796875q-0.46875 -0.53125 -0.6875 -1.28125q-0.21875 -0.75 -0.21875 -1.703125q0 -0.828125 0.234375 -1.5625q0.234375 -0.75 0.6875 -1.296875q0.46875 -0.5625 1.125 -0.890625q0.671875 -0.328125 1.515625 -0.328125q0.8125 0 1.4375 0.265625q0.640625 0.25 1.078125 0.71875q0.4375 0.46875 0.65625 1.15625q0.21875 0.671875 0.21875 1.5zm-1.40625 -0.1875q0.015625 -0.53125 -0.109375 -0.953125q-0.125 -0.4375 -0.390625 -0.75q-0.25 -0.3125 -0.640625 -0.484375q-0.390625 -0.1875 -0.90625 -0.1875q-0.453125 0 -0.828125 0.171875q-0.359375 0.171875 -0.625 0.484375q-0.265625 0.3125 -0.4375 0.75q-0.15625 0.4375 -0.1875 0.96875l4.125 0zm3.578125 -3.3125l1.21875 0l0.046875 1.265625q0.34375 -0.40625 0.65625 -0.671875q0.328125 -0.28125 0.640625 -0.4375q0.3125 -0.171875 0.625 -0.234375q0.328125 -0.0625 0.671875 -0.0625q1.203125 0 1.828125 0.71875q0.625 0.703125 0.625 2.140625l0 5.125l-1.359375 0l0 -5.015625q0 -0.921875 -0.34375 -1.359375q-0.34375 -0.4375 -1.03125 -0.4375q-0.25 0 -0.484375 0.078125q-0.234375 0.0625 -0.5 0.25q-0.25 0.1875 -0.5625 0.5q-0.296875 0.3125 -0.671875 0.78125l0 5.203125l-1.359375 0l0 -7.84375zm15.125 7.734375q-0.46875 0.125 -0.96875 0.171875q-0.484375 0.046875 -0.984375 0.046875q-1.484375 0 -2.21875 -0.671875q-0.71875 -0.671875 -0.71875 -2.046875l0 -4.09375l-2.1875 0l0 -1.140625l2.1875 0l0 -2.15625l1.359375 -0.359375l0 2.515625l3.53125 0l0 1.140625l-3.53125 0l0 3.984375q0 0.84375 0.453125 1.265625q0.453125 0.40625 1.328125 0.40625q0.375 0 0.8125 -0.046875q0.453125 -0.0625 0.9375 -0.1875l0 1.171875zm7.515625 0.109375l-0.03125 -1.0625q-0.640625 0.640625 -1.3125 0.921875q-0.65625 0.28125 -1.375 0.28125q-0.671875 0 -1.15625 -0.171875q-0.46875 -0.171875 -0.78125 -0.46875q-0.3125 -0.3125 -0.453125 -0.71875q-0.140625 -0.40625 -0.140625 -0.875q0 -1.1875 0.875 -1.84375q0.875 -0.671875 2.59375 -0.671875l1.625 0l0 -0.6875q0 -0.703125 -0.453125 -1.109375q-0.4375 -0.421875 -1.34375 -0.421875q-0.671875 0 -1.3125 0.15625q-0.640625 0.140625 -1.328125 0.40625l0 -1.21875q0.25 -0.09375 0.5625 -0.1875q0.328125 -0.09375 0.671875 -0.15625q0.359375 -0.078125 0.734375 -0.109375q0.390625 -0.046875 0.78125 -0.046875q0.703125 0 1.265625 0.15625q0.578125 0.15625 0.96875 0.484375q0.40625 0.3125 0.609375 0.796875q0.21875 0.484375 0.21875 1.140625l0 5.40625l-1.21875 0zm-0.15625 -3.578125l-1.71875 0q-0.515625 0 -0.890625 0.109375q-0.359375 0.09375 -0.59375 0.28125q-0.234375 0.1875 -0.34375 0.453125q-0.109375 0.265625 -0.109375 0.59375q0 0.21875 0.0625 0.4375q0.078125 0.203125 0.234375 0.359375q0.15625 0.15625 0.40625 0.25q0.25 0.09375 0.609375 0.09375q0.46875 0 1.0625 -0.28125q0.609375 -0.28125 1.28125 -0.90625l0 -1.390625zm6.578125 -6.34375l-2.3125 0l0 -1.125l3.6875 0l0 9.90625l2.34375 0l0 1.140625l-6.296875 0l0 -1.140625l2.578125 0l0 -8.78125z" fill-rule="nonzero"/><path fill="#000000" fill-opacity="0.0" d="m223.59055 168.90552l0 59.464554" fill-rule="evenodd"/><path stroke="#5f6165" stroke-width="1.0" stroke-linejoin="round" stroke-linecap="butt" d="m223.59055 168.90552l0 53.464554" fill-rule="evenodd"/><path fill="#5f6165" stroke="#5f6165" stroke-width="1.0" stroke-linecap="butt" d="m221.93881 222.37007l1.6517334 4.538101l1.6517334 -4.538101z" fill-rule="evenodd"/><path fill="#c9daf8" d="m87.57743 387.79297l0 0c0 -8.514923 6.9027023 -15.417633 15.417625 -15.417633l250.3931 0c4.0889893 0 8.010529 1.6243591 10.9019165 4.5157166c2.8913574 2.8913574 4.5157166 6.8128967 4.5157166 10.9019165l0 61.66867c0 8.514923 -6.90271 15.417633 -15.417633 15.417633l-250.3931 0c-8.514923 0 -15.417625 -6.90271 -15.417625 -15.417633z" fill-rule="evenodd"/><path stroke="#5f6165" stroke-width="1.0" stroke-linejoin="round" stroke-linecap="butt" d="m87.57743 387.79297l0 0c0 -8.514923 6.9027023 -15.417633 15.417625 -15.417633l250.3931 0c4.0889893 0 8.010529 1.6243591 10.9019165 4.5157166c2.8913574 2.8913574 4.5157166 6.8128967 4.5157166 10.9019165l0 61.66867c0 8.514923 -6.90271 15.417633 -15.417633 15.417633l-250.3931 0c-8.514923 0 -15.417625 -6.90271 -15.417625 -15.417633z" fill-rule="evenodd"/><path fill="#000000" d="m118.97452 423.7073l-1.65625 0l-1.9375 -2.734375l-1.921875 2.734375l-1.609375 0l2.78125 -3.609375l-2.65625 -3.578125l1.59375 0l1.890625 2.765625l1.859375 -2.765625l1.53125 0l-2.6875 3.609375l2.8125 3.578125zm1.214325 -3.4375q0 -0.921875 0.25 -1.625q0.25 -0.71875 0.703125 -1.203125q0.46875 -0.5 1.109375 -0.75q0.65625 -0.25 1.453125 -0.25q0.34375 0 0.671875 0.046875q0.328125 0.03125 0.65625 0.125l0 -3.015625l1.25 0l0 10.109375l-1.109375 0l-0.046875 -1.359375q-0.515625 0.765625 -1.125 1.125q-0.609375 0.359375 -1.328125 0.359375q-0.609375 0 -1.078125 -0.25q-0.46875 -0.265625 -0.78125 -0.734375q-0.3125 -0.46875 -0.46875 -1.125q-0.15625 -0.65625 -0.15625 -1.453125zm1.265625 -0.078125q0 1.296875 0.375 1.9375q0.390625 0.640625 1.09375 0.640625q0.484375 0 1.0 -0.421875q0.53125 -0.421875 1.109375 -1.25l0 -3.34375q-0.3125 -0.140625 -0.6875 -0.203125q-0.359375 -0.078125 -0.734375 -0.078125q-1.015625 0 -1.59375 0.65625q-0.5625 0.65625 -0.5625 2.0625zm12.839325 1.5625q0 0.375 -0.125 0.671875q-0.125 0.296875 -0.34375 0.53125q-0.21875 0.234375 -0.515625 0.40625q-0.296875 0.15625 -0.640625 0.265625q-0.328125 0.109375 -0.6875 0.15625q-0.34375 0.046875 -0.671875 0.046875q-0.734375 0 -1.34375 -0.0625q-0.609375 -0.0625 -1.203125 -0.203125l0 -1.140625q0.640625 0.171875 1.25 0.265625q0.625 0.09375 1.25 0.09375q0.890625 0 1.3125 -0.234375q0.4375 -0.25 0.4375 -0.703125q0 -0.1875 -0.078125 -0.34375q-0.0625 -0.15625 -0.25 -0.296875q-0.171875 -0.140625 -0.546875 -0.28125q-0.375 -0.15625 -1.015625 -0.359375q-0.5 -0.140625 -0.90625 -0.3125q-0.40625 -0.1875 -0.71875 -0.4375q-0.296875 -0.25 -0.46875 -0.578125q-0.171875 -0.34375 -0.171875 -0.8125q0 -0.296875 0.140625 -0.65625q0.140625 -0.359375 0.46875 -0.65625q0.34375 -0.3125 0.921875 -0.515625q0.578125 -0.203125 1.421875 -0.203125q0.421875 0 0.9375 0.046875q0.515625 0.046875 1.078125 0.15625l0 1.109375q-0.578125 -0.140625 -1.109375 -0.203125q-0.53125 -0.078125 -0.90625 -0.078125q-0.46875 0 -0.796875 0.078125q-0.3125 0.0625 -0.515625 0.203125q-0.1875 0.125 -0.28125 0.296875q-0.078125 0.15625 -0.078125 0.34375q0 0.203125 0.0625 0.359375q0.078125 0.15625 0.28125 0.3125q0.21875 0.140625 0.578125 0.28125q0.359375 0.140625 0.953125 0.3125q0.640625 0.1875 1.0625 0.390625q0.4375 0.203125 0.703125 0.46875q0.28125 0.25 0.390625 0.5625q0.125 0.3125 0.125 0.71875zm9.29245 4.890625l-8.0625 0l0 -1.03125l8.0625 0l0 1.03125zm7.79245 -10.125l-1.046875 7.1875l-1.5 0l-1.046875 -3.0l-0.203125 -0.734375l-0.234375 0.765625l-1.0 2.96875l-1.46875 0l-1.03125 -7.1875l1.21875 0l0.59375 4.890625l0.140625 1.078125l0.296875 -0.953125l1.046875 -3.21875l0.890625 0l1.125 3.171875l0.328125 0.953125l0.109375 -1.0l0.546875 -4.921875l1.234375 0zm1.6987 0l1.140625 0l0.03125 1.328125q0.640625 -0.765625 1.25 -1.109375q0.625 -0.34375 1.25 -0.34375q1.125 0 1.703125 0.71875q0.578125 0.71875 0.53125 2.15625l-1.265625 0q0.03125 -0.953125 -0.265625 -1.375q-0.296875 -0.421875 -0.875 -0.421875q-0.25 0 -0.515625 0.09375q-0.25 0.078125 -0.515625 0.28125q-0.265625 0.1875 -0.5625 0.5q-0.296875 0.3125 -0.640625 0.75l0 4.609375l-1.265625 0l0 -7.1875zm8.058075 0l1.140625 0l0.03125 1.328125q0.640625 -0.765625 1.25 -1.109375q0.625 -0.34375 1.25 -0.34375q1.125 0 1.703125 0.71875q0.578125 0.71875 0.53125 2.15625l-1.265625 0q0.03125 -0.953125 -0.265625 -1.375q-0.296875 -0.421875 -0.875 -0.421875q-0.25 0 -0.515625 0.09375q-0.25 0.078125 -0.515625 0.28125q-0.265625 0.1875 -0.5625 0.5q-0.296875 0.3125 -0.640625 0.75l0 4.609375l-1.265625 0l0 -7.1875zm14.683075 10.125l-8.0625 0l0 -1.03125l8.0625 0l0 1.03125zm3.589325 -12.03125l-2.125 0l0 -1.015625l3.390625 0l0 9.078125l2.125 0l0 1.03125l-5.75 0l0 -1.03125l2.359375 0l0 -8.0625zm11.870575 5.4375q0 0.84375 -0.25 1.546875q-0.234375 0.6875 -0.671875 1.1875q-0.4375 0.5 -1.078125 0.78125q-0.640625 0.265625 -1.453125 0.265625q-0.765625 0 -1.390625 -0.234375q-0.609375 -0.234375 -1.03125 -0.703125q-0.421875 -0.46875 -0.65625 -1.15625q-0.21875 -0.6875 -0.21875 -1.578125q0 -0.84375 0.234375 -1.53125q0.234375 -0.6875 0.671875 -1.1875q0.453125 -0.5 1.09375 -0.765625q0.640625 -0.28125 1.4375 -0.28125q0.78125 0 1.390625 0.25q0.609375 0.234375 1.03125 0.703125q0.4375 0.453125 0.65625 1.140625q0.234375 0.6875 0.234375 1.5625zm-1.28125 0.0625q0 -0.671875 -0.15625 -1.15625q-0.140625 -0.5 -0.421875 -0.828125q-0.265625 -0.34375 -0.65625 -0.5q-0.375 -0.171875 -0.859375 -0.171875q-0.5625 0 -0.96875 0.21875q-0.390625 0.21875 -0.640625 0.578125q-0.25 0.359375 -0.375 0.84375q-0.109375 0.484375 -0.109375 1.015625q0 0.671875 0.140625 1.171875q0.140625 0.5 0.40625 0.828125q0.28125 0.328125 0.671875 0.5q0.390625 0.171875 0.875 0.171875q0.5625 0 0.953125 -0.21875q0.390625 -0.21875 0.640625 -0.578125q0.265625 -0.375 0.375 -0.859375q0.125 -0.484375 0.125 -1.015625zm8.66745 3.328125q-0.5 0.1875 -1.015625 0.265625q-0.5 0.09375 -1.046875 0.09375q-1.703125 0 -2.625 -0.921875q-0.921875 -0.921875 -0.921875 -2.6875q0 -0.859375 0.265625 -1.546875q0.265625 -0.703125 0.75 -1.1875q0.484375 -0.5 1.140625 -0.765625q0.671875 -0.265625 1.46875 -0.265625q0.5625 0 1.046875 0.078125q0.484375 0.078125 0.9375 0.25l0 1.1875q-0.46875 -0.234375 -0.953125 -0.34375q-0.484375 -0.109375 -1.0 -0.109375q-0.484375 0 -0.90625 0.1875q-0.421875 0.171875 -0.75 0.515625q-0.3125 0.34375 -0.5 0.84375q-0.1875 0.484375 -0.1875 1.109375q0 1.296875 0.625 1.953125q0.640625 0.640625 1.765625 0.640625q0.5 0 0.96875 -0.109375q0.484375 -0.109375 0.9375 -0.34375l0 1.15625zm7.089325 0.265625l-0.03125 -0.96875q-0.59375 0.578125 -1.203125 0.84375q-0.59375 0.25 -1.265625 0.25q-0.609375 0 -1.046875 -0.15625q-0.4375 -0.15625 -0.71875 -0.421875q-0.28125 -0.28125 -0.421875 -0.65625q-0.125 -0.375 -0.125 -0.8125q0 -1.078125 0.796875 -1.6875q0.8125 -0.609375 2.390625 -0.609375l1.484375 0l0 -0.640625q0 -0.625 -0.40625 -1.0q-0.40625 -0.390625 -1.25 -0.390625q-0.609375 0 -1.203125 0.140625q-0.578125 0.125 -1.21875 0.375l0 -1.125q0.25 -0.078125 0.53125 -0.15625q0.296875 -0.09375 0.609375 -0.15625q0.328125 -0.0625 0.671875 -0.09375q0.359375 -0.046875 0.71875 -0.046875q0.640625 0 1.15625 0.140625q0.53125 0.140625 0.890625 0.4375q0.359375 0.296875 0.546875 0.75q0.203125 0.4375 0.203125 1.03125l0 4.953125l-1.109375 0zm-0.140625 -3.265625l-1.578125 0q-0.46875 0 -0.8125 0.09375q-0.328125 0.09375 -0.546875 0.265625q-0.21875 0.171875 -0.328125 0.40625q-0.09375 0.234375 -0.09375 0.546875q0 0.203125 0.0625 0.390625q0.0625 0.1875 0.203125 0.34375q0.15625 0.140625 0.375 0.234375q0.234375 0.078125 0.5625 0.078125q0.4375 0 0.984375 -0.265625q0.5625 -0.265625 1.171875 -0.828125l0 -1.265625zm6.026825 -5.828125l-2.125 0l0 -1.015625l3.390625 0l0 9.078125l2.125 0l0 1.03125l-5.75 0l0 -1.03125l2.359375 0l0 -8.0625zm8.058075 2.9375l-2.125 0l0 -1.03125l3.3906097 0l0 6.15625l2.125 0l0 1.03125l-5.7499847 0l0 -1.03125l2.359375 0l0 -5.125zm0.43748474 -4.046875q0.203125 0 0.375 0.078125q0.1875 0.078125 0.3125 0.21875q0.140625 0.125 0.21875 0.3125q0.078125 0.171875 0.078125 0.375q0 0.203125 -0.078125 0.390625q-0.078125 0.171875 -0.21875 0.3125q-0.125 0.125 -0.3125 0.203125q-0.171875 0.078125 -0.375 0.078125q-0.20310974 0 -0.39060974 -0.078125q-0.171875 -0.078125 -0.3125 -0.203125q-0.125 -0.140625 -0.203125 -0.3125q-0.078125 -0.1875 -0.078125 -0.390625q0 -0.203125 0.078125 -0.375q0.078125 -0.1875 0.203125 -0.3125q0.140625 -0.140625 0.3125 -0.21875q0.1875 -0.078125 0.39060974 -0.078125zm10.964325 10.109375q-0.421875 0.09375 -0.875 0.140625q-0.453125 0.046875 -0.921875 0.046875q-1.34375 0 -2.015625 -0.609375q-0.65625 -0.609375 -0.65625 -1.875l0 -3.75l-2.015625 0l0 -1.046875l2.015625 0l0 -1.96875l1.234375 -0.328125l0 2.296875l3.234375 0l0 1.046875l-3.234375 0l0 3.65625q0 0.765625 0.40625 1.15625q0.421875 0.375 1.21875 0.375q0.34375 0 0.75 -0.046875q0.40625 -0.0625 0.859375 -0.171875l0 1.078125zm8.651825 -7.09375l-2.4375 6.421875q-0.390625 0.984375 -0.796875 1.6875q-0.390625 0.71875 -0.875 1.171875q-0.484375 0.453125 -1.0625 0.671875q-0.5625 0.21875 -1.265625 0.21875q-0.1875 0 -0.34375 -0.015625q-0.15625 0 -0.328125 -0.015625l0 -1.140625q0.15625 0.03125 0.34375 0.046875q0.1875 0.015625 0.390625 0.015625q0.34375 0 0.640625 -0.109375q0.296875 -0.09375 0.5625 -0.328125q0.265625 -0.21875 0.5 -0.578125q0.25 -0.34375 0.484375 -0.859375l-2.875 -7.1875l1.421875 0l1.8125 4.75l0.375 1.125l0.40625 -1.15625l1.6875 -4.71875l1.359375 0zm8.589325 10.125l-8.0625 0l0 -1.03125l8.0625 0l0 1.03125zm7.214325 -6.90625q0 0.265625 -0.015625 0.453125q0 0.171875 -0.015625 0.328125l-5.046875 0q0 1.09375 0.609375 1.6875q0.625 0.59375 1.78125 0.59375q0.3125 0 0.625 -0.015625q0.3125 -0.03125 0.609375 -0.078125q0.296875 -0.046875 0.5625 -0.09375q0.265625 -0.0625 0.5 -0.125l0 1.03125q-0.515625 0.140625 -1.15625 0.21875q-0.640625 0.09375 -1.328125 0.09375q-0.921875 0 -1.59375 -0.25q-0.65625 -0.25 -1.078125 -0.71875q-0.421875 -0.484375 -0.625 -1.171875q-0.203125 -0.6875 -0.203125 -1.5625q0 -0.765625 0.21875 -1.4375q0.21875 -0.671875 0.625 -1.1875q0.421875 -0.515625 1.03125 -0.8125q0.609375 -0.296875 1.375 -0.296875q0.765625 0 1.34375 0.234375q0.578125 0.234375 0.96875 0.671875q0.40625 0.4375 0.609375 1.0625q0.203125 0.609375 0.203125 1.375zm-1.296875 -0.1875q0.015625 -0.46875 -0.109375 -0.859375q-0.109375 -0.40625 -0.34375 -0.6875q-0.234375 -0.296875 -0.59375 -0.453125q-0.359375 -0.15625 -0.828125 -0.15625q-0.40625 0 -0.75 0.15625q-0.328125 0.15625 -0.578125 0.4375q-0.25 0.28125 -0.40625 0.6875q-0.140625 0.40625 -0.171875 0.875l3.78125 0zm9.761215 4.15625l-1.65625 0l-1.9375 -2.734375l-1.921875 2.734375l-1.609375 0l2.78125 -3.609375l-2.65625 -3.578125l1.59375 0l1.890625 2.765625l1.859375 -2.765625l1.53125 0l-2.6875 3.609375l2.8125 3.578125zm7.714325 -3.71875q0 0.953125 -0.265625 1.671875q-0.265625 0.71875 -0.75 1.1875q-0.46875 0.46875 -1.109375 0.703125q-0.640625 0.234375 -1.390625 0.234375q-0.34375 0 -0.6875 -0.03125q-0.34375 -0.03125 -0.6875 -0.125l0 3.015625l-1.25 0l0 -10.125l1.109375 0l0.078125 1.203125q0.546875 -0.734375 1.15625 -1.03125q0.609375 -0.296875 1.3125 -0.296875q0.609375 0 1.078125 0.265625q0.46875 0.25 0.78125 0.71875q0.3125 0.46875 0.46875 1.140625q0.15625 0.65625 0.15625 1.46875zm-1.265625 0.046875q0 -0.5625 -0.09375 -1.03125q-0.078125 -0.46875 -0.265625 -0.796875q-0.171875 -0.34375 -0.453125 -0.53125q-0.265625 -0.1875 -0.65625 -0.1875q-0.234375 0 -0.484375 0.078125q-0.234375 0.0625 -0.5 0.25q-0.265625 0.171875 -0.5625 0.46875q-0.28125 0.28125 -0.609375 0.703125l0 3.484375q0.34375 0.140625 0.71875 0.234375q0.390625 0.078125 0.75 0.078125q1.0 0 1.578125 -0.6875q0.578125 -0.6875 0.578125 -2.0625zm9.2612 -0.296875q0 0.265625 -0.015625 0.453125q0 0.171875 -0.015625 0.328125l-5.046875 0q0 1.09375 0.609375 1.6875q0.625 0.59375 1.78125 0.59375q0.3125 0 0.625 -0.015625q0.3125 -0.03125 0.609375 -0.078125q0.296875 -0.046875 0.5625 -0.09375q0.265625 -0.0625 0.5 -0.125l0 1.03125q-0.515625 0.140625 -1.15625 0.21875q-0.640625 0.09375 -1.328125 0.09375q-0.921875 0 -1.59375 -0.25q-0.65625 -0.25 -1.078125 -0.71875q-0.421875 -0.484375 -0.625 -1.171875q-0.203125 -0.6875 -0.203125 -1.5625q0 -0.765625 0.21875 -1.4375q0.21875 -0.671875 0.625 -1.1875q0.421875 -0.515625 1.03125 -0.8125q0.609375 -0.296875 1.375 -0.296875q0.765625 0 1.34375 0.234375q0.578125 0.234375 0.96875 0.671875q0.40625 0.4375 0.609375 1.0625q0.203125 0.609375 0.203125 1.375zm-1.296875 -0.1875q0.015625 -0.46875 -0.109375 -0.859375q-0.109375 -0.40625 -0.34375 -0.6875q-0.234375 -0.296875 -0.59375 -0.453125q-0.359375 -0.15625 -0.828125 -0.15625q-0.40625 0 -0.75 0.15625q-0.328125 0.15625 -0.578125 0.4375q-0.25 0.28125 -0.40625 0.6875q-0.140625 0.40625 -0.171875 0.875l3.78125 0zm3.5737 -3.03125l1.140625 0l0.03125 1.328125q0.640625 -0.765625 1.25 -1.109375q0.625 -0.34375 1.25 -0.34375q1.125 0 1.703125 0.71875q0.578125 0.71875 0.53125 2.15625l-1.265625 0q0.03125 -0.953125 -0.265625 -1.375q-0.296875 -0.421875 -0.875 -0.421875q-0.25 0 -0.515625 0.09375q-0.25 0.078125 -0.515625 0.28125q-0.265625 0.1875 -0.5625 0.5q-0.296875 0.3125 -0.640625 0.75l0 4.609375l-1.265625 0l0 -7.1875zm10.214325 1.03125l-2.125 0l0 -1.03125l3.390625 0l0 6.15625l2.125 0l0 1.03125l-5.75 0l0 -1.03125l2.359375 0l0 -5.125zm0.4375 -4.046875q0.203125 0 0.375 0.078125q0.1875 0.078125 0.3125 0.21875q0.140625 0.125 0.21875 0.3125q0.078125 0.171875 0.078125 0.375q0 0.203125 -0.078125 0.390625q-0.078125 0.171875 -0.21875 0.3125q-0.125 0.125 -0.3125 0.203125q-0.171875 0.078125 -0.375 0.078125q-0.203125 0 -0.390625 -0.078125q-0.171875 -0.078125 -0.3125 -0.203125q-0.125 -0.140625 -0.203125 -0.3125q-0.078125 -0.1875 -0.078125 -0.390625q0 -0.203125 0.078125 -0.375q0.078125 -0.1875 0.203125 -0.3125q0.140625 -0.140625 0.3125 -0.21875q0.1875 -0.078125 0.390625 -0.078125zm10.29245 10.203125l0 -5.15625q0 -0.34375 -0.03125 -0.546875q-0.015625 -0.21875 -0.078125 -0.34375q-0.046875 -0.125 -0.125 -0.171875q-0.078125 -0.0625 -0.203125 -0.0625q-0.140625 0 -0.265625 0.09375q-0.125 0.078125 -0.265625 0.28125q-0.140625 0.1875 -0.3125 0.515625q-0.15625 0.3125 -0.390625 0.78125l0 4.609375l-1.140625 0l0 -5.03125q0 -0.390625 -0.03125 -0.625q-0.015625 -0.25 -0.078125 -0.375q-0.046875 -0.140625 -0.140625 -0.1875q-0.078125 -0.0625 -0.203125 -0.0625q-0.125 0 -0.25 0.078125q-0.109375 0.0625 -0.25 0.25q-0.125 0.1875 -0.296875 0.515625q-0.171875 0.328125 -0.40625 0.828125l0 4.609375l-1.15625 0l0 -7.1875l0.953125 0l0.0625 1.375q0.1875 -0.40625 0.359375 -0.6875q0.171875 -0.296875 0.359375 -0.46875q0.1875 -0.1875 0.390625 -0.265625q0.21875 -0.078125 0.46875 -0.078125q0.59375 0 0.890625 0.375q0.296875 0.375 0.296875 1.171875q0.171875 -0.375 0.328125 -0.65625q0.171875 -0.296875 0.359375 -0.484375q0.1875 -0.203125 0.421875 -0.296875q0.234375 -0.109375 0.53125 -0.109375q1.34375 0 1.34375 2.078125l0 5.234375l-1.140625 0zm9.0112 -3.96875q0 0.265625 -0.015625 0.453125q0 0.171875 -0.015625 0.328125l-5.046875 0q0 1.09375 0.609375 1.6875q0.625 0.59375 1.78125 0.59375q0.3125 0 0.625 -0.015625q0.3125 -0.03125 0.609375 -0.078125q0.296875 -0.046875 0.5625 -0.09375q0.265625 -0.0625 0.5 -0.125l0 1.03125q-0.515625 0.140625 -1.15625 0.21875q-0.640625 0.09375 -1.328125 0.09375q-0.921875 0 -1.59375 -0.25q-0.65625 -0.25 -1.078125 -0.71875q-0.421875 -0.484375 -0.625 -1.171875q-0.203125 -0.6875 -0.203125 -1.5625q0 -0.765625 0.21875 -1.4375q0.21875 -0.671875 0.625 -1.1875q0.421875 -0.515625 1.03125 -0.8125q0.609375 -0.296875 1.375 -0.296875q0.765625 0 1.34375 0.234375q0.578125 0.234375 0.96875 0.671875q0.40625 0.4375 0.609375 1.0625q0.203125 0.609375 0.203125 1.375zm-1.296875 -0.1875q0.015625 -0.46875 -0.109375 -0.859375q-0.109375 -0.40625 -0.34375 -0.6875q-0.234375 -0.296875 -0.59375 -0.453125q-0.359375 -0.15625 -0.828125 -0.15625q-0.40625 0 -0.75 0.15625q-0.328125 0.15625 -0.578125 0.4375q-0.25 0.28125 -0.40625 0.6875q-0.140625 0.40625 -0.171875 0.875l3.78125 0zm3.276825 -3.03125l1.109375 0l0.046875 1.15625q0.328125 -0.359375 0.609375 -0.609375q0.296875 -0.25 0.578125 -0.390625q0.28125 -0.15625 0.578125 -0.21875q0.296875 -0.0625 0.609375 -0.0625q1.109375 0 1.671875 0.65625q0.578125 0.65625 0.578125 1.96875l0 4.6875l-1.25 0l0 -4.59375q0 -0.84375 -0.3125 -1.234375q-0.3125 -0.40625 -0.9375 -0.40625q-0.234375 0 -0.453125 0.0625q-0.21875 0.0625 -0.453125 0.234375q-0.234375 0.171875 -0.515625 0.453125q-0.265625 0.28125 -0.609375 0.71875l0 4.765625l-1.25 0l0 -7.1875zm13.85495 7.09375q-0.421875 0.09375 -0.875 0.140625q-0.453125 0.046875 -0.921875 0.046875q-1.34375 0 -2.015625 -0.609375q-0.65625 -0.609375 -0.65625 -1.875l0 -3.75l-2.015625 0l0 -1.046875l2.015625 0l0 -1.96875l1.234375 -0.328125l0 2.296875l3.234375 0l0 1.046875l-3.234375 0l0 3.65625q0 0.765625 0.40625 1.15625q0.421875 0.375 1.21875 0.375q0.34375 0 0.75 -0.046875q0.40625 -0.0625 0.859375 -0.171875l0 1.078125zm6.8862 0.09375l-0.03125 -0.96875q-0.59375 0.578125 -1.203125 0.84375q-0.59375 0.25 -1.265625 0.25q-0.609375 0 -1.046875 -0.15625q-0.4375 -0.15625 -0.71875 -0.421875q-0.28125 -0.28125 -0.421875 -0.65625q-0.125 -0.375 -0.125 -0.8125q0 -1.078125 0.796875 -1.6875q0.8125 -0.609375 2.390625 -0.609375l1.484375 0l0 -0.640625q0 -0.625 -0.40625 -1.0q-0.40625 -0.390625 -1.25 -0.390625q-0.609375 0 -1.203125 0.140625q-0.578125 0.125 -1.21875 0.375l0 -1.125q0.25 -0.078125 0.53125 -0.15625q0.296875 -0.09375 0.609375 -0.15625q0.328125 -0.0625 0.671875 -0.09375q0.359375 -0.046875 0.71875 -0.046875q0.640625 0 1.15625 0.140625q0.53125 0.140625 0.890625 0.4375q0.359375 0.296875 0.546875 0.75q0.203125 0.4375 0.203125 1.03125l0 4.953125l-1.109375 0zm-0.140625 -3.265625l-1.578125 0q-0.46875 0 -0.8125 0.09375q-0.328125 0.09375 -0.546875 0.265625q-0.21875 0.171875 -0.328125 0.40625q-0.09375 0.234375 -0.09375 0.546875q0 0.203125 0.0625 0.390625q0.0625 0.1875 0.203125 0.34375q0.15625 0.140625 0.375 0.234375q0.234375 0.078125 0.5625 0.078125q0.4375 0 0.984375 -0.265625q0.5625 -0.265625 1.171875 -0.828125l0 -1.265625zm6.026825 -5.828125l-2.125 0l0 -1.015625l3.390625 0l0 9.078125l2.125 0l0 1.03125l-5.75 0l0 -1.03125l2.359375 0l0 -8.0625z" fill-rule="nonzero"/><path fill="#000000" fill-opacity="0.0" d="m227.56168 320.91077l0.6299286 51.46457" fill-rule="evenodd"/><path stroke="#5f6165" stroke-width="1.0" stroke-linejoin="round" stroke-linecap="butt" d="m227.56168 320.91077l0.5565033 45.465027" fill-rule="evenodd"/><path fill="#5f6165" stroke="#5f6165" stroke-width="1.0" stroke-linecap="butt" d="m226.46655 366.396l1.7071533 4.5175476l1.5960693 -4.5579834z" fill-rule="evenodd"/></g></svg>