<?xml version="1.0" encoding="UTF-8" standalone="no"?>
<!DOCTYPE svg PUBLIC "-//W3C//DTD SVG 1.1//EN" "http://www.w3.org/Graphics/SVG/1.1/DTD/svg11.dtd">
<!-- Generated by graphviz version 2.40.1 (20161225.0304)
 -->
<!-- Title: %44115 Pages: 1 -->
<svg xmlns="http://www.w3.org/2000/svg" xmlns:xlink="http://www.w3.org/1999/xlink" width="560pt" height="392pt" viewBox="0.00 0.00 559.79 392.00"><script xlink:href="https://graphviz.corp.google.com/svg-pan-zoom.js"/><script>
      window.onload = function() {
        var svg = document.getElementsByTagName("svg")[0];
        var isEmbedded = true;
        var enablePanZoom = false;
        try {
          // This condition is true when the SVG is being displayed in a
          // top-level browser window. If the parent location's href is
          // different, or we can't access it (due to security constraints
          // on accessing javascript properties on a different domain,
          // then the document is embedded.
          if (window.location.href == window.parent.location.href) {
            isEmbedded = false;
          }
        } catch (e) {}

        if (!isEmbedded) {
          svg.removeAttribute("width");
          svg.removeAttribute("height");
        }

        if (!isEmbedded || enablePanZoom) {
          svgPanZoom(svg, {
            minZoom: 0.2,
            maxZoom: 10
          });
        }

        var links = document.getElementsByTagName("a");
        for (var i = 0; i &lt; links.length; i++) {
          if (!links[i].getAttribute("target")) {
            links[i].setAttribute("target", "_top");
          }
        }
      };
    </script>
<g id="graph0" class="graph" transform="scale(1 1) rotate(0) translate(4 388)">
<title>%44115</title>
<polygon fill="white" stroke="transparent" points="-4,4 -4,-388 555.7947,-388 555.7947,4 -4,4"/>
<!-- ClientConn -->
<g id="node1" class="node">
<title>ClientConn</title>
<polygon fill="none" stroke="black" points="341.2947,-384 262.2947,-384 262.2947,-348 341.2947,-348 341.2947,-384"/>
<text text-anchor="middle" x="301.7947" y="-362.3" font-family="Times,serif" font-size="14.00">ClientConn</text>
</g>
<!-- resolver -->
<g id="node2" class="node">
<title>resolver</title>
<polygon fill="none" stroke="black" points="122.7947,-297 62.7947,-297 62.7947,-261 122.7947,-261 122.7947,-297"/>
<text text-anchor="middle" x="92.7947" y="-275.3" font-family="Times,serif" font-size="14.00">resolver</text>
</g>
<!-- ClientConn&#45;&gt;resolver -->
<g id="edge1" class="edge">
<title>ClientConn-&gt;resolver</title>
<path fill="none" stroke="black" d="M262.2655,-362.7321C198.6429,-357.0681 79.3467,-344.6213 66.7947,-330 60.58,-322.7608 62.6826,-313.7791 67.7385,-305.3799"/>
<polygon fill="black" stroke="black" points="70.5807,-307.4223 73.58,-297.2608 64.8986,-303.334 70.5807,-307.4223"/>
<text text-anchor="middle" x="86.2947" y="-318.8" font-family="Times,serif" font-size="14.00">  target</text>
</g>
<!-- balancer -->
<g id="node3" class="node">
<title>balancer</title>
<polygon fill="none" stroke="black" points="228.7947,-297 166.7947,-297 166.7947,-261 228.7947,-261 228.7947,-297"/>
<text text-anchor="middle" x="197.7947" y="-275.3" font-family="Times,serif" font-size="14.00">balancer</text>
</g>
<!-- ClientConn&#45;&gt;balancer -->
<g id="edge3" class="edge">
<title>ClientConn-&gt;balancer</title>
<path fill="none" stroke="black" d="M262.1534,-358.5382C244.4979,-353.3149 224.7997,-344.5584 211.7947,-330 206.2035,-323.741 202.8202,-315.4497 200.7809,-307.3753"/>
<polygon fill="black" stroke="black" points="204.1926,-306.5832 198.8516,-297.4331 197.3208,-307.9167 204.1926,-306.5832"/>
<text text-anchor="middle" x="241.7947" y="-318.8" font-family="Times,serif" font-size="14.00">  addresses</text>
</g>
<!-- ClientTransport -->
<g id="node9" class="node">
<title>ClientTransport</title>
<polygon fill="none" stroke="black" points="441.7947,-297 339.7947,-297 339.7947,-261 441.7947,-261 441.7947,-297"/>
<text text-anchor="middle" x="390.7947" y="-275.3" font-family="Times,serif" font-size="14.00">ClientTransport</text>
</g>
<!-- ClientConn&#45;&gt;ClientTransport -->
<g id="edge12" class="edge">
<title>ClientConn-&gt;ClientTransport</title>
<path fill="none" stroke="black" d="M304.7317,-347.7644C307.2264,-337.1817 311.7423,-324.1734 319.7947,-315 323.9231,-310.2969 328.8124,-306.1312 334.0642,-302.46"/>
<polygon fill="black" stroke="black" points="335.9748,-305.393 342.5582,-297.0919 332.235,-299.4757 335.9748,-305.393"/>
<text text-anchor="middle" x="344.2947" y="-318.8" font-family="Times,serif" font-size="14.00">  headers</text>
</g>
<!-- ClientConn&#45;&gt;ClientTransport -->
<g id="edge14" class="edge">
<title>ClientConn-&gt;ClientTransport</title>
<path fill="none" stroke="black" d="M341.4287,-360.2569C375.1968,-354.4569 419.9341,-344.3065 430.7947,-330 437.202,-321.5597 433.4826,-312.4278 426.2198,-304.2552"/>
<polygon fill="black" stroke="black" points="428.3771,-301.4741 418.7425,-297.0668 423.5258,-306.5204 428.3771,-301.4741"/>
<text text-anchor="middle" x="453.7947" y="-318.8" font-family="Times,serif" font-size="14.00">  Write</text>
</g>
<!-- Stream -->
<g id="node10" class="node">
<title>Stream</title>
<polygon fill="none" stroke="black" points="551.7947,-297 495.7947,-297 495.7947,-261 551.7947,-261 551.7947,-297"/>
<text text-anchor="middle" x="523.7947" y="-275.3" font-family="Times,serif" font-size="14.00">Stream</text>
</g>
<!-- ClientConn&#45;&gt;Stream -->
<g id="edge15" class="edge">
<title>ClientConn-&gt;Stream</title>
<path fill="none" stroke="black" d="M351.4379,-359.3794C395.6879,-352.8449 456.6316,-342.0984 477.7947,-330 488.6032,-323.8211 498.2472,-314.1984 505.8785,-304.969"/>
<polygon fill="black" stroke="black" points="350.8233,-355.9318 341.4279,-360.8284 351.8262,-362.8596 350.8233,-355.9318"/>
<polygon fill="black" stroke="black" points="508.659,-307.0951 512.0455,-297.056 503.1377,-302.7921 508.659,-307.0951"/>
<text text-anchor="middle" x="512.7947" y="-318.8" font-family="Times,serif" font-size="14.00">  Read</text>
</g>
<!-- resolver&#45;&gt;ClientConn -->
<g id="edge2" class="edge">
<title>resolver-&gt;ClientConn</title>
<path fill="none" stroke="black" d="M105.1169,-297.223C113.5905,-308.3532 125.8124,-321.9491 139.7947,-330 158.6689,-340.8676 211.7522,-351.455 252.0555,-358.3028"/>
<polygon fill="black" stroke="black" points="251.5585,-361.7682 261.9981,-359.961 252.7102,-354.8635 251.5585,-361.7682"/>
<text text-anchor="middle" x="169.7947" y="-318.8" font-family="Times,serif" font-size="14.00">  addresses</text>
</g>
<!-- n1 -->
<g id="node4" class="node">
<title>n1</title>
<ellipse fill="none" stroke="black" cx="197.7947" cy="-192" rx="59.5901" ry="18"/>
<text text-anchor="middle" x="197.7947" y="-188.3" font-family="Times,serif" font-size="14.00">NewSubConn</text>
</g>
<!-- balancer&#45;&gt;n1 -->
<g id="edge4" class="edge">
<title>balancer-&gt;n1</title>
<path fill="none" stroke="black" d="M197.7947,-260.9735C197.7947,-249.1918 197.7947,-233.5607 197.7947,-220.1581"/>
<polygon fill="black" stroke="black" points="201.2948,-220.0033 197.7947,-210.0034 194.2948,-220.0034 201.2948,-220.0033"/>
<text text-anchor="middle" x="227.7947" y="-231.8" font-family="Times,serif" font-size="14.00">  addresses</text>
</g>
<!-- n2 -->
<g id="node5" class="node">
<title>n2</title>
<ellipse fill="none" stroke="black" cx="59.7947" cy="-192" rx="59.5901" ry="18"/>
<text text-anchor="middle" x="59.7947" y="-188.3" font-family="Times,serif" font-size="14.00">NewSubConn</text>
</g>
<!-- balancer&#45;&gt;n2 -->
<g id="edge5" class="edge">
<title>balancer-&gt;n2</title>
<path fill="none" stroke="black" d="M166.5376,-262.1651C156.0146,-256.3007 144.2854,-249.5467 133.7947,-243 119.4617,-234.0556 104.0146,-223.5534 90.9601,-214.4115"/>
<polygon fill="black" stroke="black" points="92.952,-211.5335 82.7627,-208.6304 88.9177,-217.254 92.952,-211.5335"/>
<text text-anchor="middle" x="163.7947" y="-231.8" font-family="Times,serif" font-size="14.00">  addresses</text>
</g>
<!-- NewClientTransport -->
<g id="node6" class="node">
<title>NewClientTransport</title>
<ellipse fill="none" stroke="black" cx="241.7947" cy="-105" rx="83.3857" ry="18"/>
<text text-anchor="middle" x="241.7947" y="-101.3" font-family="Times,serif" font-size="14.00">NewClientTransport</text>
</g>
<!-- n1&#45;&gt;NewClientTransport -->
<g id="edge6" class="edge">
<title>n1-&gt;NewClientTransport</title>
<path fill="none" stroke="black" d="M206.4576,-173.9971C211.2107,-164.2038 217.2495,-151.8976 222.7947,-141 224.301,-138.0397 225.8947,-134.9529 227.4928,-131.8859"/>
<polygon fill="black" stroke="black" points="230.6662,-133.371 232.2179,-122.8904 224.4691,-130.1159 230.6662,-133.371"/>
<text text-anchor="middle" x="247.2947" y="-144.8" font-family="Times,serif" font-size="14.00">  address</text>
</g>
<!-- NewClientTransport&#45;&gt;ClientConn -->
<g id="edge11" class="edge">
<title>NewClientTransport-&gt;ClientConn</title>
<path fill="none" stroke="black" d="M259.8791,-122.6931C264.4728,-128.1419 268.917,-134.4444 271.7947,-141 300.7808,-207.032 303.6564,-293.6284 302.939,-337.6503"/>
<polygon fill="black" stroke="black" points="299.4344,-337.8053 302.6929,-347.8866 306.4323,-337.9736 299.4344,-337.8053"/>
<text text-anchor="middle" x="345.7947" y="-231.8" font-family="Times,serif" font-size="14.00">  ClientTransport</text>
</g>
<!-- Dialer -->
<g id="node7" class="node">
<title>Dialer</title>
<polygon fill="none" stroke="black" points="213.7947,-36 159.7947,-36 159.7947,0 213.7947,0 213.7947,-36"/>
<text text-anchor="middle" x="186.7947" y="-14.3" font-family="Times,serif" font-size="14.00">Dialer</text>
</g>
<!-- NewClientTransport&#45;&gt;Dialer -->
<g id="edge7" class="edge">
<title>NewClientTransport-&gt;Dialer</title>
<path fill="none" stroke="black" d="M186.7469,-91.4771C166.35,-85.2617 146.722,-77.4052 140.7947,-69 133.2745,-58.3359 140.5903,-47.4693 151.432,-38.5221"/>
<polygon fill="black" stroke="black" points="153.8056,-41.1211 159.7878,-32.3767 149.6582,-35.482 153.8056,-41.1211"/>
<text text-anchor="middle" x="165.2947" y="-57.8" font-family="Times,serif" font-size="14.00">  address</text>
</g>
<!-- Handshaker -->
<g id="node8" class="node">
<title>Handshaker</title>
<polygon fill="none" stroke="black" points="336.2947,-36 255.2947,-36 255.2947,0 336.2947,0 336.2947,-36"/>
<text text-anchor="middle" x="295.7947" y="-14.3" font-family="Times,serif" font-size="14.00">Handshaker</text>
</g>
<!-- NewClientTransport&#45;&gt;Handshaker -->
<g id="edge9" class="edge">
<title>NewClientTransport-&gt;Handshaker</title>
<path fill="none" stroke="black" d="M252.6005,-87.0021C258.5132,-77.2102 265.9988,-64.9039 272.7947,-54 274.6556,-51.0142 276.6167,-47.8988 278.5768,-44.8043"/>
<polygon fill="black" stroke="black" points="281.596,-46.5791 284.0146,-36.264 275.6913,-42.8194 281.596,-46.5791"/>
<text text-anchor="middle" x="291.2947" y="-57.8" font-family="Times,serif" font-size="14.00">  Conn</text>
</g>
<!-- Dialer&#45;&gt;NewClientTransport -->
<g id="edge8" class="edge">
<title>Dialer-&gt;NewClientTransport</title>
<path fill="none" stroke="black" d="M198.1761,-36.0034C205.916,-48.2465 216.2887,-64.6542 224.977,-78.3975"/>
<polygon fill="black" stroke="black" points="222.0966,-80.3912 230.3987,-86.9735 228.0134,-76.6507 222.0966,-80.3912"/>
<text text-anchor="middle" x="236.2947" y="-57.8" font-family="Times,serif" font-size="14.00">  Conn</text>
</g>
<!-- Handshaker&#45;&gt;NewClientTransport -->
<g id="edge10" class="edge">
<title>Handshaker-&gt;NewClientTransport</title>
<path fill="none" stroke="black" d="M307.5752,-36.4301C312.4638,-46.5793 315.762,-59.0888 309.7947,-69 306.2301,-74.9204 301.3292,-79.9181 295.7776,-84.1243"/>
<polygon fill="black" stroke="black" points="293.6842,-81.3121 287.2582,-89.7358 297.5347,-87.158 293.6842,-81.3121"/>
<text text-anchor="middle" x="332.2947" y="-57.8" font-family="Times,serif" font-size="14.00">  Conn</text>
</g>
<!-- ClientTransport&#45;&gt;ClientConn -->
<g id="edge13" class="edge">
<title>ClientTransport-&gt;ClientConn</title>
<path fill="none" stroke="black" d="M386.2122,-297.1901C382.8113,-307.7567 377.2705,-320.7639 368.7947,-330 363.4587,-335.8146 356.9625,-340.8763 350.1386,-345.2199"/>
<polygon fill="black" stroke="black" points="348.248,-342.2709 341.3824,-350.3402 351.7816,-348.3136 348.248,-342.2709"/>
<text text-anchor="middle" x="403.2947" y="-318.8" font-family="Times,serif" font-size="14.00">  Stream</text>
</g>
</g>
</svg>
