<svg xmlns="http://www.w3.org/2000/svg" xmlns:xlink="http://www.w3.org/1999/xlink" xmlns:lucid="lucid" width="1960.5" height="1602.5"><g transform="translate(20.5 -19.5)" lucid:page-tab-id="0_0"><path d="M0 0h3456v2656H0z" fill="#fff"/><path d="M240 126a6 6 0 0 1 6-6h148a6 6 0 0 1 6 6v28a6 6 0 0 1-6 6H246a6 6 0 0 1-6-6z" stroke="#3a414a" fill="#edf5ff"/><use xlink:href="#a" transform="matrix(1,0,0,1,245.00000000000006,125) translate(42.74691358024691 19.65277777777778)"/><use xlink:href="#b" transform="matrix(1,0,0,1,245.00000000000006,125) translate(92.43827160493828 19.65277777777778)"/><path d="M240 166a6 6 0 0 1 6-6h148a6 6 0 0 1 6 6v28a6 6 0 0 1-6 6H246a6 6 0 0 1-6-6z" stroke="#3a414a" fill="#edf5ff"/><use xlink:href="#a" transform="matrix(1,0,0,1,245.00000000000006,165) translate(42.74691358024691 19.65277777777778)"/><use xlink:href="#c" transform="matrix(1,0,0,1,245.00000000000006,165) translate(92.43827160493828 19.65277777777778)"/><path d="M240 206a6 6 0 0 1 6-6h148a6 6 0 0 1 6 6v28a6 6 0 0 1-6 6H246a6 6 0 0 1-6-6z" stroke="#3a414a" fill="#edf5ff"/><use xlink:href="#a" transform="matrix(1,0,0,1,245.00000000000006,205) translate(42.160493827160494 19.65277777777778)"/><use xlink:href="#d" transform="matrix(1,0,0,1,245.00000000000006,205) translate(91.85185185185185 19.65277777777778)"/><path d="M200 66a6 6 0 0 1 6-6h228a6 6 0 0 1 6 6v48a6 6 0 0 1-6 6H206a6 6 0 0 1-6-6z" stroke="#000" stroke-opacity="0" fill="#fff" fill-opacity="0"/><use xlink:href="#e" transform="matrix(1,0,0,1,205.00000000000006,65) translate(45.37037037037038 30.27777777777778)"/><use xlink:href="#f" transform="matrix(1,0,0,1,205.00000000000006,65) translate(130.4320987654321 30.27777777777778)"/><path d="M440 66a6 6 0 0 1 6-6h228a6 6 0 0 1 6 6v48a6 6 0 0 1-6 6H446a6 6 0 0 1-6-6z" stroke="#000" stroke-opacity="0" fill="#fff" fill-opacity="0"/><use xlink:href="#g" transform="matrix(1,0,0,1,445,65) translate(15.277777777777786 30.27777777777778)"/><use xlink:href="#h" transform="matrix(1,0,0,1,445,65) translate(118.79629629629629 30.27777777777778)"/><path d="M720 66a6 6 0 0 1 6-6h228a6 6 0 0 1 6 6v48a6 6 0 0 1-6 6H726a6 6 0 0 1-6-6z" stroke="#000" stroke-opacity="0" fill="#fff" fill-opacity="0"/><use xlink:href="#i" transform="matrix(1,0,0,1,724.9999999999999,65) translate(34.35185185185186 30.27777777777778)"/><use xlink:href="#f" transform="matrix(1,0,0,1,724.9999999999999,65) translate(141.45061728395063 30.27777777777778)"/><path d="M480 126a6 6 0 0 1 6-6h148a6 6 0 0 1 6 6v28a6 6 0 0 1-6 6H486a6 6 0 0 1-6-6z" stroke="#3a414a" fill="#e3fae3"/><use xlink:href="#a" transform="matrix(1,0,0,1,485,125) translate(40.648148148148145 19.65277777777778)"/><use xlink:href="#j" transform="matrix(1,0,0,1,485,125) translate(90.3395061728395 19.65277777777778)"/><path d="M480 166a6 6 0 0 1 6-6h148a6 6 0 0 1 6 6v28a6 6 0 0 1-6 6H486a6 6 0 0 1-6-6z" stroke="#3a414a" fill="#e3fae3"/><use xlink:href="#a" transform="matrix(1,0,0,1,485,165) translate(40.648148148148145 19.65277777777778)"/><use xlink:href="#k" transform="matrix(1,0,0,1,485,165) translate(90.3395061728395 19.65277777777778)"/><path d="M480 206a6 6 0 0 1 6-6h148a6 6 0 0 1 6 6v28a6 6 0 0 1-6 6H486a6 6 0 0 1-6-6z" stroke="#3a414a" fill="#edf5ff"/><use xlink:href="#a" transform="matrix(1,0,0,1,485,205) translate(42.160493827160494 19.65277777777778)"/><use xlink:href="#d" transform="matrix(1,0,0,1,485,205) translate(91.85185185185185 19.65277777777778)"/><path d="M760 126a6 6 0 0 1 6-6h148a6 6 0 0 1 6 6v28a6 6 0 0 1-6 6H766a6 6 0 0 1-6-6z" stroke="#3a414a" fill="#e3fae3"/><use xlink:href="#a" transform="matrix(1,0,0,1,765.0000000000001,125) translate(40.648148148148145 19.65277777777778)"/><use xlink:href="#j" transform="matrix(1,0,0,1,765.0000000000001,125) translate(90.3395061728395 19.65277777777778)"/><path d="M760 166a6 6 0 0 1 6-6h148a6 6 0 0 1 6 6v28a6 6 0 0 1-6 6H766a6 6 0 0 1-6-6z" stroke="#000" fill="#e3fae3"/><use xlink:href="#a" transform="matrix(1,0,0,1,765.0000000000001,165) translate(40.648148148148145 19.65277777777778)"/><use xlink:href="#k" transform="matrix(1,0,0,1,765.0000000000001,165) translate(90.3395061728395 19.65277777777778)"/><path d="M760 206a6 6 0 0 1 6-6h148a6 6 0 0 1 6 6v28a6 6 0 0 1-6 6H766a6 6 0 0 1-6-6z" stroke="#3a414a" fill="#edf5ff"/><use xlink:href="#a" transform="matrix(1,0,0,1,765.0000000000001,205) translate(42.160493827160494 19.65277777777778)"/><use xlink:href="#d" transform="matrix(1,0,0,1,765.0000000000001,205) translate(91.85185185185185 19.65277777777778)"/><path d="M320 153a6 6 0 0 1 6-6h228a6 6 0 0 1 6 6v62a6 6 0 0 1-6 6H326a6 6 0 0 1-6-6z" stroke="#000" stroke-opacity="0" fill="#fff" fill-opacity="0"/><use xlink:href="#l" transform="matrix(1,0,0,1,325,151.99999999999997) translate(99.44444444444446 46.66666666666663)"/><path d="M650 171a6 6 0 0 1 6-6h61a6 6 0 0 0 6-6v-3a2.3 2.3 0 0 1 4-1.54l19 21.08a6.67 6.67 0 0 1 0 8.92l-19 21.08a2.3 2.3 0 0 1-4-1.54v-3a6 6 0 0 0-6-6h-61a6 6 0 0 1-6-6z" stroke="#3a414a" fill="#dfe3e8"/><path d="M240 286a6 6 0 0 1 6-6h148a6 6 0 0 1 6 6v28a6 6 0 0 1-6 6H246a6 6 0 0 1-6-6z" stroke="#3a414a" fill="#edf5ff"/><use xlink:href="#a" transform="matrix(1,0,0,1,244.9999999999999,285) translate(42.74691358024691 19.65277777777778)"/><use xlink:href="#b" transform="matrix(1,0,0,1,244.9999999999999,285) translate(92.43827160493828 19.65277777777778)"/><path d="M240 326a6 6 0 0 1 6-6h148a6 6 0 0 1 6 6v28a6 6 0 0 1-6 6H246a6 6 0 0 1-6-6z" stroke="#3a414a" fill="#edf5ff"/><use xlink:href="#a" transform="matrix(1,0,0,1,244.9999999999999,325) translate(42.74691358024691 19.65277777777778)"/><use xlink:href="#c" transform="matrix(1,0,0,1,244.9999999999999,325) translate(92.43827160493828 19.65277777777778)"/><path d="M240 366a6 6 0 0 1 6-6h148a6 6 0 0 1 6 6v28a6 6 0 0 1-6 6H246a6 6 0 0 1-6-6z" stroke="#3a414a" fill="#edf5ff"/><use xlink:href="#a" transform="matrix(1,0,0,1,244.9999999999999,365) translate(42.160493827160494 19.65277777777778)"/><use xlink:href="#d" transform="matrix(1,0,0,1,244.9999999999999,365) translate(91.85185185185185 19.65277777777778)"/><path d="M480 326a6 6 0 0 1 6-6h148a6 6 0 0 1 6 6v28a6 6 0 0 1-6 6H486a6 6 0 0 1-6-6z" stroke="#3a414a" fill="#edf5ff"/><use xlink:href="#a" transform="matrix(1,0,0,1,484.9999999999998,325) translate(42.74691358024691 19.65277777777778)"/><use xlink:href="#c" transform="matrix(1,0,0,1,484.9999999999998,325) translate(92.43827160493828 19.65277777777778)"/><path d="M480 366a6 6 0 0 1 6-6h148a6 6 0 0 1 6 6v28a6 6 0 0 1-6 6H486a6 6 0 0 1-6-6z" stroke="#3a414a" fill="#edf5ff"/><use xlink:href="#a" transform="matrix(1,0,0,1,484.9999999999998,365) translate(42.160493827160494 19.65277777777778)"/><use xlink:href="#d" transform="matrix(1,0,0,1,484.9999999999998,365) translate(91.85185185185185 19.65277777777778)"/><path d="M480 406a6 6 0 0 1 6-6h148a6 6 0 0 1 6 6v28a6 6 0 0 1-6 6H486a6 6 0 0 1-6-6z" stroke="#3a414a" fill="#e3fae3"/><use xlink:href="#a" transform="matrix(1,0,0,1,484.9999999999998,405) translate(42.160493827160494 19.65277777777778)"/><use xlink:href="#m" transform="matrix(1,0,0,1,484.9999999999998,405) translate(91.85185185185185 19.65277777777778)"/><path d="M760 326a6 6 0 0 1 6-6h148a6 6 0 0 1 6 6v28a6 6 0 0 1-6 6H766a6 6 0 0 1-6-6z" stroke="#3a414a" fill="#edf5ff"/><use xlink:href="#a" transform="matrix(1,0,0,1,765.0000000000001,325) translate(42.74691358024691 19.65277777777778)"/><use xlink:href="#c" transform="matrix(1,0,0,1,765.0000000000001,325) translate(92.43827160493828 19.65277777777778)"/><path d="M760 366a6 6 0 0 1 6-6h148a6 6 0 0 1 6 6v28a6 6 0 0 1-6 6H766a6 6 0 0 1-6-6z" stroke="#3a414a" fill="#edf5ff"/><use xlink:href="#a" transform="matrix(1,0,0,1,765.0000000000001,365) translate(42.160493827160494 19.65277777777778)"/><use xlink:href="#d" transform="matrix(1,0,0,1,765.0000000000001,365) translate(91.85185185185185 19.65277777777778)"/><path d="M760 406a6 6 0 0 1 6-6h148a6 6 0 0 1 6 6v28a6 6 0 0 1-6 6H766a6 6 0 0 1-6-6z" stroke="#3a414a" fill="#e3fae3"/><use xlink:href="#a" transform="matrix(1,0,0,1,764.9999999999999,405) translate(42.160493827160494 19.65277777777778)"/><use xlink:href="#m" transform="matrix(1,0,0,1,764.9999999999999,405) translate(91.85185185185185 19.65277777777778)"/><path d="M320 313a6 6 0 0 1 6-6h228a6 6 0 0 1 6 6v62a6 6 0 0 1-6 6H326a6 6 0 0 1-6-6z" stroke="#000" stroke-opacity="0" fill="#fff" fill-opacity="0"/><use xlink:href="#l" transform="matrix(1,0,0,1,325,312) translate(99.44444444444446 46.66666666666663)"/><path d="M650 331a6 6 0 0 1 6-6h61a6 6 0 0 0 6-6v-3a2.3 2.3 0 0 1 4-1.54l19 21.08a6.67 6.67 0 0 1 0 8.92l-19 21.08a2.3 2.3 0 0 1-4-1.54v-3a6 6 0 0 0-6-6h-61a6 6 0 0 1-6-6z" stroke="#3a414a" fill="#dfe3e8"/><path d="M480 286a6 6 0 0 1 6-6h148a6 6 0 0 1 6 6v28a6 6 0 0 1-6 6H486a6 6 0 0 1-6-6z" stroke="#3a414a" fill="#edf5ff"/><use xlink:href="#a" transform="matrix(1,0,0,1,484.9999999999998,285) translate(42.74691358024691 19.65277777777778)"/><use xlink:href="#b" transform="matrix(1,0,0,1,484.9999999999998,285) translate(92.43827160493828 19.65277777777778)"/><path d="M760 286a6 6 0 0 1 6-6h148a6 6 0 0 1 6 6v28a6 6 0 0 1-6 6H766a6 6 0 0 1-6-6z" stroke="#3a414a" fill="#edf5ff"/><use xlink:href="#a" transform="matrix(1,0,0,1,764.9999999999999,285) translate(42.74691358024691 19.65277777777778)"/><use xlink:href="#b" transform="matrix(1,0,0,1,764.9999999999999,285) translate(92.43827160493828 19.65277777777778)"/><path d="M240 486a6 6 0 0 1 6-6h148a6 6 0 0 1 6 6v28a6 6 0 0 1-6 6H246a6 6 0 0 1-6-6z" stroke="#3a414a" fill="#edf5ff"/><use xlink:href="#a" transform="matrix(1,0,0,1,244.9999999999999,485) translate(42.74691358024691 19.65277777777778)"/><use xlink:href="#b" transform="matrix(1,0,0,1,244.9999999999999,485) translate(92.43827160493828 19.65277777777778)"/><path d="M240 526a6 6 0 0 1 6-6h148a6 6 0 0 1 6 6v28a6 6 0 0 1-6 6H246a6 6 0 0 1-6-6z" stroke="#3a414a" fill="#edf5ff"/><use xlink:href="#a" transform="matrix(1,0,0,1,244.9999999999999,525) translate(42.74691358024691 19.65277777777778)"/><use xlink:href="#c" transform="matrix(1,0,0,1,244.9999999999999,525) translate(92.43827160493828 19.65277777777778)"/><path d="M240 606a6 6 0 0 1 6-6h148a6 6 0 0 1 6 6v28a6 6 0 0 1-6 6H246a6 6 0 0 1-6-6z" stroke="#3a414a" fill="#edf5ff"/><use xlink:href="#a" transform="matrix(1,0,0,1,244.9999999999999,605) translate(42.160493827160494 19.65277777777778)"/><use xlink:href="#m" transform="matrix(1,0,0,1,244.9999999999999,605) translate(91.85185185185185 19.65277777777778)"/><path d="M480 526a6 6 0 0 1 6-6h148a6 6 0 0 1 6 6v28a6 6 0 0 1-6 6H486a6 6 0 0 1-6-6z" stroke="#3a414a" fill="#edf5ff"/><use xlink:href="#a" transform="matrix(1,0,0,1,484.9999999999998,525) translate(42.74691358024691 19.65277777777778)"/><use xlink:href="#c" transform="matrix(1,0,0,1,484.9999999999998,525) translate(92.43827160493828 19.65277777777778)"/><path d="M760 526a6 6 0 0 1 6-6h148a6 6 0 0 1 6 6v28a6 6 0 0 1-6 6H766a6 6 0 0 1-6-6z" stroke="#3a414a" fill="#edf5ff"/><use xlink:href="#a" transform="matrix(1,0,0,1,765.0000000000001,525) translate(42.74691358024691 19.65277777777778)"/><use xlink:href="#c" transform="matrix(1,0,0,1,765.0000000000001,525) translate(92.43827160493828 19.65277777777778)"/><path d="M320 513a6 6 0 0 1 6-6h228a6 6 0 0 1 6 6v62a6 6 0 0 1-6 6H326a6 6 0 0 1-6-6z" stroke="#000" stroke-opacity="0" fill="#fff" fill-opacity="0"/><use xlink:href="#l" transform="matrix(1,0,0,1,325,512) translate(99.44444444444446 46.66666666666663)"/><path d="M650 511a6 6 0 0 1 6-6h61a6 6 0 0 0 6-6v-3a2.3 2.3 0 0 1 4-1.54l19 21.08a6.67 6.67 0 0 1 0 8.92l-19 21.08a2.3 2.3 0 0 1-4-1.54v-3a6 6 0 0 0-6-6h-61a6 6 0 0 1-6-6z" stroke="#3a414a" fill="#dfe3e8"/><path d="M480 486a6 6 0 0 1 6-6h148a6 6 0 0 1 6 6v28a6 6 0 0 1-6 6H486a6 6 0 0 1-6-6z" stroke="#3a414a" fill="#edf5ff"/><use xlink:href="#a" transform="matrix(1,0,0,1,484.9999999999998,485) translate(42.74691358024691 19.65277777777778)"/><use xlink:href="#b" transform="matrix(1,0,0,1,484.9999999999998,485) translate(92.43827160493828 19.65277777777778)"/><path d="M760 486a6 6 0 0 1 6-6h148a6 6 0 0 1 6 6v28a6 6 0 0 1-6 6H766a6 6 0 0 1-6-6z" stroke="#3a414a" fill="#edf5ff"/><use xlink:href="#a" transform="matrix(1,0,0,1,764.9999999999999,485) translate(42.74691358024691 19.65277777777778)"/><use xlink:href="#b" transform="matrix(1,0,0,1,764.9999999999999,485) translate(92.43827160493828 19.65277777777778)"/><path d="M80 154.33a6 6 0 0 1 6-6h128a6 6 0 0 1 6 6v51.34a6 6 0 0 1-6 6H86a6 6 0 0 1-6-6z" stroke="#000" stroke-opacity="0" fill="#fff" fill-opacity="0"/><use xlink:href="#n" transform="matrix(1,0,0,1,85,153.33333333333334) translate(17.777777777777786 21.15277777777778)"/><use xlink:href="#o" transform="matrix(1,0,0,1,85,153.33333333333334) translate(111.48148148148148 21.15277777777778)"/><use xlink:href="#p" transform="matrix(1,0,0,1,85,153.33333333333334) translate(58.456790123456784 47.81944444444444)"/><path d="M80 314.33a6 6 0 0 1 6-6h128a6 6 0 0 1 6 6v51.34a6 6 0 0 1-6 6H86a6 6 0 0 1-6-6z" stroke="#000" stroke-opacity="0" fill="#fff" fill-opacity="0"/><use xlink:href="#n" transform="matrix(1,0,0,1,85,313.3333333333333) translate(17.777777777777786 21.15277777777778)"/><use xlink:href="#q" transform="matrix(1,0,0,1,85,313.3333333333333) translate(111.48148148148148 21.15277777777778)"/><use xlink:href="#r" transform="matrix(1,0,0,1,85,313.3333333333333) translate(90.49382716049382 47.81944444444444)"/><path d="M80 501a6 6 0 0 1 6-6h128a6 6 0 0 1 6 6v78a6 6 0 0 1-6 6H86a6 6 0 0 1-6-6z" stroke="#000" stroke-opacity="0" fill="#fff" fill-opacity="0"/><use xlink:href="#n" transform="matrix(1,0,0,1,85,500) translate(17.777777777777786 20.27777777777778)"/><use xlink:href="#s" transform="matrix(1,0,0,1,85,500) translate(111.48148148148148 20.27777777777778)"/><use xlink:href="#t" transform="matrix(1,0,0,1,85,500) translate(65.92592592592592 46.94444444444444)"/><use xlink:href="#u" transform="matrix(1,0,0,1,85,500) translate(65 73.61111111111111)"/><path d="M240 847.5a6 6 0 0 1 6-6h148a6 6 0 0 1 6 6v28a6 6 0 0 1-6 6H246a6 6 0 0 1-6-6z" stroke="#3a414a" fill="#edf5ff"/><use xlink:href="#a" transform="matrix(1,0,0,1,244.99999999999955,846.5) translate(42.74691358024691 19.65277777777778)"/><use xlink:href="#b" transform="matrix(1,0,0,1,244.99999999999955,846.5) translate(92.43827160493828 19.65277777777778)"/><path d="M240 887.5a6 6 0 0 1 6-6h148a6 6 0 0 1 6 6v28a6 6 0 0 1-6 6H246a6 6 0 0 1-6-6z" stroke="#3a414a" fill="#edf5ff"/><use xlink:href="#a" transform="matrix(1,0,0,1,244.99999999999955,886.5) translate(42.74691358024691 19.65277777777778)"/><use xlink:href="#c" transform="matrix(1,0,0,1,244.99999999999955,886.5) translate(92.43827160493828 19.65277777777778)"/><path d="M240 927.5a6 6 0 0 1 6-6h148a6 6 0 0 1 6 6v28a6 6 0 0 1-6 6H246a6 6 0 0 1-6-6z" stroke="#3a414a" fill="#edf5ff"/><use xlink:href="#a" transform="matrix(1,0,0,1,244.99999999999955,926.5) translate(42.160493827160494 19.65277777777778)"/><use xlink:href="#d" transform="matrix(1,0,0,1,244.99999999999955,926.5) translate(91.85185185185185 19.65277777777778)"/><path d="M480 847.5a6 6 0 0 1 6-6h148a6 6 0 0 1 6 6v28a6 6 0 0 1-6 6H486a6 6 0 0 1-6-6z" stroke="#3a414a" fill="#e3fae3"/><use xlink:href="#a" transform="matrix(1,0,0,1,484.99999999999955,846.5) translate(40.648148148148145 19.65277777777778)"/><use xlink:href="#j" transform="matrix(1,0,0,1,484.99999999999955,846.5) translate(90.3395061728395 19.65277777777778)"/><path d="M480 887.5a6 6 0 0 1 6-6h148a6 6 0 0 1 6 6v28a6 6 0 0 1-6 6H486a6 6 0 0 1-6-6z" stroke="#3a414a" fill="#edf5ff"/><use xlink:href="#a" transform="matrix(1,0,0,1,484.99999999999955,886.5) translate(42.74691358024691 19.65277777777778)"/><use xlink:href="#c" transform="matrix(1,0,0,1,484.99999999999955,886.5) translate(92.43827160493828 19.65277777777778)"/><path d="M480 927.5a6 6 0 0 1 6-6h148a6 6 0 0 1 6 6v28a6 6 0 0 1-6 6H486a6 6 0 0 1-6-6z" stroke="#3a414a" fill="#edf5ff"/><use xlink:href="#a" transform="matrix(1,0,0,1,484.99999999999955,926.5) translate(42.160493827160494 19.65277777777778)"/><use xlink:href="#d" transform="matrix(1,0,0,1,484.99999999999955,926.5) translate(91.85185185185185 19.65277777777778)"/><path d="M760 887.5a6 6 0 0 1 6-6h148a6 6 0 0 1 6 6v28a6 6 0 0 1-6 6H766a6 6 0 0 1-6-6z" stroke="#3a414a" fill="#edf5ff"/><use xlink:href="#a" transform="matrix(1,0,0,1,764.9999999999997,886.5) translate(42.74691358024691 19.65277777777778)"/><use xlink:href="#c" transform="matrix(1,0,0,1,764.9999999999997,886.5) translate(92.43827160493828 19.65277777777778)"/><path d="M760 927.5a6 6 0 0 1 6-6h148a6 6 0 0 1 6 6v28a6 6 0 0 1-6 6H766a6 6 0 0 1-6-6z" stroke="#3a414a" fill="#edf5ff"/><use xlink:href="#a" transform="matrix(1,0,0,1,764.9999999999997,926.5) translate(42.160493827160494 19.65277777777778)"/><use xlink:href="#d" transform="matrix(1,0,0,1,764.9999999999997,926.5) translate(91.85185185185185 19.65277777777778)"/><path d="M320 874.5a6 6 0 0 1 6-6h228a6 6 0 0 1 6 6v62a6 6 0 0 1-6 6H326a6 6 0 0 1-6-6z" stroke="#000" stroke-opacity="0" fill="#fff" fill-opacity="0"/><use xlink:href="#l" transform="matrix(1,0,0,1,324.9999999999995,873.5) translate(99.44444444444446 46.66666666666663)"/><path d="M650 892.5a6 6 0 0 1 6-6h61a6 6 0 0 0 6-6v-3a2.3 2.3 0 0 1 4-1.54l19 21.08a6.67 6.67 0 0 1 0 8.92l-19 21.08a2.3 2.3 0 0 1-4-1.54v-3a6 6 0 0 0-6-6h-61a6 6 0 0 1-6-6z" stroke="#3a414a" fill="#dfe3e8"/><path d="M0 862.5a6 6 0 0 1 6-6h208a6 6 0 0 1 6 6v78a6 6 0 0 1-6 6H6a6 6 0 0 1-6-6z" stroke="#000" stroke-opacity="0" fill="#fff" fill-opacity="0"/><use xlink:href="#n" transform="matrix(1,0,0,1,5.000000000000014,861.5) translate(97.77777777777779 30.27777777777778)"/><use xlink:href="#v" transform="matrix(1,0,0,1,5.000000000000014,861.5) translate(191.48148148148147 30.27777777777778)"/><use xlink:href="#w" transform="matrix(1,0,0,1,5.000000000000014,861.5) translate(58.39506172839506 56.94444444444445)"/><use xlink:href="#p" transform="matrix(1,0,0,1,5.000000000000014,861.5) translate(138.45679012345678 56.94444444444445)"/><path d="M480 967.5a6 6 0 0 1 6-6h148a6 6 0 0 1 6 6v28a6 6 0 0 1-6 6H486a6 6 0 0 1-6-6z" stroke="#3a414a" fill="#fff0f0"/><use xlink:href="#x" transform="matrix(1,0,0,1,484.99999999999955,966.5) translate(38.05555555555556 19.65277777777778)"/><path d="M240 1047.5a6 6 0 0 1 6-6h148a6 6 0 0 1 6 6v28a6 6 0 0 1-6 6H246a6 6 0 0 1-6-6z" stroke="#3a414a" fill="#edf5ff"/><use xlink:href="#a" transform="matrix(1,0,0,1,244.9999999999996,1046.5) translate(42.74691358024691 19.65277777777778)"/><use xlink:href="#b" transform="matrix(1,0,0,1,244.9999999999996,1046.5) translate(92.43827160493828 19.65277777777778)"/><path d="M240 1087.5a6 6 0 0 1 6-6h148a6 6 0 0 1 6 6v28a6 6 0 0 1-6 6H246a6 6 0 0 1-6-6z" stroke="#3a414a" fill="#edf5ff"/><use xlink:href="#a" transform="matrix(1,0,0,1,244.9999999999996,1086.5) translate(42.74691358024691 19.65277777777778)"/><use xlink:href="#c" transform="matrix(1,0,0,1,244.9999999999996,1086.5) translate(92.43827160493828 19.65277777777778)"/><path d="M240 1127.5a6 6 0 0 1 6-6h148a6 6 0 0 1 6 6v28a6 6 0 0 1-6 6H246a6 6 0 0 1-6-6z" stroke="#3a414a" fill="#edf5ff"/><use xlink:href="#a" transform="matrix(1,0,0,1,244.9999999999996,1126.5) translate(42.160493827160494 19.65277777777778)"/><use xlink:href="#d" transform="matrix(1,0,0,1,244.9999999999996,1126.5) translate(91.85185185185185 19.65277777777778)"/><path d="M480 1087.5a6 6 0 0 1 6-6h148a6 6 0 0 1 6 6v28a6 6 0 0 1-6 6H486a6 6 0 0 1-6-6z" stroke="#3a414a" fill="#edf5ff"/><use xlink:href="#a" transform="matrix(1,0,0,1,484.99999999999955,1086.5) translate(42.74691358024691 19.65277777777778)"/><use xlink:href="#c" transform="matrix(1,0,0,1,484.99999999999955,1086.5) translate(92.43827160493828 19.65277777777778)"/><path d="M480 1127.5a6 6 0 0 1 6-6h148a6 6 0 0 1 6 6v28a6 6 0 0 1-6 6H486a6 6 0 0 1-6-6z" stroke="#3a414a" fill="#edf5ff"/><use xlink:href="#a" transform="matrix(1,0,0,1,484.99999999999955,1126.5) translate(42.160493827160494 19.65277777777778)"/><use xlink:href="#d" transform="matrix(1,0,0,1,484.99999999999955,1126.5) translate(91.85185185185185 19.65277777777778)"/><path d="M480 1167.5a6 6 0 0 1 6-6h148a6 6 0 0 1 6 6v28a6 6 0 0 1-6 6H486a6 6 0 0 1-6-6z" stroke="#3a414a" fill="#e3fae3"/><use xlink:href="#a" transform="matrix(1,0,0,1,484.99999999999955,1166.5) translate(42.160493827160494 19.65277777777778)"/><use xlink:href="#m" transform="matrix(1,0,0,1,484.99999999999955,1166.5) translate(91.85185185185185 19.65277777777778)"/><path d="M760 1087.5a6 6 0 0 1 6-6h148a6 6 0 0 1 6 6v28a6 6 0 0 1-6 6H766a6 6 0 0 1-6-6z" stroke="#3a414a" fill="#edf5ff"/><use xlink:href="#a" transform="matrix(1,0,0,1,764.9999999999999,1086.5) translate(42.74691358024691 19.65277777777778)"/><use xlink:href="#c" transform="matrix(1,0,0,1,764.9999999999999,1086.5) translate(92.43827160493828 19.65277777777778)"/><path d="M760 1127.5a6 6 0 0 1 6-6h148a6 6 0 0 1 6 6v28a6 6 0 0 1-6 6H766a6 6 0 0 1-6-6z" stroke="#3a414a" fill="#edf5ff"/><use xlink:href="#a" transform="matrix(1,0,0,1,764.9999999999999,1126.5) translate(42.160493827160494 19.65277777777778)"/><use xlink:href="#d" transform="matrix(1,0,0,1,764.9999999999999,1126.5) translate(91.85185185185185 19.65277777777778)"/><path d="M320 1074.5a6 6 0 0 1 6-6h228a6 6 0 0 1 6 6v62a6 6 0 0 1-6 6H326a6 6 0 0 1-6-6z" stroke="#000" stroke-opacity="0" fill="#fff" fill-opacity="0"/><use xlink:href="#l" transform="matrix(1,0,0,1,324.9999999999998,1073.5) translate(99.44444444444446 46.66666666666663)"/><path d="M650 1107.5a6 6 0 0 1 6-6h61a6 6 0 0 0 6-6v-3a2.3 2.3 0 0 1 4-1.54l19 21.08a6.67 6.67 0 0 1 0 8.92l-19 21.08a2.3 2.3 0 0 1-4-1.54v-3a6 6 0 0 0-6-6h-61a6 6 0 0 1-6-6z" stroke="#3a414a" fill="#dfe3e8"/><path d="M480 1047.5a6 6 0 0 1 6-6h148a6 6 0 0 1 6 6v28a6 6 0 0 1-6 6H486a6 6 0 0 1-6-6z" stroke="#3a414a" fill="#edf5ff"/><use xlink:href="#a" transform="matrix(1,0,0,1,484.99999999999955,1046.5) translate(42.74691358024691 19.65277777777778)"/><use xlink:href="#b" transform="matrix(1,0,0,1,484.99999999999955,1046.5) translate(92.43827160493828 19.65277777777778)"/><path d="M760 1047.5a6 6 0 0 1 6-6h148a6 6 0 0 1 6 6v28a6 6 0 0 1-6 6H766a6 6 0 0 1-6-6z" stroke="#3a414a" fill="#edf5ff"/><use xlink:href="#a" transform="matrix(1,0,0,1,764.9999999999997,1046.5) translate(42.74691358024691 19.65277777777778)"/><use xlink:href="#b" transform="matrix(1,0,0,1,764.9999999999997,1046.5) translate(92.43827160493828 19.65277777777778)"/><path d="M0 1062.5a6 6 0 0 1 6-6h208a6 6 0 0 1 6 6v78a6 6 0 0 1-6 6H6a6 6 0 0 1-6-6z" stroke="#000" stroke-opacity="0" fill="#fff" fill-opacity="0"/><use xlink:href="#n" transform="matrix(1,0,0,1,5.000000000000014,1061.5) translate(97.77777777777779 30.27777777777778)"/><use xlink:href="#y" transform="matrix(1,0,0,1,5.000000000000014,1061.5) translate(191.48148148148147 30.27777777777778)"/><use xlink:href="#w" transform="matrix(1,0,0,1,5.000000000000014,1061.5) translate(90.4320987654321 56.94444444444445)"/><use xlink:href="#r" transform="matrix(1,0,0,1,5.000000000000014,1061.5) translate(170.49382716049382 56.94444444444445)"/><path d="M920 64.33a6 6 0 0 1 6-6h228a6 6 0 0 1 6 6v51.34a6 6 0 0 1-6 6H926a6 6 0 0 1-6-6z" stroke="#000" stroke-opacity="0" fill="#fff" fill-opacity="0"/><use xlink:href="#z" transform="matrix(1,0,0,1,924.9999999999995,63.333333333333336) translate(41.111111111111114 21.15277777777778)"/><use xlink:href="#A" transform="matrix(1,0,0,1,924.9999999999995,63.333333333333336) translate(113.82716049382717 21.15277777777778)"/><use xlink:href="#B" transform="matrix(1,0,0,1,924.9999999999995,63.333333333333336) translate(42.376543209876544 47.81944444444444)"/><use xlink:href="#C" transform="matrix(1,0,0,1,924.9999999999995,63.333333333333336) translate(119.9074074074074 47.81944444444444)"/><path d="M960 166a6 6 0 0 1 6-6h148a6 6 0 0 1 6 6v28a6 6 0 0 1-6 6H966a6 6 0 0 1-6-6z" stroke="#3a414a" fill="#54c45e"/><use xlink:href="#D" transform="matrix(1,0,0,1,965,165) translate(21.3888888888889 19.65277777777778)"/><path d="M960 326a6 6 0 0 1 6-6h148a6 6 0 0 1 6 6v28a6 6 0 0 1-6 6H966a6 6 0 0 1-6-6z" stroke="#3a414a" fill="#54c45e"/><use xlink:href="#D" transform="matrix(1,0,0,1,964.9999999999995,325) translate(21.3888888888889 19.65277777777778)"/><path d="M960 526a6 6 0 0 1 6-6h148a6 6 0 0 1 6 6v28a6 6 0 0 1-6 6H966a6 6 0 0 1-6-6z" stroke="#3a414a" fill="#54c45e"/><use xlink:href="#D" transform="matrix(1,0,0,1,965,525) translate(21.3888888888889 19.65277777777778)"/><path d="M960 871.5a6 6 0 0 1 6-6h148a6 6 0 0 1 6 6v68a6 6 0 0 1-6 6H966a6 6 0 0 1-6-6z" stroke="#3a414a" fill="#ff8f8f"/><use xlink:href="#E" transform="matrix(1,0,0,1,965,870.5) translate(34.96913580246913 26.52777777777778)"/><use xlink:href="#F" transform="matrix(1,0,0,1,965,870.5) translate(22.0679012345679 53.19444444444445)"/><use xlink:href="#G" transform="matrix(1,0,0,1,965,870.5) translate(28.240740740740737 53.19444444444445)"/><path d="M1121 921.5h62.62" stroke="#3a414a" fill="none"/><path d="M1121 921.98h-.5V921h.5z" stroke="#3a414a" stroke-width=".05" fill="#3a414a"/><path d="M1198.38 921.5l-14.26 4.63v-9.26z" stroke="#3a414a" fill="#3a414a"/><path d="M480 1207.5a6 6 0 0 1 6-6h148a6 6 0 0 1 6 6v28a6 6 0 0 1-6 6H486a6 6 0 0 1-6-6z" stroke="#3a414a" fill="#fff0f0"/><use xlink:href="#x" transform="matrix(1,0,0,1,484.99999999999955,1206.5) translate(38.05555555555556 19.65277777777778)"/><path d="M960 1068.5a6 6 0 0 1 6-6h148a6 6 0 0 1 6 6v68a6 6 0 0 1-6 6H966a6 6 0 0 1-6-6z" stroke="#3a414a" fill="#ff8f8f"/><use xlink:href="#E" transform="matrix(1,0,0,1,964.9999999999995,1067.5) translate(34.96913580246913 26.52777777777778)"/><use xlink:href="#F" transform="matrix(1,0,0,1,964.9999999999995,1067.5) translate(22.0679012345679 53.19444444444445)"/><use xlink:href="#G" transform="matrix(1,0,0,1,964.9999999999995,1067.5) translate(28.240740740740737 53.19444444444445)"/><path d="M1121 1118.5h62.62" stroke="#3a414a" fill="none"/><path d="M1121 1118.97h-.5v-.94h.5z" stroke="#3a414a" stroke-width=".05" fill="#3a414a"/><path d="M1198.38 1118.5l-14.26 4.63v-9.27z" stroke="#3a414a" fill="#3a414a"/><path d="M240 1287.5a6 6 0 0 1 6-6h148a6 6 0 0 1 6 6v28a6 6 0 0 1-6 6H246a6 6 0 0 1-6-6z" stroke="#3a414a" fill="#edf5ff"/><use xlink:href="#a" transform="matrix(1,0,0,1,244.9999999999999,1286.5) translate(42.74691358024691 19.65277777777778)"/><use xlink:href="#b" transform="matrix(1,0,0,1,244.9999999999999,1286.5) translate(92.43827160493828 19.65277777777778)"/><path d="M240 1327.5a6 6 0 0 1 6-6h148a6 6 0 0 1 6 6v28a6 6 0 0 1-6 6H246a6 6 0 0 1-6-6z" stroke="#3a414a" fill="#edf5ff"/><use xlink:href="#a" transform="matrix(1,0,0,1,244.9999999999999,1326.5) translate(42.74691358024691 19.65277777777778)"/><use xlink:href="#c" transform="matrix(1,0,0,1,244.9999999999999,1326.5) translate(92.43827160493828 19.65277777777778)"/><path d="M240 1367.5a6 6 0 0 1 6-6h148a6 6 0 0 1 6 6v28a6 6 0 0 1-6 6H246a6 6 0 0 1-6-6z" stroke="#3a414a" fill="#edf5ff"/><use xlink:href="#a" transform="matrix(1,0,0,1,244.9999999999999,1366.5) translate(42.160493827160494 19.65277777777778)"/><use xlink:href="#d" transform="matrix(1,0,0,1,244.9999999999999,1366.5) translate(91.85185185185185 19.65277777777778)"/><path d="M480 1327.5a6 6 0 0 1 6-6h148a6 6 0 0 1 6 6v28a6 6 0 0 1-6 6H486a6 6 0 0 1-6-6z" stroke="#3a414a" fill="#edf5ff"/><use xlink:href="#a" transform="matrix(1,0,0,1,484.9999999999999,1326.5) translate(42.74691358024691 19.65277777777778)"/><use xlink:href="#c" transform="matrix(1,0,0,1,484.9999999999999,1326.5) translate(92.43827160493828 19.65277777777778)"/><path d="M760 1327.5a6 6 0 0 1 6-6h148a6 6 0 0 1 6 6v28a6 6 0 0 1-6 6H766a6 6 0 0 1-6-6z" stroke="#3a414a" fill="#edf5ff"/><use xlink:href="#a" transform="matrix(1,0,0,1,765.0000000000001,1326.5) translate(42.74691358024691 19.65277777777778)"/><use xlink:href="#c" transform="matrix(1,0,0,1,765.0000000000001,1326.5) translate(92.43827160493828 19.65277777777778)"/><path d="M760 1367.5a6 6 0 0 1 6-6h148a6 6 0 0 1 6 6v28a6 6 0 0 1-6 6H766a6 6 0 0 1-6-6z" stroke="#3a414a" fill="#edf5ff"/><use xlink:href="#a" transform="matrix(1,0,0,1,765.0000000000001,1366.5) translate(42.160493827160494 19.65277777777778)"/><use xlink:href="#d" transform="matrix(1,0,0,1,765.0000000000001,1366.5) translate(91.85185185185185 19.65277777777778)"/><path d="M320 1314.5a6 6 0 0 1 6-6h228a6 6 0 0 1 6 6v62a6 6 0 0 1-6 6H326a6 6 0 0 1-6-6z" stroke="#000" stroke-opacity="0" fill="#fff" fill-opacity="0"/><use xlink:href="#l" transform="matrix(1,0,0,1,325,1313.5) translate(99.44444444444446 46.66666666666663)"/><path d="M650 1332.5a6 6 0 0 1 6-6h61a6 6 0 0 0 6-6v-3a2.3 2.3 0 0 1 4-1.54l19 21.08a6.67 6.67 0 0 1 0 8.92l-19 21.08a2.3 2.3 0 0 1-4-1.54v-3a6 6 0 0 0-6-6h-61a6 6 0 0 1-6-6z" stroke="#3a414a" fill="#dfe3e8"/><path d="M480 1287.5a6 6 0 0 1 6-6h148a6 6 0 0 1 6 6v28a6 6 0 0 1-6 6H486a6 6 0 0 1-6-6z" stroke="#3a414a" fill="#edf5ff"/><use xlink:href="#a" transform="matrix(1,0,0,1,484.9999999999999,1286.5) translate(42.74691358024691 19.65277777777778)"/><use xlink:href="#b" transform="matrix(1,0,0,1,484.9999999999999,1286.5) translate(92.43827160493828 19.65277777777778)"/><path d="M760 1287.5a6 6 0 0 1 6-6h148a6 6 0 0 1 6 6v28a6 6 0 0 1-6 6H766a6 6 0 0 1-6-6z" stroke="#3a414a" fill="#edf5ff"/><use xlink:href="#a" transform="matrix(1,0,0,1,764.9999999999999,1286.5) translate(42.74691358024691 19.65277777777778)"/><use xlink:href="#b" transform="matrix(1,0,0,1,764.9999999999999,1286.5) translate(92.43827160493828 19.65277777777778)"/><path d="M0 1302.5a6 6 0 0 1 6-6h208a6 6 0 0 1 6 6v78a6 6 0 0 1-6 6H6a6 6 0 0 1-6-6z" stroke="#000" stroke-opacity="0" fill="#fff" fill-opacity="0"/><use xlink:href="#n" transform="matrix(1,0,0,1,5.000000000000014,1301.5) translate(97.77777777777779 20.27777777777778)"/><use xlink:href="#H" transform="matrix(1,0,0,1,5.000000000000014,1301.5) translate(191.48148148148147 20.27777777777778)"/><use xlink:href="#I" transform="matrix(1,0,0,1,5.000000000000014,1301.5) translate(51.17283950617286 46.94444444444444)"/><use xlink:href="#J" transform="matrix(1,0,0,1,5.000000000000014,1301.5) translate(136.11111111111114 46.94444444444444)"/><use xlink:href="#K" transform="matrix(1,0,0,1,5.000000000000014,1301.5) translate(145.92592592592592 73.61111111111111)"/><path d="M480 1367.5a6 6 0 0 1 6-6h148a6 6 0 0 1 6 6v28a6 6 0 0 1-6 6H486a6 6 0 0 1-6-6z" stroke="#3a414a" fill="#fff0f0"/><use xlink:href="#x" transform="matrix(1,0,0,1,484.9999999999998,1366.5) translate(38.05555555555556 19.65277777777778)"/><path d="M960 1308.5a6 6 0 0 1 6-6h148a6 6 0 0 1 6 6v68a6 6 0 0 1-6 6H966a6 6 0 0 1-6-6z" stroke="#3a414a" fill="#ff8f8f"/><use xlink:href="#E" transform="matrix(1,0,0,1,964.9999999999995,1307.5) translate(34.96913580246913 26.52777777777778)"/><use xlink:href="#F" transform="matrix(1,0,0,1,964.9999999999995,1307.5) translate(22.0679012345679 53.19444444444445)"/><use xlink:href="#G" transform="matrix(1,0,0,1,964.9999999999995,1307.5) translate(28.240740740740737 53.19444444444445)"/><path d="M1121 1358.5h62.62" stroke="#3a414a" fill="none"/><path d="M1121 1358.97h-.5v-.94h.5z" stroke="#3a414a" stroke-width=".05" fill="#3a414a"/><path d="M1198.38 1358.5l-14.26 4.63v-9.27z" stroke="#3a414a" fill="#3a414a"/><path d="M80.5 259h1839M80.5 458.5h1839M80.5 820.5h1839M80.5 1020h1839M80.5 1261.5h1839" stroke="#3a414a" stroke-linecap="round" fill="none"/><path d="M760 847.5a6 6 0 0 1 6-6h148a6 6 0 0 1 6 6v28a6 6 0 0 1-6 6H766a6 6 0 0 1-6-6z" stroke="#3a414a" fill="#e3fae3"/><use xlink:href="#a" transform="matrix(1,0,0,1,765.0000000000001,846.5) translate(40.648148148148145 19.65277777777778)"/><use xlink:href="#j" transform="matrix(1,0,0,1,765.0000000000001,846.5) translate(90.3395061728395 19.65277777777778)"/><path d="M760 1167.5a6 6 0 0 1 6-6h148a6 6 0 0 1 6 6v28a6 6 0 0 1-6 6H766a6 6 0 0 1-6-6z" stroke="#3a414a" fill="#e3fae3"/><use xlink:href="#a" transform="matrix(1,0,0,1,764.9999999999995,1166.5) translate(42.160493827160494 19.65277777777778)"/><use xlink:href="#m" transform="matrix(1,0,0,1,764.9999999999995,1166.5) translate(91.85185185185185 19.65277777777778)"/><path d="M240 1487.5a6 6 0 0 1 6-6h148a6 6 0 0 1 6 6v28a6 6 0 0 1-6 6H246a6 6 0 0 1-6-6z" stroke="#3a414a" fill="#edf5ff"/><use xlink:href="#a" transform="matrix(1,0,0,1,244.9999999999999,1486.5) translate(42.74691358024691 19.65277777777778)"/><use xlink:href="#b" transform="matrix(1,0,0,1,244.9999999999999,1486.5) translate(92.43827160493828 19.65277777777778)"/><path d="M240 1527.5a6 6 0 0 1 6-6h148a6 6 0 0 1 6 6v28a6 6 0 0 1-6 6H246a6 6 0 0 1-6-6z" stroke="#3a414a" fill="#edf5ff"/><use xlink:href="#a" transform="matrix(1,0,0,1,244.9999999999999,1526.5) translate(42.74691358024691 19.65277777777778)"/><use xlink:href="#c" transform="matrix(1,0,0,1,244.9999999999999,1526.5) translate(92.43827160493828 19.65277777777778)"/><path d="M240 1567.5a6 6 0 0 1 6-6h148a6 6 0 0 1 6 6v28a6 6 0 0 1-6 6H246a6 6 0 0 1-6-6z" stroke="#3a414a" fill="#edf5ff"/><g><use xlink:href="#a" transform="matrix(1,0,0,1,244.9999999999999,1566.5) translate(42.160493827160494 19.65277777777778)"/><use xlink:href="#d" transform="matrix(1,0,0,1,244.9999999999999,1566.5) translate(91.85185185185185 19.65277777777778)"/></g><path d="M760 1527.5a6 6 0 0 1 6-6h148a6 6 0 0 1 6 6v28a6 6 0 0 1-6 6H766a6 6 0 0 1-6-6z" stroke="#3a414a" fill="#edf5ff"/><g><use xlink:href="#a" transform="matrix(1,0,0,1,765.0000000000001,1526.5) translate(42.74691358024691 19.65277777777778)"/><use xlink:href="#c" transform="matrix(1,0,0,1,765.0000000000001,1526.5) translate(92.43827160493828 19.65277777777778)"/></g><path d="M760 1567.5a6 6 0 0 1 6-6h148a6 6 0 0 1 6 6v28a6 6 0 0 1-6 6H766a6 6 0 0 1-6-6z" stroke="#3a414a" fill="#edf5ff"/><g><use xlink:href="#a" transform="matrix(1,0,0,1,765.0000000000001,1566.5) translate(42.160493827160494 19.65277777777778)"/><use xlink:href="#d" transform="matrix(1,0,0,1,765.0000000000001,1566.5) translate(91.85185185185185 19.65277777777778)"/></g><path d="M320 1514.5a6 6 0 0 1 6-6h228a6 6 0 0 1 6 6v62a6 6 0 0 1-6 6H326a6 6 0 0 1-6-6z" stroke="#000" stroke-opacity="0" fill="#fff" fill-opacity="0"/><g><use xlink:href="#l" transform="matrix(1,0,0,1,324.99999999999994,1513.5) translate(99.44444444444446 46.66666666666663)"/></g><path d="M650 1532.5a6 6 0 0 1 6-6h61a6 6 0 0 0 6-6v-3a2.3 2.3 0 0 1 4-1.54l19 21.08a6.67 6.67 0 0 1 0 8.92l-19 21.08a2.3 2.3 0 0 1-4-1.54v-3a6 6 0 0 0-6-6h-61a6 6 0 0 1-6-6z" stroke="#3a414a" fill="#dfe3e8"/><path d="M760 1487.5a6 6 0 0 1 6-6h148a6 6 0 0 1 6 6v28a6 6 0 0 1-6 6H766a6 6 0 0 1-6-6z" stroke="#3a414a" fill="#edf5ff"/><g><use xlink:href="#a" transform="matrix(1,0,0,1,765,1486.5) translate(42.74691358024691 19.65277777777778)"/><use xlink:href="#b" transform="matrix(1,0,0,1,765,1486.5) translate(92.43827160493828 19.65277777777778)"/></g><path d="M0 1515.83a6 6 0 0 1 6-6h208a6 6 0 0 1 6 6v51.34a6 6 0 0 1-6 6H6a6 6 0 0 1-6-6z" stroke="#000" stroke-opacity="0" fill="#fff" fill-opacity="0"/><g><use xlink:href="#n" transform="matrix(1,0,0,1,5,1514.8333333333333) translate(97.77777777777779 21.15277777777778)"/><use xlink:href="#L" transform="matrix(1,0,0,1,5,1514.8333333333333) translate(191.48148148148147 21.15277777777778)"/><use xlink:href="#w" transform="matrix(1,0,0,1,5,1514.8333333333333) translate(41.296296296296305 47.81944444444444)"/><use xlink:href="#M" transform="matrix(1,0,0,1,5,1514.8333333333333) translate(121.35802469135803 47.81944444444444)"/></g><path d="M480 1487.5a6 6 0 0 1 6-6h148a6 6 0 0 1 6 6v108a6 6 0 0 1-6 6H486a6 6 0 0 1-6-6z" stroke="#3a414a" fill="#fff0f0"/><g><use xlink:href="#N" transform="matrix(1,0,0,1,484.9999999999998,1486.5) translate(38.05555555555556 45.27777777777778)"/><use xlink:href="#O" transform="matrix(1,0,0,1,484.9999999999998,1486.5) translate(30.679012345679013 71.94444444444446)"/></g><path d="M960 1508.5a6 6 0 0 1 6-6h148a6 6 0 0 1 6 6v68a6 6 0 0 1-6 6H966a6 6 0 0 1-6-6z" stroke="#3a414a" fill="#ff8f8f"/><g><use xlink:href="#E" transform="matrix(1,0,0,1,964.9999999999995,1507.5) translate(34.96913580246913 26.52777777777778)"/><use xlink:href="#F" transform="matrix(1,0,0,1,964.9999999999995,1507.5) translate(22.0679012345679 53.19444444444445)"/><use xlink:href="#G" transform="matrix(1,0,0,1,964.9999999999995,1507.5) translate(28.240740740740737 53.19444444444445)"/></g><path d="M1121 1558.5h62.62" stroke="#3a414a" fill="none"/><path d="M1121 1558.97h-.5v-.94h.5z" stroke="#3a414a" stroke-width=".05" fill="#3a414a"/><path d="M1198.38 1558.5l-14.26 4.63v-9.27z" stroke="#3a414a" fill="#3a414a"/><path d="M80.5 1461.5h1838.9" stroke="#3a414a" stroke-linecap="round" fill="none"/><path d="M1160 46a6 6 0 0 1 6-6h328a6 6 0 0 1 6 6v78a6 6 0 0 1-6 6h-328a6 6 0 0 1-6-6z" stroke="#000" stroke-opacity="0" fill="#fff" fill-opacity="0"/><g><use xlink:href="#P" transform="matrix(1,0,0,1,1164.9999999999995,45) translate(40.5 30.27777777777778)"/><use xlink:href="#Q" transform="matrix(1,0,0,1,1164.9999999999995,45) translate(118.03086419753086 30.27777777777778)"/><use xlink:href="#R" transform="matrix(1,0,0,1,1164.9999999999995,45) translate(153.70987654320987 30.27777777777778)"/><use xlink:href="#S" transform="matrix(1,0,0,1,1164.9999999999995,45) translate(172.2283950617284 30.27777777777778)"/><use xlink:href="#T" transform="matrix(1,0,0,1,1164.9999999999995,45) translate(219.08024691358025 30.27777777777778)"/><use xlink:href="#U" transform="matrix(1,0,0,1,1164.9999999999995,45) translate(274.51234567901236 30.27777777777778)"/><use xlink:href="#V" transform="matrix(1,0,0,1,1164.9999999999995,45) translate(42.012345679012384 56.94444444444445)"/><use xlink:href="#W" transform="matrix(1,0,0,1,1164.9999999999995,45) translate(75.34567901234571 56.94444444444445)"/><use xlink:href="#X" transform="matrix(1,0,0,1,1164.9999999999995,45) translate(94.48148148148151 56.94444444444445)"/></g><path d="M1250 166a6 6 0 0 1 6-6h148a6 6 0 0 1 6 6v28a6 6 0 0 1-6 6h-148a6 6 0 0 1-6-6z" stroke="#3a414a" fill="#edf5ff"/><g><use xlink:href="#Y" transform="matrix(1,0,0,1,1254.9999999999998,165) translate(57.77777777777778 19.65277777777778)"/></g><path d="M1250 326a6 6 0 0 1 6-6h148a6 6 0 0 1 6 6v28a6 6 0 0 1-6 6h-148a6 6 0 0 1-6-6z" stroke="#3a414a" fill="#edf5ff"/><g><use xlink:href="#Z" transform="matrix(1,0,0,1,1254.9999999999998,325) translate(34.10493827160494 19.65277777777778)"/><use xlink:href="#aa" transform="matrix(1,0,0,1,1254.9999999999998,325) translate(71.57407407407408 19.65277777777778)"/></g><path d="M1250 526a6 6 0 0 1 6-6h148a6 6 0 0 1 6 6v28a6 6 0 0 1-6 6h-148a6 6 0 0 1-6-6z" stroke="#3a414a" fill="#edf5ff"/><g><use xlink:href="#Y" transform="matrix(1,0,0,1,1254.9999999999998,525) translate(57.77777777777778 19.65277777777778)"/></g><path d="M1250 1532a6 6 0 0 1 6-6h148a6 6 0 0 1 6 6v27a6 6 0 0 1-6 6h-148a6 6 0 0 1-6-6z" stroke="#3a414a" fill="#edf5ff"/><g><use xlink:href="#Y" transform="matrix(1,0,0,1,1254.9999999999998,1531) translate(57.77777777777778 19.65277777777778)"/></g><path d="M1250 888a6 6 0 0 1 6-6h148a6 6 0 0 1 6 6v27a6 6 0 0 1-6 6h-148a6 6 0 0 1-6-6z" stroke="#3a414a" fill="#edf5ff"/><g><use xlink:href="#Y" transform="matrix(1,0,0,1,1254.9999999999998,887) translate(57.77777777777778 19.65277777777778)"/></g><path d="M1250 1092a6 6 0 0 1 6-6h148a6 6 0 0 1 6 6v27a6 6 0 0 1-6 6h-148a6 6 0 0 1-6-6z" stroke="#3a414a" fill="#edf5ff"/><g><use xlink:href="#Z" transform="matrix(1,0,0,1,1254.9999999999998,1091) translate(34.10493827160494 19.65277777777778)"/><use xlink:href="#aa" transform="matrix(1,0,0,1,1254.9999999999998,1091) translate(71.57407407407408 19.65277777777778)"/></g><path d="M1250 1332a6 6 0 0 1 6-6h148a6 6 0 0 1 6 6v27a6 6 0 0 1-6 6h-148a6 6 0 0 1-6-6z" stroke="#3a414a" fill="#edf5ff"/><g><use xlink:href="#Z" transform="matrix(1,0,0,1,1254.9999999999998,1331) translate(34.10493827160494 19.65277777777778)"/><use xlink:href="#aa" transform="matrix(1,0,0,1,1254.9999999999998,1331) translate(71.57407407407408 19.65277777777778)"/></g><path d="M1510 51a6 6 0 0 1 6-6h328a6 6 0 0 1 6 6v78a6 6 0 0 1-6 6h-328a6 6 0 0 1-6-6z" stroke="#000" stroke-opacity="0" fill="#fff" fill-opacity="0"/><g><use xlink:href="#ab" transform="matrix(1,0,0,1,1514.9999999999998,50) translate(27.5679012345679 30.27777777777778)"/><use xlink:href="#ac" transform="matrix(1,0,0,1,1514.9999999999998,50) translate(153.1851851851852 30.27777777777778)"/><use xlink:href="#ad" transform="matrix(1,0,0,1,1514.9999999999998,50) translate(227.07407407407408 30.27777777777778)"/><use xlink:href="#ae" transform="matrix(1,0,0,1,1514.9999999999998,50) translate(262.7530864197531 30.27777777777778)"/><use xlink:href="#T" transform="matrix(1,0,0,1,1514.9999999999998,50) translate(129.79012345679013 56.94444444444445)"/><use xlink:href="#af" transform="matrix(1,0,0,1,1514.9999999999998,50) translate(185.22222222222223 56.94444444444445)"/></g><path d="M1600 170a6 6 0 0 1 6-6h148a6 6 0 0 1 6 6v28a6 6 0 0 1-6 6h-148a6 6 0 0 1-6-6z" stroke="#3a414a" fill="#edf5ff"/><g><use xlink:href="#ag" transform="matrix(1,0,0,1,1605,168.99999999999994) translate(5.370370370370367 19.65277777777778)"/></g><path d="M1600 530a6 6 0 0 1 6-6h148a6 6 0 0 1 6 6v28a6 6 0 0 1-6 6h-148a6 6 0 0 1-6-6z" stroke="#3a414a" fill="#edf5ff"/><g><use xlink:href="#ag" transform="matrix(1,0,0,1,1605,529) translate(5.370370370370367 19.65277777777778)"/></g><path d="M1600 1527.5a6 6 0 0 1 6-6h148a6 6 0 0 1 6 6v28a6 6 0 0 1-6 6h-148a6 6 0 0 1-6-6z" stroke="#3a414a" fill="#edf5ff"/><g><use xlink:href="#ag" transform="matrix(1,0,0,1,1605,1526.5) translate(5.370370370370367 19.65277777777778)"/></g><path d="M1600 326a6 6 0 0 1 6-6h148a6 6 0 0 1 6 6v28a6 6 0 0 1-6 6h-148a6 6 0 0 1-6-6z" stroke="#3a414a" fill="#edf5ff"/><g><use xlink:href="#ah" transform="matrix(1,0,0,1,1605,325) translate(14.012345679012341 19.65277777777778)"/></g><path d="M1600 891.5a6 6 0 0 1 6-6h148a6 6 0 0 1 6 6v28a6 6 0 0 1-6 6h-148a6 6 0 0 1-6-6z" stroke="#3a414a" fill="#edf5ff"/><g><use xlink:href="#ag" transform="matrix(1,0,0,1,1605,890.5) translate(5.370370370370367 19.65277777777778)"/></g><path d="M239.9 688a6 6 0 0 1 6-6h148a6 6 0 0 1 6 6v28a6 6 0 0 1-6 6h-148a6 6 0 0 1-6-6z" stroke="#3a414a" fill="#edf5ff"/><g><use xlink:href="#a" transform="matrix(1,0,0,1,244.88999999999976,687) translate(42.74691358024691 19.65277777777778)"/><use xlink:href="#b" transform="matrix(1,0,0,1,244.88999999999976,687) translate(92.43827160493828 19.65277777777778)"/></g><path d="M239.9 728a6 6 0 0 1 6-6h148a6 6 0 0 1 6 6v28a6 6 0 0 1-6 6h-148a6 6 0 0 1-6-6z" stroke="#3a414a" fill="#edf5ff"/><g><use xlink:href="#a" transform="matrix(1,0,0,1,244.88999999999976,727) translate(42.74691358024691 19.65277777777778)"/><use xlink:href="#c" transform="matrix(1,0,0,1,244.88999999999976,727) translate(92.43827160493828 19.65277777777778)"/></g><path d="M239.9 768a6 6 0 0 1 6-6h148a6 6 0 0 1 6 6v28a6 6 0 0 1-6 6h-148a6 6 0 0 1-6-6z" stroke="#3a414a" fill="#edf5ff"/><g><use xlink:href="#a" transform="matrix(1,0,0,1,244.88999999999976,767) translate(42.160493827160494 19.65277777777778)"/><use xlink:href="#d" transform="matrix(1,0,0,1,244.88999999999976,767) translate(91.85185185185185 19.65277777777778)"/></g><path d="M319.9 715a6 6 0 0 1 6-6h228a6 6 0 0 1 6 6v62a6 6 0 0 1-6 6h-228a6 6 0 0 1-6-6z" stroke="#000" stroke-opacity="0" fill="#fff" fill-opacity="0"/><g><use xlink:href="#l" transform="matrix(1,0,0,1,324.8899999999999,714) translate(99.44444444444446 46.66666666666663)"/></g><path d="M649.9 713a6 6 0 0 1 6-6h61a6 6 0 0 0 6-6v-3a2.3 2.3 0 0 1 4-1.54l18.98 21.08a6.67 6.67 0 0 1 0 8.92l-18.98 21.08a2.3 2.3 0 0 1-4-1.54v-3a6 6 0 0 0-6-6h-61a6 6 0 0 1-6-6z" stroke="#3a414a" fill="#dfe3e8"/><path d="M79.9 703a6 6 0 0 1 6-6h128a6 6 0 0 1 6 6v78a6 6 0 0 1-6 6h-128a6 6 0 0 1-6-6z" stroke="#000" stroke-opacity="0" fill="#fff" fill-opacity="0"/><g><use xlink:href="#n" transform="matrix(1,0,0,1,84.88999999999987,702) translate(17.777777777777786 20.27777777777778)"/><use xlink:href="#ai" transform="matrix(1,0,0,1,84.88999999999987,702) translate(111.48148148148148 20.27777777777778)"/><use xlink:href="#aj" transform="matrix(1,0,0,1,84.88999999999987,702) translate(24.135802469135797 46.94444444444444)"/><use xlink:href="#t" transform="matrix(1,0,0,1,84.88999999999987,702) translate(65.92592592592592 46.94444444444444)"/><use xlink:href="#u" transform="matrix(1,0,0,1,84.88999999999987,702) translate(65 73.61111111111111)"/></g><path d="M959.9 728a6 6 0 0 1 6-6h148a6 6 0 0 1 6 6v28a6 6 0 0 1-6 6h-148a6 6 0 0 1-6-6z" stroke="#3a414a" fill="#54c45e"/><g><use xlink:href="#D" transform="matrix(1,0,0,1,964.8899999999999,727) translate(21.3888888888889 19.65277777777778)"/></g><path d="M80.4 660.5h1839" stroke="#3a414a" stroke-linecap="round" fill="none"/><path d="M1249.9 728a6 6 0 0 1 6-6h148a6 6 0 0 1 6 6v28a6 6 0 0 1-6 6h-148a6 6 0 0 1-6-6z" stroke="#3a414a" fill="#edf5ff"/><g><use xlink:href="#Y" transform="matrix(1,0,0,1,1254.8899999999996,727) translate(57.77777777777778 19.65277777777778)"/></g><path d="M1599.9 732a6 6 0 0 1 6-6h148a6 6 0 0 1 6 6v28a6 6 0 0 1-6 6h-148a6 6 0 0 1-6-6z" stroke="#3a414a" fill="#edf5ff"/><g><use xlink:href="#ag" transform="matrix(1,0,0,1,1604.8899999999999,731) translate(5.370370370370367 19.65277777777778)"/></g><path d="M480 688.3a6 6 0 0 1 6-6h148a6 6 0 0 1 6 6v105.2a6 6 0 0 1-6 6H486a6 6 0 0 1-6-6z" stroke="#000" fill="#e3fae3"/><g><use xlink:href="#ak" transform="matrix(1,0,0,1,485,687.2952787100635) translate(43.54938271604939 44.77777777777778)"/><use xlink:href="#O" transform="matrix(1,0,0,1,485,687.2952787100635) translate(30.679012345679013 71.44444444444446)"/></g><path d="M760 687a6 6 0 0 1 6-6h148a6 6 0 0 1 6 6v105.2a6 6 0 0 1-6 6H766a6 6 0 0 1-6-6z" stroke="#000" fill="#e3fae3"/><g><use xlink:href="#ak" transform="matrix(1,0,0,1,765.0000000000001,686) translate(43.54938271604939 44.77777777777778)"/><use xlink:href="#O" transform="matrix(1,0,0,1,765.0000000000001,686) translate(30.679012345679013 71.44444444444446)"/></g><path d="M240 566a6 6 0 0 1 6-6h148a6 6 0 0 1 6 6v28a6 6 0 0 1-6 6H246a6 6 0 0 1-6-6z" stroke="#3a414a" fill="#edf5ff"/><g><use xlink:href="#a" transform="matrix(1,0,0,1,245.00000000000006,565) translate(42.160493827160494 19.65277777777778)"/><use xlink:href="#d" transform="matrix(1,0,0,1,245.00000000000006,565) translate(91.85185185185185 19.65277777777778)"/></g><path d="M480 566a6 6 0 0 1 6-6h148a6 6 0 0 1 6 6v28a6 6 0 0 1-6 6H486a6 6 0 0 1-6-6z" stroke="#3a414a" fill="#edf5ff"/><g><use xlink:href="#a" transform="matrix(1,0,0,1,485,565) translate(42.160493827160494 19.65277777777778)"/><use xlink:href="#d" transform="matrix(1,0,0,1,485,565) translate(91.85185185185185 19.65277777777778)"/></g><path d="M760 566a6 6 0 0 1 6-6h148a6 6 0 0 1 6 6v28a6 6 0 0 1-6 6H766a6 6 0 0 1-6-6z" stroke="#3a414a" fill="#edf5ff"/><g><use xlink:href="#a" transform="matrix(1,0,0,1,765.0000000000001,565) translate(42.160493827160494 19.65277777777778)"/><use xlink:href="#d" transform="matrix(1,0,0,1,765.0000000000001,565) translate(91.85185185185185 19.65277777777778)"/></g><path d="M239.9 1407.5a6 6 0 0 1 6-6h148a6 6 0 0 1 6 6v28a6 6 0 0 1-6 6h-148a6 6 0 0 1-6-6z" stroke="#3a414a" fill="#edf5ff"/><g><use xlink:href="#a" transform="matrix(1,0,0,1,244.88999999999976,1406.5) translate(42.160493827160494 19.65277777777778)"/><use xlink:href="#m" transform="matrix(1,0,0,1,244.88999999999976,1406.5) translate(91.85185185185185 19.65277777777778)"/></g><path d="M760 1407.5a6 6 0 0 1 6-6h148a6 6 0 0 1 6 6v28a6 6 0 0 1-6 6H766a6 6 0 0 1-6-6z" stroke="#3a414a" fill="#edf5ff"/><g><use xlink:href="#a" transform="matrix(1,0,0,1,765.0000000000001,1406.5) translate(42.160493827160494 19.65277777777778)"/><use xlink:href="#m" transform="matrix(1,0,0,1,765.0000000000001,1406.5) translate(91.85185185185185 19.65277777777778)"/></g><path d="M1600 1092.5a6 6 0 0 1 6-6h148a6 6 0 0 1 6 6v28a6 6 0 0 1-6 6h-148a6 6 0 0 1-6-6z" stroke="#3a414a" fill="#edf5ff"/><g><use xlink:href="#ah" transform="matrix(1,0,0,1,1605,1091.5) translate(14.012345679012341 19.65277777777778)"/></g><path d="M1600 1332a6 6 0 0 1 6-6h148a6 6 0 0 1 6 6v28a6 6 0 0 1-6 6h-148a6 6 0 0 1-6-6z" stroke="#3a414a" fill="#edf5ff"/><g><use xlink:href="#ah" transform="matrix(1,0,0,1,1605,1331) translate(14.012345679012341 19.65277777777778)"/></g><defs><path fill="#3a414a" d="M212-179c-10-28-35-45-73-45-59 0-87 40-87 99 0 60 29 101 89 101 43 0 62-24 78-52l27 14C228-24 195 4 139 4 59 4 22-46 18-125c-6-104 99-153 187-111 19 9 31 26 39 46" id="al"/><path fill="#3a414a" d="M233-177c-1 41-23 64-60 70L243 0h-38l-65-103H63V0H30v-248c88 3 205-21 203 71zM63-129c60-2 137 13 137-47 0-61-80-42-137-45v92" id="am"/><path fill="#3a414a" d="M30 0v-248h33v221h125V0H30" id="an"/><g id="a"><use transform="matrix(0.06172839506172839,0,0,0.06172839506172839,0,0)" xlink:href="#al"/><use transform="matrix(0.06172839506172839,0,0,0.06172839506172839,15.987654320987653,0)" xlink:href="#am"/><use transform="matrix(0.06172839506172839,0,0,0.06172839506172839,31.975308641975307,0)" xlink:href="#an"/></g><path fill="#3a414a" d="M205 0l-28-72H64L36 0H1l101-248h38L239 0h-34zm-38-99l-47-123c-12 45-31 82-46 123h93" id="ao"/><use transform="matrix(0.06172839506172839,0,0,0.06172839506172839,0,0)" xlink:href="#ao" id="b"/><path fill="#3a414a" d="M160-131c35 5 61 23 61 61C221 17 115-2 30 0v-248c76 3 177-17 177 60 0 33-19 50-47 57zm-97-11c50-1 110 9 110-42 0-47-63-36-110-37v79zm0 115c55-2 124 14 124-45 0-56-70-42-124-44v89" id="ap"/><use transform="matrix(0.06172839506172839,0,0,0.06172839506172839,0,0)" xlink:href="#ap" id="c"/><use transform="matrix(0.06172839506172839,0,0,0.06172839506172839,0,0)" xlink:href="#al" id="d"/><path fill="#3a414a" d="M24 0v-248h195v40H76v63h132v40H76v65h150V0H24" id="aq"/><path fill="#3a414a" d="M144 0l-44-69L55 0H2l70-98-66-92h53l41 62 40-62h54l-67 91 71 99h-54" id="ar"/><path fill="#3a414a" d="M25-224v-37h50v37H25zM25 0v-190h50V0H25" id="as"/><path fill="#3a414a" d="M137-138c1-29-70-34-71-4 15 46 118 7 119 86 1 83-164 76-172 9l43-7c4 19 20 25 44 25 33 8 57-30 24-41C81-84 22-81 20-136c-2-80 154-74 161-7" id="at"/><path fill="#3a414a" d="M135-194c87-1 58 113 63 194h-50c-7-57 23-157-34-157-59 0-34 97-39 157H25l-1-190h47c2 12-1 28 3 38 12-26 28-41 61-42" id="au"/><path fill="#3a414a" d="M195-6C206 82 75 100 31 46c-4-6-6-13-8-21l49-6c3 16 16 24 34 25 40 0 42-37 40-79-11 22-30 35-61 35-53 0-70-43-70-97 0-56 18-96 73-97 30 0 46 14 59 34l2-30h47zm-90-29c32 0 41-27 41-63 0-35-9-62-40-62-32 0-39 29-40 63 0 36 9 62 39 62" id="av"/><g id="e"><use transform="matrix(0.06172839506172839,0,0,0.06172839506172839,0,0)" xlink:href="#aq"/><use transform="matrix(0.06172839506172839,0,0,0.06172839506172839,14.814814814814813,0)" xlink:href="#ar"/><use transform="matrix(0.06172839506172839,0,0,0.06172839506172839,27.160493827160494,0)" xlink:href="#as"/><use transform="matrix(0.06172839506172839,0,0,0.06172839506172839,33.333333333333336,0)" xlink:href="#at"/><use transform="matrix(0.06172839506172839,0,0,0.06172839506172839,45.67901234567901,0)" xlink:href="#as"/><use transform="matrix(0.06172839506172839,0,0,0.06172839506172839,51.851851851851855,0)" xlink:href="#au"/><use transform="matrix(0.06172839506172839,0,0,0.06172839506172839,65.37037037037037,0)" xlink:href="#av"/></g><path fill="#3a414a" d="M169-182c-1-43-94-46-97-3 18 66 151 10 154 114 3 95-165 93-204 36-6-8-10-19-12-30l50-8c3 46 112 56 116 5-17-69-150-10-154-114-4-87 153-88 188-35 5 8 8 18 10 28" id="aw"/><path fill="#3a414a" d="M115-3C79 11 28 4 28-45v-112H4v-33h27l15-45h31v45h36v33H77v99c-1 23 16 31 38 25v30" id="ax"/><path fill="#3a414a" d="M133-34C117-15 103 5 69 4 32 3 11-16 11-54c-1-60 55-63 116-61 1-26-3-47-28-47-18 1-26 9-28 27l-52-2c7-38 36-58 82-57s74 22 75 68l1 82c-1 14 12 18 25 15v27c-30 8-71 5-69-32zm-48 3c29 0 43-24 42-57-32 0-66-3-65 30 0 17 8 27 23 27" id="ay"/><path fill="#3a414a" d="M185-48c-13 30-37 53-82 52C43 2 14-33 14-96s30-98 90-98c62 0 83 45 84 108H66c0 31 8 55 39 56 18 0 30-7 34-22zm-45-69c5-46-57-63-70-21-2 6-4 13-4 21h74" id="az"/><g id="f"><use transform="matrix(0.06172839506172839,0,0,0.06172839506172839,0,0)" xlink:href="#aw"/><use transform="matrix(0.06172839506172839,0,0,0.06172839506172839,14.814814814814813,0)" xlink:href="#ax"/><use transform="matrix(0.06172839506172839,0,0,0.06172839506172839,22.160493827160494,0)" xlink:href="#ay"/><use transform="matrix(0.06172839506172839,0,0,0.06172839506172839,34.50617283950617,0)" xlink:href="#ax"/><use transform="matrix(0.06172839506172839,0,0,0.06172839506172839,41.85185185185185,0)" xlink:href="#az"/></g><path fill="#3a414a" d="M24-248c120-7 223 5 221 122C244-46 201 0 124 0H24v-248zM76-40c74 7 117-18 117-86 0-67-45-88-117-82v168" id="aA"/><path fill="#3a414a" d="M135-150c-39-12-60 13-60 57V0H25l-1-190h47c2 13-1 29 3 40 6-28 27-53 61-41v41" id="aB"/><path fill="#3a414a" d="M190-63c-7 42-38 67-86 67-59 0-84-38-90-98-12-110 154-137 174-36l-49 2c-2-19-15-32-35-32-30 0-35 28-38 64-6 74 65 87 74 30" id="aC"/><path fill="#3a414a" d="M110-194c64 0 96 36 96 99 0 64-35 99-97 99-61 0-95-36-95-99 0-62 34-99 96-99zm-1 164c35 0 45-28 45-65 0-40-10-65-43-65-34 0-45 26-45 65 0 36 10 65 43 65" id="aD"/><path fill="#3a414a" d="M123 10C108 53 80 86 19 72V37c35 8 53-11 59-39L3-190h52l48 148c12-52 28-100 44-148h51" id="aE"/><g id="g"><use transform="matrix(0.06172839506172839,0,0,0.06172839506172839,0,0)" xlink:href="#aA"/><use transform="matrix(0.06172839506172839,0,0,0.06172839506172839,15.987654320987653,0)" xlink:href="#as"/><use transform="matrix(0.06172839506172839,0,0,0.06172839506172839,22.160493827160494,0)" xlink:href="#aB"/><use transform="matrix(0.06172839506172839,0,0,0.06172839506172839,30.80246913580247,0)" xlink:href="#az"/><use transform="matrix(0.06172839506172839,0,0,0.06172839506172839,43.148148148148145,0)" xlink:href="#aC"/><use transform="matrix(0.06172839506172839,0,0,0.06172839506172839,55.49382716049382,0)" xlink:href="#ax"/><use transform="matrix(0.06172839506172839,0,0,0.06172839506172839,62.8395061728395,0)" xlink:href="#aD"/><use transform="matrix(0.06172839506172839,0,0,0.06172839506172839,76.35802469135801,0)" xlink:href="#aB"/><use transform="matrix(0.06172839506172839,0,0,0.06172839506172839,84.99999999999999,0)" xlink:href="#aE"/></g><path fill="#3a414a" d="M67-125c0 53 21 87 73 88 37 1 54-22 65-47l45 17C233-25 199 4 140 4 58 4 20-42 15-125 8-235 124-281 211-232c18 10 29 29 36 50l-46 12c-8-25-30-41-62-41-52 0-71 34-72 86" id="aF"/><g id="h"><use transform="matrix(0.06172839506172839,0,0,0.06172839506172839,0,0)" xlink:href="#aF"/><use transform="matrix(0.06172839506172839,0,0,0.06172839506172839,15.987654320987653,0)" xlink:href="#aD"/><use transform="matrix(0.06172839506172839,0,0,0.06172839506172839,29.50617283950617,0)" xlink:href="#au"/><use transform="matrix(0.06172839506172839,0,0,0.06172839506172839,43.02469135802469,0)" xlink:href="#ax"/><use transform="matrix(0.06172839506172839,0,0,0.06172839506172839,50.37037037037037,0)" xlink:href="#az"/><use transform="matrix(0.06172839506172839,0,0,0.06172839506172839,62.716049382716044,0)" xlink:href="#au"/><use transform="matrix(0.06172839506172839,0,0,0.06172839506172839,76.23456790123456,0)" xlink:href="#ax"/><use transform="matrix(0.06172839506172839,0,0,0.06172839506172839,83.58024691358024,0)" xlink:href="#at"/></g><path fill="#3a414a" d="M240-174c0 40-23 61-54 70L253 0h-59l-57-94H76V0H24v-248c93 4 217-23 216 74zM76-134c48-2 112 12 112-38 0-48-66-32-112-35v73" id="aG"/><path fill="#3a414a" d="M85 4C-2 5 27-109 22-190h50c7 57-23 150 33 157 60-5 35-97 40-157h50l1 190h-47c-2-12 1-28-3-38-12 25-28 42-61 42" id="aH"/><path fill="#3a414a" d="M25 0v-261h50V0H25" id="aI"/><g id="i"><use transform="matrix(0.06172839506172839,0,0,0.06172839506172839,0,0)" xlink:href="#aG"/><use transform="matrix(0.06172839506172839,0,0,0.06172839506172839,15.987654320987653,0)" xlink:href="#az"/><use transform="matrix(0.06172839506172839,0,0,0.06172839506172839,28.333333333333332,0)" xlink:href="#at"/><use transform="matrix(0.06172839506172839,0,0,0.06172839506172839,40.67901234567901,0)" xlink:href="#aH"/><use transform="matrix(0.06172839506172839,0,0,0.06172839506172839,54.19753086419753,0)" xlink:href="#aI"/><use transform="matrix(0.06172839506172839,0,0,0.06172839506172839,60.370370370370374,0)" xlink:href="#ax"/><use transform="matrix(0.06172839506172839,0,0,0.06172839506172839,67.71604938271605,0)" xlink:href="#as"/><use transform="matrix(0.06172839506172839,0,0,0.06172839506172839,73.88888888888889,0)" xlink:href="#au"/><use transform="matrix(0.06172839506172839,0,0,0.06172839506172839,87.4074074074074,0)" xlink:href="#av"/></g><path fill="#3a414a" d="M47-170H22l-4-78h33" id="aJ"/><g id="j"><use transform="matrix(0.06172839506172839,0,0,0.06172839506172839,0,0)" xlink:href="#ao"/><use transform="matrix(0.06172839506172839,0,0,0.06172839506172839,14.814814814814813,0)" xlink:href="#aJ"/></g><g id="k"><use transform="matrix(0.06172839506172839,0,0,0.06172839506172839,0,0)" xlink:href="#ap"/><use transform="matrix(0.06172839506172839,0,0,0.06172839506172839,14.814814814814813,0)" xlink:href="#aJ"/></g><path fill="#3a414a" d="M118-107v75H92v-75H18v-26h74v-75h26v75h74v26h-74" id="aK"/><use transform="matrix(0.14814814814814803,0,0,0.14814814814814803,0,0)" xlink:href="#aK" id="l"/><path fill="#3a414a" d="M30-248c118-7 216 8 213 122C240-48 200 0 122 0H30v-248zM63-27c89 8 146-16 146-99s-60-101-146-95v194" id="aL"/><use transform="matrix(0.06172839506172839,0,0,0.06172839506172839,0,0)" xlink:href="#aL" id="m"/><path fill="#3a414a" d="M185-189c-5-48-123-54-124 2 14 75 158 14 163 119 3 78-121 87-175 55-17-10-28-26-33-46l33-7c5 56 141 63 141-1 0-78-155-14-162-118-5-82 145-84 179-34 5 7 8 16 11 25" id="aM"/><path fill="#3a414a" d="M96-169c-40 0-48 33-48 73s9 75 48 75c24 0 41-14 43-38l32 2c-6 37-31 61-74 61-59 0-76-41-82-99-10-93 101-131 147-64 4 7 5 14 7 22l-32 3c-4-21-16-35-41-35" id="aN"/><path fill="#3a414a" d="M100-194c63 0 86 42 84 106H49c0 40 14 67 53 68 26 1 43-12 49-29l28 8c-11 28-37 45-77 45C44 4 14-33 15-96c1-61 26-98 85-98zm52 81c6-60-76-77-97-28-3 7-6 17-6 28h103" id="aO"/><path fill="#3a414a" d="M117-194c89-4 53 116 60 194h-32v-121c0-31-8-49-39-48C34-167 62-67 57 0H25l-1-190h30c1 10-1 24 2 32 11-22 29-35 61-36" id="aP"/><path fill="#3a414a" d="M141-36C126-15 110 5 73 4 37 3 15-17 15-53c-1-64 63-63 125-63 3-35-9-54-41-54-24 1-41 7-42 31l-33-3c5-37 33-52 76-52 45 0 72 20 72 64v82c-1 20 7 32 28 27v20c-31 9-61-2-59-35zM48-53c0 20 12 33 32 33 41-3 63-29 60-74-43 2-92-5-92 41" id="aQ"/><path fill="#3a414a" d="M114-163C36-179 61-72 57 0H25l-1-190h30c1 12-1 29 2 39 6-27 23-49 58-41v29" id="aR"/><path fill="#3a414a" d="M24-231v-30h32v30H24zM24 0v-190h32V0H24" id="aS"/><path fill="#3a414a" d="M100-194c62-1 85 37 85 99 1 63-27 99-86 99S16-35 15-95c0-66 28-99 85-99zM99-20c44 1 53-31 53-75 0-43-8-75-51-75s-53 32-53 75 10 74 51 75" id="aT"/><g id="n"><use transform="matrix(0.06172839506172839,0,0,0.06172839506172839,0,0)" xlink:href="#aM"/><use transform="matrix(0.06172839506172839,0,0,0.06172839506172839,14.814814814814813,0)" xlink:href="#aN"/><use transform="matrix(0.06172839506172839,0,0,0.06172839506172839,25.925925925925924,0)" xlink:href="#aO"/><use transform="matrix(0.06172839506172839,0,0,0.06172839506172839,38.2716049382716,0)" xlink:href="#aP"/><use transform="matrix(0.06172839506172839,0,0,0.06172839506172839,50.61728395061728,0)" xlink:href="#aQ"/><use transform="matrix(0.06172839506172839,0,0,0.06172839506172839,62.962962962962955,0)" xlink:href="#aR"/><use transform="matrix(0.06172839506172839,0,0,0.06172839506172839,70.30864197530863,0)" xlink:href="#aS"/><use transform="matrix(0.06172839506172839,0,0,0.06172839506172839,75.18518518518518,0)" xlink:href="#aT"/></g><path fill="#3a414a" d="M27 0v-27h64v-190l-56 39v-29l58-41h29v221h61V0H27" id="aU"/><path fill="#3a414a" d="M33-154v-36h34v36H33zM33 0v-36h34V0H33" id="aV"/><g id="o"><use transform="matrix(0.06172839506172839,0,0,0.06172839506172839,0,0)" xlink:href="#aU"/><use transform="matrix(0.06172839506172839,0,0,0.06172839506172839,12.345679012345679,0)" xlink:href="#aV"/></g><path fill="#3a414a" d="M232-93c-1 65-40 97-104 97C67 4 28-28 28-90v-158h33c8 89-33 224 67 224 102 0 64-133 71-224h33v155" id="aW"/><path fill="#3a414a" d="M115-194c55 1 70 41 70 98S169 2 115 4C84 4 66-9 55-30l1 105H24l-1-265h31l2 30c10-21 28-34 59-34zm-8 174c40 0 45-34 45-75s-6-73-45-74c-42 0-51 32-51 76 0 43 10 73 51 73" id="aX"/><path fill="#3a414a" d="M85-194c31 0 48 13 60 33l-1-100h32l1 261h-30c-2-10 0-23-3-31C134-8 116 4 85 4 32 4 16-35 15-94c0-66 23-100 70-100zm9 24c-40 0-46 34-46 75 0 40 6 74 45 74 42 0 51-32 51-76 0-42-9-74-50-73" id="aY"/><path fill="#3a414a" d="M59-47c-2 24 18 29 38 22v24C64 9 27 4 27-40v-127H5v-23h24l9-43h21v43h35v23H59v120" id="aZ"/><g id="p"><use transform="matrix(0.06172839506172839,0,0,0.06172839506172839,0,0)" xlink:href="#aW"/><use transform="matrix(0.06172839506172839,0,0,0.06172839506172839,15.987654320987653,0)" xlink:href="#aX"/><use transform="matrix(0.06172839506172839,0,0,0.06172839506172839,28.333333333333332,0)" xlink:href="#aY"/><use transform="matrix(0.06172839506172839,0,0,0.06172839506172839,40.67901234567901,0)" xlink:href="#aQ"/><use transform="matrix(0.06172839506172839,0,0,0.06172839506172839,53.02469135802469,0)" xlink:href="#aZ"/><use transform="matrix(0.06172839506172839,0,0,0.06172839506172839,59.19753086419753,0)" xlink:href="#aO"/></g><path fill="#3a414a" d="M101-251c82-7 93 87 43 132L82-64C71-53 59-42 53-27h129V0H18c2-99 128-94 128-182 0-28-16-43-45-43s-46 15-49 41l-32-3c6-41 34-60 81-64" id="ba"/><g id="q"><use transform="matrix(0.06172839506172839,0,0,0.06172839506172839,0,0)" xlink:href="#ba"/><use transform="matrix(0.06172839506172839,0,0,0.06172839506172839,12.345679012345679,0)" xlink:href="#aV"/></g><g id="r"><use transform="matrix(0.06172839506172839,0,0,0.06172839506172839,0,0)" xlink:href="#ao"/><use transform="matrix(0.06172839506172839,0,0,0.06172839506172839,14.814814814814813,0)" xlink:href="#aY"/><use transform="matrix(0.06172839506172839,0,0,0.06172839506172839,27.160493827160494,0)" xlink:href="#aY"/></g><path fill="#3a414a" d="M126-127c33 6 58 20 58 59 0 88-139 92-164 29-3-8-5-16-6-25l32-3c6 27 21 44 54 44 32 0 52-15 52-46 0-38-36-46-79-43v-28c39 1 72-4 72-42 0-27-17-43-46-43-28 0-47 15-49 41l-32-3c6-42 35-63 81-64 48-1 79 21 79 65 0 36-21 52-52 59" id="bb"/><g id="s"><use transform="matrix(0.06172839506172839,0,0,0.06172839506172839,0,0)" xlink:href="#bb"/><use transform="matrix(0.06172839506172839,0,0,0.06172839506172839,12.345679012345679,0)" xlink:href="#aV"/></g><path fill="#3a414a" d="M24 0v-261h32V0H24" id="bc"/><g id="t"><use transform="matrix(0.06172839506172839,0,0,0.06172839506172839,0,0)" xlink:href="#aL"/><use transform="matrix(0.06172839506172839,0,0,0.06172839506172839,15.987654320987653,0)" xlink:href="#aO"/><use transform="matrix(0.06172839506172839,0,0,0.06172839506172839,28.333333333333332,0)" xlink:href="#bc"/><use transform="matrix(0.06172839506172839,0,0,0.06172839506172839,33.20987654320987,0)" xlink:href="#aO"/><use transform="matrix(0.06172839506172839,0,0,0.06172839506172839,45.55555555555555,0)" xlink:href="#aZ"/><use transform="matrix(0.06172839506172839,0,0,0.06172839506172839,51.72839506172839,0)" xlink:href="#aO"/></g><path fill="#3a414a" d="M54-142c48-35 137-8 131 61C196 18 31 33 14-55l32-4c7 23 22 37 52 37 35-1 51-22 54-58 4-55-73-65-99-34H22l8-134h141v27H59" id="bd"/><g id="v"><use transform="matrix(0.06172839506172839,0,0,0.06172839506172839,0,0)" xlink:href="#bd"/><use transform="matrix(0.06172839506172839,0,0,0.06172839506172839,12.345679012345679,0)" xlink:href="#aV"/></g><path fill="#3a414a" d="M84 4C-5 8 30-112 23-190h32v120c0 31 7 50 39 49 72-2 45-101 50-169h31l1 190h-30c-1-10 1-25-2-33-11 22-28 36-60 37" id="be"/><g id="w"><use transform="matrix(0.06172839506172839,0,0,0.06172839506172839,0,0)" xlink:href="#al"/><use transform="matrix(0.06172839506172839,0,0,0.06172839506172839,15.987654320987653,0)" xlink:href="#aT"/><use transform="matrix(0.06172839506172839,0,0,0.06172839506172839,28.333333333333332,0)" xlink:href="#aR"/><use transform="matrix(0.06172839506172839,0,0,0.06172839506172839,35.67901234567901,0)" xlink:href="#aR"/><use transform="matrix(0.06172839506172839,0,0,0.06172839506172839,43.02469135802469,0)" xlink:href="#be"/><use transform="matrix(0.06172839506172839,0,0,0.06172839506172839,55.37037037037037,0)" xlink:href="#aX"/><use transform="matrix(0.06172839506172839,0,0,0.06172839506172839,67.71604938271605,0)" xlink:href="#aZ"/></g><path fill="#3a414a" d="M125-24c46 0 70-25 89-51l25 16C214-24 183 4 123 4 8 4-5-146 60-208c32-50 158-61 191-5 5 7 9 14 11 22l-32 10c-9-28-33-43-69-43-74 0-108 51-108 125 0 46 24 75 72 75" id="bf"/><path fill="#3a414a" d="M30-147c31-64 166-65 159 27C183-49 158 1 86 4 9 8 1-88 30-147zM88-20c53 0 68-48 68-100 0-31-11-51-44-50-52 1-68 46-68 97 0 32 13 53 44 53" id="bg"/><path fill="#3a414a" d="M66-151c12-25 30-51 66-40l-6 26C45-176 58-65 38 0H6l36-190h30" id="bh"/><path fill="#3a414a" d="M67 3c-93-2-31-127-26-193h32L48-50c-3 39 53 32 70 12 30-34 30-101 43-152h32L157 0h-30c1-10 6-24 4-33-14 20-29 37-64 36" id="bi"/><path fill="#3a414a" d="M67-162c32-53 139-36 121 50C175-51 163 2 97 4 68 4 52-11 42-31 38 6 28 39 22 75H-9l50-265h29c-1 10 0 20-3 28zm89 36c0-26-10-43-35-43-54 0-67 50-69 103-1 29 14 45 42 46 53 0 62-58 62-106" id="bj"/><path fill="#3a414a" d="M51-54c-9 22 5 41 31 30L79-1C43 14 10-4 19-52l22-115H19l5-23h22l19-43h21l-9 43h35l-4 23H73" id="bk"/><g id="x"><use transform="matrix(0.06172839506172839,0,0,0.06172839506172839,0,0)" xlink:href="#bf"/><use transform="matrix(0.06172839506172839,0,0,0.06172839506172839,15.987654320987653,0)" xlink:href="#bg"/><use transform="matrix(0.06172839506172839,0,0,0.06172839506172839,28.333333333333332,0)" xlink:href="#bh"/><use transform="matrix(0.06172839506172839,0,0,0.06172839506172839,35.67901234567901,0)" xlink:href="#bh"/><use transform="matrix(0.06172839506172839,0,0,0.06172839506172839,43.02469135802469,0)" xlink:href="#bi"/><use transform="matrix(0.06172839506172839,0,0,0.06172839506172839,55.37037037037037,0)" xlink:href="#bj"/><use transform="matrix(0.06172839506172839,0,0,0.06172839506172839,67.71604938271605,0)" xlink:href="#bk"/></g><path fill="#3a414a" d="M110-160c48 1 74 30 74 79 0 53-28 85-80 85-65 0-83-55-86-122-5-90 50-162 133-122 14 7 22 21 27 39l-31 6c-5-40-67-38-82-6-9 19-15 44-15 74 11-20 30-34 60-33zm-7 138c34 0 49-23 49-58s-16-56-50-56c-29 0-50 16-49 49 1 36 15 65 50 65" id="bl"/><g id="y"><use transform="matrix(0.06172839506172839,0,0,0.06172839506172839,0,0)" xlink:href="#bl"/><use transform="matrix(0.06172839506172839,0,0,0.06172839506172839,12.345679012345679,0)" xlink:href="#aV"/></g><path fill="#3a414a" d="M199 0l-22-63H83L61 0H9l90-248h61L250 0h-51zm-33-102l-36-108c-10 38-24 72-36 108h72" id="bm"/><g id="z"><use transform="matrix(0.06172839506172839,0,0,0.06172839506172839,0,0)" xlink:href="#bm"/><use transform="matrix(0.06172839506172839,0,0,0.06172839506172839,15.987654320987653,0)" xlink:href="#at"/><use transform="matrix(0.06172839506172839,0,0,0.06172839506172839,28.333333333333332,0)" xlink:href="#aE"/><use transform="matrix(0.06172839506172839,0,0,0.06172839506172839,40.67901234567901,0)" xlink:href="#au"/><use transform="matrix(0.06172839506172839,0,0,0.06172839506172839,54.19753086419753,0)" xlink:href="#aC"/></g><path fill="#3a414a" d="M238-95c0 69-44 99-111 99C63 4 22-25 22-93v-155h51v151c-1 38 19 59 55 60 90 1 49-130 58-211h52v153" id="bn"/><path fill="#3a414a" d="M135-194c53 0 70 44 70 98 0 56-19 98-73 100-31 1-45-17-59-34 3 33 2 69 2 105H25l-1-265h48c2 10 0 23 3 31 11-24 29-35 60-35zM114-30c33 0 39-31 40-66 0-38-9-64-40-64-56 0-55 130 0 130" id="bo"/><path fill="#3a414a" d="M88-194c31-1 46 15 58 34l-1-101h50l1 261h-48c-2-10 0-23-3-31C134-8 116 4 84 4 32 4 16-41 15-95c0-56 19-97 73-99zm17 164c33 0 40-30 41-66 1-37-9-64-41-64s-38 30-39 65c0 43 13 65 39 65" id="bp"/><g id="A"><use transform="matrix(0.06172839506172839,0,0,0.06172839506172839,0,0)" xlink:href="#bn"/><use transform="matrix(0.06172839506172839,0,0,0.06172839506172839,15.987654320987653,0)" xlink:href="#bo"/><use transform="matrix(0.06172839506172839,0,0,0.06172839506172839,29.50617283950617,0)" xlink:href="#bp"/><use transform="matrix(0.06172839506172839,0,0,0.06172839506172839,43.02469135802469,0)" xlink:href="#ay"/><use transform="matrix(0.06172839506172839,0,0,0.06172839506172839,55.37037037037037,0)" xlink:href="#ax"/><use transform="matrix(0.06172839506172839,0,0,0.06172839506172839,62.716049382716044,0)" xlink:href="#az"/></g><g id="B"><use transform="matrix(0.06172839506172839,0,0,0.06172839506172839,0,0)" xlink:href="#aG"/><use transform="matrix(0.06172839506172839,0,0,0.06172839506172839,15.987654320987653,0)" xlink:href="#az"/><use transform="matrix(0.06172839506172839,0,0,0.06172839506172839,28.333333333333332,0)" xlink:href="#ax"/><use transform="matrix(0.06172839506172839,0,0,0.06172839506172839,35.67901234567901,0)" xlink:href="#aH"/><use transform="matrix(0.06172839506172839,0,0,0.06172839506172839,49.19753086419753,0)" xlink:href="#aB"/><use transform="matrix(0.06172839506172839,0,0,0.06172839506172839,57.839506172839506,0)" xlink:href="#au"/></g><g id="C"><use transform="matrix(0.06172839506172839,0,0,0.06172839506172839,0,0)" xlink:href="#aw"/><use transform="matrix(0.06172839506172839,0,0,0.06172839506172839,14.814814814814813,0)" xlink:href="#ax"/><use transform="matrix(0.06172839506172839,0,0,0.06172839506172839,22.160493827160494,0)" xlink:href="#ay"/><use transform="matrix(0.06172839506172839,0,0,0.06172839506172839,34.50617283950617,0)" xlink:href="#ax"/><use transform="matrix(0.06172839506172839,0,0,0.06172839506172839,41.85185185185185,0)" xlink:href="#aH"/><use transform="matrix(0.06172839506172839,0,0,0.06172839506172839,55.37037037037037,0)" xlink:href="#at"/></g><path fill="#3a414a" d="M30 0v-248h187v28H63v79h144v27H63v87h162V0H30" id="bq"/><g id="D"><use transform="matrix(0.06172839506172839,0,0,0.06172839506172839,0,0)" xlink:href="#aM"/><use transform="matrix(0.06172839506172839,0,0,0.06172839506172839,14.814814814814813,0)" xlink:href="#aW"/><use transform="matrix(0.06172839506172839,0,0,0.06172839506172839,30.80246913580247,0)" xlink:href="#al"/><use transform="matrix(0.06172839506172839,0,0,0.06172839506172839,46.79012345679012,0)" xlink:href="#al"/><use transform="matrix(0.06172839506172839,0,0,0.06172839506172839,62.77777777777777,0)" xlink:href="#bq"/><use transform="matrix(0.06172839506172839,0,0,0.06172839506172839,77.59259259259258,0)" xlink:href="#aM"/><use transform="matrix(0.06172839506172839,0,0,0.06172839506172839,92.40740740740739,0)" xlink:href="#aM"/></g><path fill="#3a414a" d="M140-251c81 0 123 46 123 126C263-46 219 4 140 4 59 4 17-45 17-125s42-126 123-126zm0 227c63 0 89-41 89-101s-29-99-89-99c-61 0-89 39-89 99S79-25 140-24" id="br"/><g id="E"><use transform="matrix(0.06172839506172839,0,0,0.06172839506172839,0,0)" xlink:href="#bq"/><use transform="matrix(0.06172839506172839,0,0,0.06172839506172839,14.814814814814813,0)" xlink:href="#am"/><use transform="matrix(0.06172839506172839,0,0,0.06172839506172839,30.80246913580247,0)" xlink:href="#am"/><use transform="matrix(0.06172839506172839,0,0,0.06172839506172839,46.79012345679012,0)" xlink:href="#br"/><use transform="matrix(0.06172839506172839,0,0,0.06172839506172839,64.07407407407408,0)" xlink:href="#am"/></g><path fill="#3a414a" d="M115-194c53 0 69 39 70 98 0 66-23 100-70 100C84 3 66-7 56-30L54 0H23l1-261h32v101c10-23 28-34 59-34zm-8 174c40 0 45-34 45-75 0-40-5-75-45-74-42 0-51 32-51 76 0 43 10 73 51 73" id="bs"/><path fill="#3a414a" d="M143 0L79-87 56-68V0H24v-261h32v163l83-92h37l-77 82L181 0h-38" id="bt"/><path fill="#3a414a" d="M87 75C49 33 22-17 22-94c0-76 28-126 65-167h31c-38 41-64 92-64 168S80 34 118 75H87" id="bu"/><path fill="#3a414a" d="M33-261c38 41 65 92 65 168S71 34 33 75H2C39 34 66-17 66-93S39-220 2-261h31" id="bv"/><g id="G"><use transform="matrix(0.06172839506172839,0,0,0.06172839506172839,0,0)" xlink:href="#al"/><use transform="matrix(0.06172839506172839,0,0,0.06172839506172839,15.987654320987653,0)" xlink:href="#aQ"/><use transform="matrix(0.06172839506172839,0,0,0.06172839506172839,28.333333333333332,0)" xlink:href="#bc"/><use transform="matrix(0.06172839506172839,0,0,0.06172839506172839,33.20987654320987,0)" xlink:href="#bc"/><use transform="matrix(0.06172839506172839,0,0,0.06172839506172839,38.08641975308642,0)" xlink:href="#bs"/><use transform="matrix(0.06172839506172839,0,0,0.06172839506172839,50.432098765432094,0)" xlink:href="#aQ"/><use transform="matrix(0.06172839506172839,0,0,0.06172839506172839,62.77777777777777,0)" xlink:href="#aN"/><use transform="matrix(0.06172839506172839,0,0,0.06172839506172839,73.88888888888889,0)" xlink:href="#bt"/><use transform="matrix(0.06172839506172839,0,0,0.06172839506172839,85,0)" xlink:href="#bu"/><use transform="matrix(0.06172839506172839,0,0,0.06172839506172839,92.34567901234568,0)" xlink:href="#bv"/></g><path fill="#3a414a" d="M64 0c3-98 48-159 88-221H18v-27h164v26C143-157 98-101 97 0H64" id="bw"/><g id="H"><use transform="matrix(0.06172839506172839,0,0,0.06172839506172839,0,0)" xlink:href="#bw"/><use transform="matrix(0.06172839506172839,0,0,0.06172839506172839,12.345679012345679,0)" xlink:href="#aV"/></g><path fill="#3a414a" d="M30-248c87 1 191-15 191 75 0 78-77 80-158 76V0H30v-248zm33 125c57 0 124 11 124-50 0-59-68-47-124-48v98" id="bx"/><path fill="#3a414a" d="M179-190L93 31C79 59 56 82 12 73V49c39 6 53-20 64-50L1-190h34L92-34l54-156h33" id="by"/><g id="I"><use transform="matrix(0.06172839506172839,0,0,0.06172839506172839,0,0)" xlink:href="#bx"/><use transform="matrix(0.06172839506172839,0,0,0.06172839506172839,14.814814814814813,0)" xlink:href="#aQ"/><use transform="matrix(0.06172839506172839,0,0,0.06172839506172839,27.160493827160494,0)" xlink:href="#aR"/><use transform="matrix(0.06172839506172839,0,0,0.06172839506172839,34.50617283950617,0)" xlink:href="#aZ"/><use transform="matrix(0.06172839506172839,0,0,0.06172839506172839,40.67901234567901,0)" xlink:href="#aS"/><use transform="matrix(0.06172839506172839,0,0,0.06172839506172839,45.55555555555556,0)" xlink:href="#aQ"/><use transform="matrix(0.06172839506172839,0,0,0.06172839506172839,57.901234567901234,0)" xlink:href="#bc"/><use transform="matrix(0.06172839506172839,0,0,0.06172839506172839,62.77777777777778,0)" xlink:href="#bc"/><use transform="matrix(0.06172839506172839,0,0,0.06172839506172839,67.65432098765432,0)" xlink:href="#by"/></g><g id="J"><use transform="matrix(0.06172839506172839,0,0,0.06172839506172839,0,0)" xlink:href="#al"/><use transform="matrix(0.06172839506172839,0,0,0.06172839506172839,15.987654320987653,0)" xlink:href="#aT"/><use transform="matrix(0.06172839506172839,0,0,0.06172839506172839,28.333333333333332,0)" xlink:href="#aR"/><use transform="matrix(0.06172839506172839,0,0,0.06172839506172839,35.67901234567901,0)" xlink:href="#aR"/><use transform="matrix(0.06172839506172839,0,0,0.06172839506172839,43.02469135802469,0)" xlink:href="#be"/><use transform="matrix(0.06172839506172839,0,0,0.06172839506172839,55.37037037037037,0)" xlink:href="#aX"/><use transform="matrix(0.06172839506172839,0,0,0.06172839506172839,67.71604938271605,0)" xlink:href="#aZ"/></g><g id="K"><use transform="matrix(0.06172839506172839,0,0,0.06172839506172839,0,0)" xlink:href="#aL"/><use transform="matrix(0.06172839506172839,0,0,0.06172839506172839,15.987654320987653,0)" xlink:href="#aO"/><use transform="matrix(0.06172839506172839,0,0,0.06172839506172839,28.333333333333332,0)" xlink:href="#bc"/><use transform="matrix(0.06172839506172839,0,0,0.06172839506172839,33.20987654320987,0)" xlink:href="#aO"/><use transform="matrix(0.06172839506172839,0,0,0.06172839506172839,45.55555555555555,0)" xlink:href="#aZ"/><use transform="matrix(0.06172839506172839,0,0,0.06172839506172839,51.72839506172839,0)" xlink:href="#aO"/></g><path fill="#3a414a" d="M134-131c28 9 52 24 51 62-1 50-34 73-85 73S17-19 16-69c0-36 21-54 49-61-75-25-45-126 34-121 46 3 78 18 79 63 0 33-17 51-44 57zm-34-11c31 1 46-15 46-44 0-28-17-43-47-42-29 0-46 13-45 42 1 28 16 44 46 44zm1 122c35 0 51-18 51-52 0-30-18-46-53-46-33 0-51 17-51 47 0 34 19 51 53 51" id="bz"/><g id="L"><use transform="matrix(0.06172839506172839,0,0,0.06172839506172839,0,0)" xlink:href="#bz"/><use transform="matrix(0.06172839506172839,0,0,0.06172839506172839,12.345679012345679,0)" xlink:href="#aV"/></g><g id="M"><use transform="matrix(0.06172839506172839,0,0,0.06172839506172839,0,0)" xlink:href="#aL"/><use transform="matrix(0.06172839506172839,0,0,0.06172839506172839,15.987654320987653,0)" xlink:href="#aS"/><use transform="matrix(0.06172839506172839,0,0,0.06172839506172839,20.864197530864196,0)" xlink:href="#aR"/><use transform="matrix(0.06172839506172839,0,0,0.06172839506172839,28.209876543209873,0)" xlink:href="#aO"/><use transform="matrix(0.06172839506172839,0,0,0.06172839506172839,40.55555555555555,0)" xlink:href="#aN"/><use transform="matrix(0.06172839506172839,0,0,0.06172839506172839,51.66666666666666,0)" xlink:href="#aZ"/><use transform="matrix(0.06172839506172839,0,0,0.06172839506172839,57.8395061728395,0)" xlink:href="#aT"/><use transform="matrix(0.06172839506172839,0,0,0.06172839506172839,70.18518518518518,0)" xlink:href="#aR"/><use transform="matrix(0.06172839506172839,0,0,0.06172839506172839,77.53086419753086,0)" xlink:href="#by"/></g><g id="N"><use transform="matrix(0.06172839506172839,0,0,0.06172839506172839,0,0)" xlink:href="#bf"/><use transform="matrix(0.06172839506172839,0,0,0.06172839506172839,15.987654320987653,0)" xlink:href="#bg"/><use transform="matrix(0.06172839506172839,0,0,0.06172839506172839,28.333333333333332,0)" xlink:href="#bh"/><use transform="matrix(0.06172839506172839,0,0,0.06172839506172839,35.67901234567901,0)" xlink:href="#bh"/><use transform="matrix(0.06172839506172839,0,0,0.06172839506172839,43.02469135802469,0)" xlink:href="#bi"/><use transform="matrix(0.06172839506172839,0,0,0.06172839506172839,55.37037037037037,0)" xlink:href="#bj"/><use transform="matrix(0.06172839506172839,0,0,0.06172839506172839,67.71604938271605,0)" xlink:href="#bk"/></g><path fill="#3a414a" d="M248-139C247-14 144 9 11 0l48-248c105-6 190 8 189 109zm-34 0c1-70-52-87-126-82L50-27c98 7 163-21 164-112" id="bA"/><path fill="#3a414a" d="M50-231l6-30h32l-6 30H50zM6 0l37-190h31L37 0H6" id="bB"/><path fill="#3a414a" d="M111-194c62-3 86 47 72 106H45c-7 38 6 69 45 68 27-1 43-14 53-32l24 11C152-15 129 4 87 4 38 3 12-23 12-71c0-70 32-119 99-123zm44 81c14-66-71-72-95-28-4 8-8 17-11 28h106" id="bC"/><path fill="#3a414a" d="M44-68c0 29 11 47 38 47 30 0 42-19 51-41l28 9C148-21 126 4 82 4 31 4 10-29 12-85c3-77 74-140 146-93 12 8 15 23 18 40l-31 5c-1-22-13-36-36-36-52 0-65 49-65 101" id="bD"/><path fill="#3a414a" d="M198-190L69 30C53 58 25 83-20 72c4-11-1-27 19-22 33-1 43-29 59-52L20-190h32L79-34l84-156h35" id="bE"/><g id="O"><use transform="matrix(0.06172839506172839,0,0,0.06172839506172839,0,0)" xlink:href="#bA"/><use transform="matrix(0.06172839506172839,0,0,0.06172839506172839,15.987654320987653,0)" xlink:href="#bB"/><use transform="matrix(0.06172839506172839,0,0,0.06172839506172839,20.864197530864196,0)" xlink:href="#bh"/><use transform="matrix(0.06172839506172839,0,0,0.06172839506172839,28.209876543209873,0)" xlink:href="#bC"/><use transform="matrix(0.06172839506172839,0,0,0.06172839506172839,40.55555555555555,0)" xlink:href="#bD"/><use transform="matrix(0.06172839506172839,0,0,0.06172839506172839,51.66666666666666,0)" xlink:href="#bk"/><use transform="matrix(0.06172839506172839,0,0,0.06172839506172839,57.8395061728395,0)" xlink:href="#bg"/><use transform="matrix(0.06172839506172839,0,0,0.06172839506172839,70.18518518518518,0)" xlink:href="#bh"/><use transform="matrix(0.06172839506172839,0,0,0.06172839506172839,77.53086419753086,0)" xlink:href="#bE"/></g><g id="P"><use transform="matrix(0.06172839506172839,0,0,0.06172839506172839,0,0)" xlink:href="#aG"/><use transform="matrix(0.06172839506172839,0,0,0.06172839506172839,15.987654320987653,0)" xlink:href="#az"/><use transform="matrix(0.06172839506172839,0,0,0.06172839506172839,28.333333333333332,0)" xlink:href="#ax"/><use transform="matrix(0.06172839506172839,0,0,0.06172839506172839,35.67901234567901,0)" xlink:href="#aH"/><use transform="matrix(0.06172839506172839,0,0,0.06172839506172839,49.19753086419753,0)" xlink:href="#aB"/><use transform="matrix(0.06172839506172839,0,0,0.06172839506172839,57.839506172839506,0)" xlink:href="#au"/></g><path fill="#3a414a" d="M121-226c-27-7-43 5-38 36h38v33H83V0H34v-157H6v-33h28c-9-59 32-81 87-68v32" id="bF"/><g id="Q"><use transform="matrix(0.06172839506172839,0,0,0.06172839506172839,0,0)" xlink:href="#bF"/><use transform="matrix(0.06172839506172839,0,0,0.06172839506172839,7.345679012345679,0)" xlink:href="#aD"/><use transform="matrix(0.06172839506172839,0,0,0.06172839506172839,20.864197530864196,0)" xlink:href="#aB"/></g><use transform="matrix(0.06172839506172839,0,0,0.06172839506172839,0,0)" xlink:href="#ay" id="R"/><g id="S"><use transform="matrix(0.06172839506172839,0,0,0.06172839506172839,0,0)" xlink:href="#aC"/><use transform="matrix(0.06172839506172839,0,0,0.06172839506172839,12.345679012345679,0)" xlink:href="#az"/><use transform="matrix(0.06172839506172839,0,0,0.06172839506172839,24.691358024691358,0)" xlink:href="#aB"/><use transform="matrix(0.06172839506172839,0,0,0.06172839506172839,33.33333333333333,0)" xlink:href="#ax"/></g><path fill="#3a414a" d="M220-157c-53 9-28 100-34 157h-49v-107c1-27-5-49-29-50C55-147 81-57 75 0H25l-1-190h47c2 12-1 28 3 38 10-53 101-56 108 0 13-22 24-43 59-42 82 1 51 116 57 194h-49v-107c-1-25-5-48-29-50" id="bG"/><g id="T"><use transform="matrix(0.06172839506172839,0,0,0.06172839506172839,0,0)" xlink:href="#bF"/><use transform="matrix(0.06172839506172839,0,0,0.06172839506172839,7.345679012345679,0)" xlink:href="#aB"/><use transform="matrix(0.06172839506172839,0,0,0.06172839506172839,15.987654320987653,0)" xlink:href="#aD"/><use transform="matrix(0.06172839506172839,0,0,0.06172839506172839,29.50617283950617,0)" xlink:href="#bG"/></g><use transform="matrix(0.06172839506172839,0,0,0.06172839506172839,0,0)" xlink:href="#aA" id="U"/><g id="V"><use transform="matrix(0.06172839506172839,0,0,0.06172839506172839,0,0)" xlink:href="#aC"/><use transform="matrix(0.06172839506172839,0,0,0.06172839506172839,12.345679012345679,0)" xlink:href="#aB"/><use transform="matrix(0.06172839506172839,0,0,0.06172839506172839,20.98765432098765,0)" xlink:href="#aI"/></g><path fill="#3a414a" d="M15-148v-39h180v39H15zm0 97v-39h180v39H15" id="bH"/><use transform="matrix(0.06172839506172839,0,0,0.06172839506172839,0,0)" xlink:href="#bH" id="W"/><path fill="#3a414a" d="M128 0H69L1-190h53L99-40l48-150h52" id="bI"/><path fill="#3a414a" d="M24 0v-54h51V0H24" id="bJ"/><path fill="#3a414a" d="M24 0v-248h52v208h133V0H24" id="bK"/><path fill="#3a414a" d="M67-93c0 74 22 123 53 168H70C40 30 18-18 18-93s22-123 52-168h50c-32 44-53 94-53 168" id="bL"/><path fill="#3a414a" d="M102-93c0 74-22 123-52 168H0C30 29 54-18 53-93c0-74-22-123-53-168h50c30 45 52 94 52 168" id="bM"/><g id="X"><use transform="matrix(0.06172839506172839,0,0,0.06172839506172839,0,0)" xlink:href="#bo"/><use transform="matrix(0.06172839506172839,0,0,0.06172839506172839,13.518518518518517,0)" xlink:href="#aB"/><use transform="matrix(0.06172839506172839,0,0,0.06172839506172839,22.160493827160494,0)" xlink:href="#aD"/><use transform="matrix(0.06172839506172839,0,0,0.06172839506172839,35.67901234567901,0)" xlink:href="#bI"/><use transform="matrix(0.06172839506172839,0,0,0.06172839506172839,48.02469135802469,0)" xlink:href="#as"/><use transform="matrix(0.06172839506172839,0,0,0.06172839506172839,54.19753086419753,0)" xlink:href="#bp"/><use transform="matrix(0.06172839506172839,0,0,0.06172839506172839,67.71604938271605,0)" xlink:href="#az"/><use transform="matrix(0.06172839506172839,0,0,0.06172839506172839,80.06172839506173,0)" xlink:href="#aB"/><use transform="matrix(0.06172839506172839,0,0,0.06172839506172839,87.46913580246914,0)" xlink:href="#bJ"/><use transform="matrix(0.06172839506172839,0,0,0.06172839506172839,93.64197530864197,0)" xlink:href="#aF"/><use transform="matrix(0.06172839506172839,0,0,0.06172839506172839,109.62962962962963,0)" xlink:href="#aG"/><use transform="matrix(0.06172839506172839,0,0,0.06172839506172839,125.61728395061729,0)" xlink:href="#bK"/><use transform="matrix(0.06172839506172839,0,0,0.06172839506172839,139.1358024691358,0)" xlink:href="#bL"/><use transform="matrix(0.06172839506172839,0,0,0.06172839506172839,146.48148148148147,0)" xlink:href="#aC"/><use transform="matrix(0.06172839506172839,0,0,0.06172839506172839,158.82716049382714,0)" xlink:href="#az"/><use transform="matrix(0.06172839506172839,0,0,0.06172839506172839,171.1728395061728,0)" xlink:href="#aB"/><use transform="matrix(0.06172839506172839,0,0,0.06172839506172839,179.81481481481478,0)" xlink:href="#ax"/><use transform="matrix(0.06172839506172839,0,0,0.06172839506172839,187.16049382716045,0)" xlink:href="#bM"/></g><g id="Y"><use transform="matrix(0.06172839506172839,0,0,0.06172839506172839,0,0)" xlink:href="#aP"/><use transform="matrix(0.06172839506172839,0,0,0.06172839506172839,12.345679012345679,0)" xlink:href="#be"/><use transform="matrix(0.06172839506172839,0,0,0.06172839506172839,24.691358024691358,0)" xlink:href="#bc"/><use transform="matrix(0.06172839506172839,0,0,0.06172839506172839,29.5679012345679,0)" xlink:href="#bc"/></g><path fill="#3a414a" d="M135-143c-3-34-86-38-87 0 15 53 115 12 119 90S17 21 10-45l28-5c4 36 97 45 98 0-10-56-113-15-118-90-4-57 82-63 122-42 12 7 21 19 24 35" id="bN"/><g id="Z"><use transform="matrix(0.06172839506172839,0,0,0.06172839506172839,0,0)" xlink:href="#aL"/><use transform="matrix(0.06172839506172839,0,0,0.06172839506172839,15.987654320987653,0)" xlink:href="#aJ"/><use transform="matrix(0.06172839506172839,0,0,0.06172839506172839,20.185185185185183,0)" xlink:href="#bN"/></g><g id="aa"><use transform="matrix(0.06172839506172839,0,0,0.06172839506172839,0,0)" xlink:href="#al"/><use transform="matrix(0.06172839506172839,0,0,0.06172839506172839,15.987654320987653,0)" xlink:href="#am"/><use transform="matrix(0.06172839506172839,0,0,0.06172839506172839,31.975308641975307,0)" xlink:href="#an"/></g><g id="ab"><use transform="matrix(0.06172839506172839,0,0,0.06172839506172839,0,0)" xlink:href="#aG"/><use transform="matrix(0.06172839506172839,0,0,0.06172839506172839,15.987654320987653,0)" xlink:href="#az"/><use transform="matrix(0.06172839506172839,0,0,0.06172839506172839,28.333333333333332,0)" xlink:href="#bI"/><use transform="matrix(0.06172839506172839,0,0,0.06172839506172839,40.67901234567901,0)" xlink:href="#aD"/><use transform="matrix(0.06172839506172839,0,0,0.06172839506172839,54.19753086419753,0)" xlink:href="#aC"/><use transform="matrix(0.06172839506172839,0,0,0.06172839506172839,66.54320987654322,0)" xlink:href="#ay"/><use transform="matrix(0.06172839506172839,0,0,0.06172839506172839,78.8888888888889,0)" xlink:href="#ax"/><use transform="matrix(0.06172839506172839,0,0,0.06172839506172839,86.23456790123458,0)" xlink:href="#as"/><use transform="matrix(0.06172839506172839,0,0,0.06172839506172839,92.40740740740742,0)" xlink:href="#aD"/><use transform="matrix(0.06172839506172839,0,0,0.06172839506172839,105.92592592592594,0)" xlink:href="#au"/></g><g id="ac"><use transform="matrix(0.06172839506172839,0,0,0.06172839506172839,0,0)" xlink:href="#aw"/><use transform="matrix(0.06172839506172839,0,0,0.06172839506172839,14.814814814814813,0)" xlink:href="#ax"/><use transform="matrix(0.06172839506172839,0,0,0.06172839506172839,22.160493827160494,0)" xlink:href="#ay"/><use transform="matrix(0.06172839506172839,0,0,0.06172839506172839,34.50617283950617,0)" xlink:href="#ax"/><use transform="matrix(0.06172839506172839,0,0,0.06172839506172839,41.85185185185185,0)" xlink:href="#aH"/><use transform="matrix(0.06172839506172839,0,0,0.06172839506172839,55.37037037037037,0)" xlink:href="#at"/></g><g id="ad"><use transform="matrix(0.06172839506172839,0,0,0.06172839506172839,0,0)" xlink:href="#bF"/><use transform="matrix(0.06172839506172839,0,0,0.06172839506172839,7.345679012345679,0)" xlink:href="#aD"/><use transform="matrix(0.06172839506172839,0,0,0.06172839506172839,20.864197530864196,0)" xlink:href="#aB"/></g><g id="ae"><use transform="matrix(0.06172839506172839,0,0,0.06172839506172839,0,0)" xlink:href="#aC"/><use transform="matrix(0.06172839506172839,0,0,0.06172839506172839,12.345679012345679,0)" xlink:href="#az"/><use transform="matrix(0.06172839506172839,0,0,0.06172839506172839,24.691358024691358,0)" xlink:href="#aB"/><use transform="matrix(0.06172839506172839,0,0,0.06172839506172839,33.33333333333333,0)" xlink:href="#ax"/></g><use transform="matrix(0.06172839506172839,0,0,0.06172839506172839,0,0)" xlink:href="#aA" id="af"/><path fill="#3a414a" d="M210-169c-67 3-38 105-44 169h-31v-121c0-29-5-50-35-48C34-165 62-65 56 0H25l-1-190h30c1 10-1 24 2 32 10-44 99-50 107 0 11-21 27-35 58-36 85-2 47 119 55 194h-31v-121c0-29-5-49-35-48" id="bO"/><g id="ag"><use transform="matrix(0.06172839506172839,0,0,0.06172839506172839,0,0)" xlink:href="#aW"/><use transform="matrix(0.06172839506172839,0,0,0.06172839506172839,15.987654320987653,0)" xlink:href="#aP"/><use transform="matrix(0.06172839506172839,0,0,0.06172839506172839,28.333333333333332,0)" xlink:href="#aY"/><use transform="matrix(0.06172839506172839,0,0,0.06172839506172839,40.67901234567901,0)" xlink:href="#aO"/><use transform="matrix(0.06172839506172839,0,0,0.06172839506172839,53.02469135802469,0)" xlink:href="#aZ"/><use transform="matrix(0.06172839506172839,0,0,0.06172839506172839,59.19753086419753,0)" xlink:href="#aO"/><use transform="matrix(0.06172839506172839,0,0,0.06172839506172839,71.54320987654322,0)" xlink:href="#aR"/><use transform="matrix(0.06172839506172839,0,0,0.06172839506172839,78.8888888888889,0)" xlink:href="#bO"/><use transform="matrix(0.06172839506172839,0,0,0.06172839506172839,97.34567901234568,0)" xlink:href="#aS"/><use transform="matrix(0.06172839506172839,0,0,0.06172839506172839,102.22222222222223,0)" xlink:href="#aP"/><use transform="matrix(0.06172839506172839,0,0,0.06172839506172839,114.56790123456791,0)" xlink:href="#aO"/><use transform="matrix(0.06172839506172839,0,0,0.06172839506172839,126.9135802469136,0)" xlink:href="#aY"/></g><path fill="#3a414a" d="M108 0H70L1-190h34L89-25l56-165h34" id="bP"/><g id="ah"><use transform="matrix(0.06172839506172839,0,0,0.06172839506172839,0,0)" xlink:href="#bu"/><use transform="matrix(0.06172839506172839,0,0,0.06172839506172839,7.345679012345679,0)" xlink:href="#aW"/><use transform="matrix(0.06172839506172839,0,0,0.06172839506172839,23.333333333333332,0)" xlink:href="#aP"/><use transform="matrix(0.06172839506172839,0,0,0.06172839506172839,35.67901234567901,0)" xlink:href="#bv"/><use transform="matrix(0.06172839506172839,0,0,0.06172839506172839,43.02469135802469,0)" xlink:href="#aR"/><use transform="matrix(0.06172839506172839,0,0,0.06172839506172839,50.37037037037037,0)" xlink:href="#aO"/><use transform="matrix(0.06172839506172839,0,0,0.06172839506172839,62.716049382716044,0)" xlink:href="#bP"/><use transform="matrix(0.06172839506172839,0,0,0.06172839506172839,73.82716049382715,0)" xlink:href="#aT"/><use transform="matrix(0.06172839506172839,0,0,0.06172839506172839,86.17283950617283,0)" xlink:href="#bt"/><use transform="matrix(0.06172839506172839,0,0,0.06172839506172839,97.28395061728395,0)" xlink:href="#aO"/><use transform="matrix(0.06172839506172839,0,0,0.06172839506172839,109.62962962962963,0)" xlink:href="#aY"/></g><path fill="#3a414a" d="M155-56V0h-30v-56H8v-25l114-167h33v167h35v25h-35zm-30-156c-27 46-58 90-88 131h88v-131" id="bQ"/><g id="ai"><use transform="matrix(0.06172839506172839,0,0,0.06172839506172839,0,0)" xlink:href="#bQ"/><use transform="matrix(0.06172839506172839,0,0,0.06172839506172839,12.345679012345679,0)" xlink:href="#aV"/></g><path fill="#3a414a" d="M63-220v92h138v28H63V0H30v-248h175v28H63" id="bR"/><g id="aj"><use transform="matrix(0.06172839506172839,0,0,0.06172839506172839,0,0)" xlink:href="#bR"/><use transform="matrix(0.06172839506172839,0,0,0.06172839506172839,13.518518518518517,0)" xlink:href="#be"/><use transform="matrix(0.06172839506172839,0,0,0.06172839506172839,25.864197530864196,0)" xlink:href="#bc"/><use transform="matrix(0.06172839506172839,0,0,0.06172839506172839,30.74074074074074,0)" xlink:href="#bc"/></g><path fill="#3a414a" d="M11 0l48-248h184l-5 28H87l-15 79h140l-5 27H67L50-27h158l-5 27H11" id="bS"/><path fill="#3a414a" d="M248-111c6-24 9-61-24-58-72 9-57 108-77 169h-31l26-142c3-37-50-30-64-10C52-115 50-51 37 0H6l36-190h30c-1 10-6 24-4 32 13-43 101-52 105 5 13-22 29-41 61-41 90 0 28 129 23 194h-31" id="bT"/><g id="ak"><use transform="matrix(0.06172839506172839,0,0,0.06172839506172839,0,0)" xlink:href="#bS"/><use transform="matrix(0.06172839506172839,0,0,0.06172839506172839,14.814814814814813,0)" xlink:href="#bT"/><use transform="matrix(0.06172839506172839,0,0,0.06172839506172839,33.2716049382716,0)" xlink:href="#bj"/><use transform="matrix(0.06172839506172839,0,0,0.06172839506172839,45.61728395061728,0)" xlink:href="#bk"/><use transform="matrix(0.06172839506172839,0,0,0.06172839506172839,51.79012345679012,0)" xlink:href="#bE"/></g></defs></g></svg>